<svg width="177" height="37" viewBox="0 0 177 37" fill="none" xmlns="http://www.w3.org/2000/svg">
<path d="M27.5069 36.0486L27.4309 17.0412L19.6044 32.5512H15.8051L7.97852 17.5734V36.1246H0V0.162598H7.06669L17.7807 20.9187L28.2668 0.162598H35.3335L35.4094 36.0486H27.5069Z" fill="white"/>
<path d="M62.0087 29.1299L55.55 10.1225L49.0912 29.1299L46.6597 36.0486H37.9214L51.3708 0.162598H59.8052L73.3306 36.0486H64.3643L62.0087 29.1299Z" fill="white"/>
<path d="M110.18 18.1056C110.18 7.76556 117.779 0.162598 128.113 0.162598C138.447 0.162598 146.046 7.76556 146.046 18.1056C146.046 28.4456 138.447 36.0486 128.113 36.0486C117.779 36.0486 110.18 28.4456 110.18 18.1056ZM136.775 18.1056C136.775 12.1753 132.976 8.22173 128.037 8.22173C123.174 8.22173 119.299 12.0992 119.299 18.1056C119.299 24.1119 123.098 27.9894 128.037 27.9894C132.976 27.9894 136.775 24.1119 136.775 18.1056Z" fill="white"/>
<path d="M176.449 0.162598H166.723L156.009 17.8775L166.723 36.0486H176.449L165.811 17.8775L176.449 0.162598Z" fill="white"/>
<path d="M158.286 5.33261L155.246 0.162598H145.444L153.346 13.4678L158.286 5.33261Z" fill="white"/>
<path d="M153.423 22.2871L145.141 36.0483H154.943L158.21 30.5743L153.423 22.2871Z" fill="white"/>
<path d="M90.1956 0.162598H75.7583V8.29776H84.3447H89.8157C94.9827 8.29776 98.4781 11.9472 98.4781 18.1816C98.4781 24.416 94.9827 28.0655 89.8157 28.0655H84.3447V17.8775H75.7583V36.0486H90.1956C100.302 36.0486 107.216 29.1299 107.216 18.1056C107.216 7.08129 100.302 0.162598 90.1956 0.162598Z" fill="white"/>
</svg>
