<svg width="173" height="45" viewBox="0 0 173 45" fill="none" xmlns="http://www.w3.org/2000/svg">
<path d="M114.445 0V32.7789C118.597 32.967 122.738 33.1944 126.868 33.4626V40.4124C120.318 39.9871 113.762 39.6644 107.201 39.4444V0H114.445ZM172.005 0.0039255L162.573 21.2978L172.003 44.9941L171.993 44.9984C169.243 44.6175 166.491 44.2551 163.737 43.9113L158.441 30.6117L153.095 42.6768C150.562 42.4043 148.025 42.1468 145.482 41.9047L154.677 21.1552L146.256 0.00425263H154.092L158.807 11.841L164.05 0.0039255H172.005ZM82.3414 39.1V0.00359838H102.561V7.01585H89.5849V16.1034H99.4033V23.0532H89.5849V39.0987L82.3414 39.1ZM55.2942 7.01618V0.00327125H77.6978V7.01585H70.1174V39.29C67.6996 39.3522 65.2846 39.4248 62.8746 39.5135V7.01618H55.2942ZM30.5316 41.5338V0.00457975H50.6508V7.01651H37.7741V16.5149C40.7323 16.478 44.9386 16.4364 47.5555 16.4423V23.3927C44.2798 23.3535 40.5821 23.4366 37.7741 23.4637V33.9854C42.0632 33.6562 46.3556 33.3705 50.6508 33.1283V40.0787C43.9366 40.4559 37.2293 40.9412 30.5316 41.5344V41.5338ZM16.3225 25.468L16.3221 0.00327125H23.5656V42.1893C20.9178 42.4543 18.2746 42.7366 15.6365 43.0346L7.2485 19.5699V44.0396C4.82942 44.3464 2.41504 44.666 0.00537109 45V0.0039255H6.88905L16.3221 25.468H16.3225ZM132.843 40.8314V0.0039255H140.087V41.4141C137.676 41.2047 135.262 41.0117 132.843 40.8318V40.8314Z" fill="white"/>
</svg>
