<svg width="216" height="35" viewBox="0 0 216 35" fill="none" xmlns="http://www.w3.org/2000/svg">
<path d="M11.3167 34.5542H0.997559V0.544111H18.805L39.2625 25.9468V0.544111H49.5816V34.5542H32.1222L11.3167 8.73853V34.5542ZM98.8684 24.0391C98.8684 28.7526 97.9984 30.3915 96.5663 31.9582C94.4048 34.2789 91.2328 35 85.0962 35H67.4962C61.3596 35 58.1876 34.2854 55.9926 31.9582C54.5605 30.3849 53.6905 28.7853 53.6905 24.0391V10.9281C53.6905 6.21464 54.5605 4.57576 55.9926 3.04177C58.1876 0.688329 61.3596 0 67.4962 0H85.0962C91.1926 0 94.4048 0.681774 96.5663 3.04177C97.9984 4.57576 98.8684 6.21465 98.8684 10.9609V24.0391ZM84.6479 26.3926C87.0168 26.3926 87.8199 26.2549 88.4155 25.7436C88.9374 25.265 89.185 24.6881 89.185 22.669V12.2916C89.185 10.3119 88.9441 9.69564 88.4155 9.24986C87.8199 8.73853 87.0235 8.60086 84.6479 8.60086H67.9178C65.5823 8.60086 64.7458 8.73853 64.1903 9.24986C63.6349 9.69564 63.4208 10.3053 63.4208 12.2916V22.669C63.4208 24.6816 63.6617 25.265 64.1903 25.7436C64.7458 26.2549 65.5823 26.3926 67.9178 26.3926H84.6479ZM113.859 0.550662V34.5608H103.091V0.550662H113.859ZM132.054 0.550662H146.241L127.069 16.4609L148.711 34.5542H133.48L113.859 16.8346L132.054 0.583441V0.550662ZM150.698 0.583441H161.466V34.5542H150.698V0.583441ZM202.528 34.5542L199.322 28.6477H178.477L175.338 34.5542H163.453L182.519 0.544111H195.903L215.002 34.5542H202.521H202.528ZM182.244 21.2727H195.628L188.936 8.9483L182.244 21.2727Z" fill="white"/>
</svg>
