<svg width="234" height="35" viewBox="0 0 234 35" fill="none" xmlns="http://www.w3.org/2000/svg">
<path d="M193.206 1.08883L193.666 26.798H193.439L185.82 1.08883H173.331V33.4742H181.594L181.133 6.86963H181.36L189.513 33.4742H201.468V1.08883H193.206ZM35.7664 1.08883L29.5218 33.8109H38.5451L43.1518 4.04012H43.3419L47.8389 33.8109H56.789L50.6175 1.08883H35.7664ZM86.2645 1.08883L82.1477 26.0458H81.9211L77.7677 1.08883H64.1305L63.4797 33.8109H71.8595L72.0861 4.37679H72.1593L77.7604 33.8109H86.2499L91.851 4.37679H92.0777L92.3044 33.8109H100.684L99.8871 1.08883H86.2645ZM15.4239 24.5201C15.7676 25.265 15.6506 26.3825 15.5409 26.9055C15.3142 28.0229 14.5099 29.1046 12.3016 29.1046C10.1664 29.1046 8.95258 27.9083 8.95258 26.1605V22.9871H0.00244141V25.4871C0.00244141 32.8367 5.90339 35 12.1919 35C18.2098 35 23.2333 32.9513 24.0377 27.5788C24.4983 24.7421 24.1546 22.8797 24.0377 22.2063C22.4728 15.3009 9.72036 13.3668 8.8429 9.52006C8.7249 8.94077 8.7249 8.34434 8.8429 7.76505C9.06957 6.68339 9.83004 5.56591 11.8482 5.56591C13.8664 5.56591 14.9705 6.76218 14.9705 8.51003V10.4871H23.3503V8.20917C23.3503 1.08166 16.762 0 12.0749 0C6.13007 0 1.22358 1.94126 0.346115 7.19914C0.0436882 8.65732 0.0836952 10.1638 0.46311 11.6046C1.79393 18.3596 13.7567 20.3367 15.4312 24.5129L15.4239 24.5201ZM124.156 24.5201C124.5 25.265 124.383 26.2751 124.273 26.9055C124.047 28.0229 123.242 29.1046 121.034 29.1046C118.899 29.1046 117.685 27.9083 117.685 26.1605V22.9871H108.735V25.4871C108.735 32.7221 114.526 34.9284 120.807 34.9284C126.825 34.9284 131.739 32.9513 132.536 27.4642C132.997 24.6275 132.653 22.8725 132.536 22.0917C131.205 15.3009 118.563 13.2522 117.685 9.52006C117.567 8.94077 117.567 8.34434 117.685 7.76505C117.875 6.68339 118.672 5.56591 120.69 5.56591C122.592 5.56591 123.813 6.76218 123.813 8.51003V10.4871H132.075V8.20917C132.075 1.08166 125.604 0 120.917 0C114.972 0 110.175 1.82665 109.298 7.19914C109.071 8.61748 109.071 9.95702 109.371 11.6046C110.746 18.3596 122.475 20.2221 124.149 24.5129L124.156 24.5201ZM152.301 28.8897C154.663 28.8897 155.306 27.3567 155.54 26.5043C155.657 26.1676 155.657 25.6089 155.657 25.2722V1.09599H164.147V24.6347C164.147 25.2722 164.147 26.4971 164.03 26.798C163.496 32.9513 158.546 34.9284 152.411 34.9284C146.276 34.9284 141.369 32.9513 140.792 26.798C140.792 26.4971 140.675 25.2651 140.675 24.6347V1.09599H149.164V25.2722C149.164 25.7235 149.164 26.1676 149.281 26.5043C149.281 27.3639 149.968 28.8897 152.286 28.8897H152.301ZM222.038 28.553C224.516 28.553 225.277 27.0201 225.504 26.1676C225.62 25.8309 225.62 25.2722 225.62 24.9713V20.2364H222.155V15.4226H234V24.1906C234 24.8639 234 25.2722 233.883 26.3897C233.313 32.3997 228.055 34.4843 222.155 34.4843C216.21 34.4843 210.996 32.3926 210.426 26.3897C210.309 25.2722 210.309 24.8567 210.309 24.1906V10.3868C210.309 9.8639 210.426 8.74642 210.426 8.2235C211.186 2.07021 216.217 0.0931267 222.155 0.0931267C228.055 0.0931267 233.196 2.07021 233.883 8.2235C234 9.19055 234 10.3868 234 10.3868V11.5043H225.62V9.64184C225.62 9.64184 225.62 8.86103 225.504 8.40974C225.387 7.66476 224.706 6.02436 222.155 6.02436C219.676 6.02436 219.032 7.55731 218.806 8.40974C218.689 8.86103 218.689 9.41978 218.689 9.97851V24.9785C218.689 25.3868 218.689 25.8381 218.806 26.1748C218.806 27.0344 219.683 28.5602 222.045 28.5602L222.038 28.553Z" fill="white"/>
</svg>
