<svg width="341" height="296" viewBox="0 0 341 296" fill="none" xmlns="http://www.w3.org/2000/svg">
<path d="M221 267.79C219.886 269.422 218.52 270.813 216.9 271.963C216.916 272.272 216.924 272.621 216.924 273.009C216.924 275.17 216.604 277.333 215.965 279.499C215.325 281.664 214.348 283.737 213.033 285.718C211.719 287.698 210.153 289.452 208.336 290.981C206.519 292.509 204.334 293.728 201.783 294.637C199.231 295.546 196.497 296 193.579 296C189.026 296 184.833 294.789 181 292.368C181.68 292.443 182.333 292.48 182.957 292.48C186.761 292.48 190.159 291.326 193.15 289.018C191.376 288.986 189.788 288.449 188.385 287.405C186.982 286.362 186.016 285.029 185.488 283.406C186.01 283.504 186.525 283.553 187.033 283.553C187.765 283.553 188.485 283.459 189.194 283.271C187.301 282.897 185.731 281.969 184.483 280.485C183.235 279.002 182.612 277.29 182.612 275.349V275.249C183.773 275.882 185.013 276.219 186.329 276.26C185.208 275.523 184.319 274.563 183.662 273.38C183.005 272.196 182.677 270.915 182.677 269.536C182.677 268.083 183.047 266.729 183.787 265.475C185.845 267.963 188.339 269.951 191.269 271.44C194.199 272.929 197.342 273.755 200.699 273.92C200.556 273.333 200.484 272.719 200.484 272.081C200.484 269.85 201.285 267.946 202.888 266.368C204.491 264.789 206.425 264 208.689 264C211.06 264 213.057 264.85 214.681 266.551C216.535 266.189 218.272 265.535 219.89 264.588C219.267 266.52 218.065 268.011 216.286 269.06C217.921 268.869 219.493 268.446 221 267.79H221Z" fill="white"/>
<path d="M104.063 291V278.331H101V273.769H104.063V269.873C104.063 266.812 105.873 264 110.042 264C111.731 264 112.979 264.177 112.979 264.177L112.88 268.437C112.88 268.437 111.607 268.423 110.218 268.423C108.715 268.423 108.474 269.181 108.474 270.439V273.769H113L112.803 278.331H108.474V291H104.063Z" fill="white"/>
<path d="M16.4956 271.79C11.8106 271.79 8.02963 275.457 8.02963 280C8.02963 284.543 11.8106 288.21 16.4956 288.21C21.1805 288.21 24.9615 284.543 24.9615 280C24.9615 275.457 21.1805 271.79 16.4956 271.79ZM16.4956 285.336C13.4658 285.336 10.9933 282.938 10.9933 280C10.9933 277.062 13.4658 274.664 16.4956 274.664C19.5253 274.664 21.9978 277.062 21.9978 280C21.9978 282.938 19.5253 285.336 16.4956 285.336ZM25.3082 269.541C24.2144 269.541 23.3311 270.398 23.3311 271.458C23.3311 272.519 24.2144 273.376 25.3082 273.376C26.4021 273.376 27.2854 272.523 27.2854 271.458C27.2857 271.206 27.2348 270.957 27.1356 270.724C27.0363 270.491 26.8907 270.28 26.707 270.102C26.5234 269.924 26.3053 269.782 26.0653 269.686C25.8252 269.59 25.568 269.541 25.3082 269.541ZM32.9982 280C32.9982 277.791 33.0188 275.601 32.8908 273.396C32.7629 270.834 32.1602 268.56 30.2285 266.687C28.2926 264.81 25.9522 264.229 23.3104 264.105C21.0319 263.981 18.7741 264.001 16.4997 264.001C14.2212 264.001 11.9633 263.981 9.68897 264.105C7.04723 264.229 4.70269 264.814 2.77092 266.687C0.835026 268.564 0.236507 270.834 0.108548 273.396C-0.0194109 275.605 0.00122776 277.795 0.00122776 280C0.00122776 282.205 -0.0194109 284.399 0.108548 286.604C0.236507 289.166 0.839153 291.44 2.77092 293.313C4.70682 295.19 7.04723 295.771 9.68897 295.895C11.9675 296.019 14.2253 295.999 16.4997 295.999C18.7782 295.999 21.036 296.019 23.3104 295.895C25.9522 295.771 28.2967 295.186 30.2285 293.313C32.1644 291.436 32.7629 289.166 32.8908 286.604C33.0229 284.399 32.9982 282.209 32.9982 280ZM29.3658 289.438C29.0644 290.167 28.7012 290.711 28.1192 291.272C27.5372 291.836 26.98 292.188 26.2287 292.48C24.0575 293.317 18.902 293.129 16.4956 293.129C14.0891 293.129 8.92947 293.317 6.75829 292.484C6.00705 292.192 5.44568 291.84 4.8678 291.276C4.28579 290.711 3.92255 290.171 3.62123 289.442C2.76267 287.333 2.95667 282.334 2.95667 280C2.95667 277.666 2.76267 272.663 3.62123 270.558C3.92255 269.829 4.28579 269.285 4.8678 268.724C5.44981 268.164 6.00705 267.808 6.75829 267.516C8.92947 266.683 14.0891 266.871 16.4956 266.871C18.902 266.871 24.0617 266.683 26.2328 267.516C26.9841 267.808 27.5455 268.16 28.1233 268.724C28.7053 269.289 29.0686 269.829 29.3699 270.558C30.2285 272.663 30.0345 277.666 30.0345 280C30.0345 282.334 30.2285 287.333 29.3658 289.438Z" fill="white"/>
<path d="M15.0436 183.809C15.0436 183.809 11.959 183.423 10.2453 183.423C8.03662 183.423 7.08459 184.079 7.08459 185.929C7.08459 187.703 7.99854 188.05 10.7404 188.937C14.2439 190.055 15.7291 190.98 15.7291 194.489C15.7291 198.46 13.8631 200.311 9.75029 200.311C7.42732 200.311 4.38081 199.733 4.38081 199.733L4.53314 197.227C4.53314 197.227 8.03662 197.612 9.75029 197.612C11.7305 197.612 12.6445 196.725 12.6445 194.72C12.6445 192.792 11.6924 192.33 9.21715 191.636C5.67558 190.595 4 189.322 4 186.353C4 182.459 5.98023 180.763 10.0549 180.763C12.3779 180.763 15.1578 181.418 15.1578 181.418L15.0436 183.809Z" fill="white"/>
<path d="M18.6611 190.363C18.6611 185.698 19.4243 182.96 21.6737 181.688C22.7583 181.033 24.1641 180.763 25.9717 180.763C31.6354 180.763 33.3225 183.5 33.3225 190.363C33.3225 195.183 32.4789 198.152 30.0688 199.463C29.0245 200.041 27.6989 200.311 26.0119 200.311C20.3482 200.349 18.6611 197.226 18.6611 190.363ZM28.0604 197.265C29.6672 196.417 30.0287 194.335 30.0287 190.363C30.0287 185.12 29.4262 183.462 25.9717 183.462C25.1683 183.462 24.5257 183.577 24.0035 183.77C22.2763 184.464 21.9549 186.353 21.9549 190.363C21.9549 195.607 22.5574 197.65 25.9717 197.65C26.8554 197.65 27.4981 197.496 28.0604 197.265Z" fill="white"/>
<path d="M37.2324 200.311V180.763H40.0362V197.53H46.0292V200.311H37.2324Z" fill="white"/>
<path d="M52.014 194.043C52.014 196.589 52.9298 197.608 55.3337 197.608C57.7377 197.608 58.6534 196.589 58.6534 194.043V180.763H61.6679V193.769C61.6679 198.313 59.7219 200.311 55.3337 200.311C50.9075 200.311 48.9614 198.313 48.9614 193.769V180.763H52.014V194.043Z" fill="white"/>
<path d="M77.2673 199.734C77.2673 199.734 74.5697 200.311 72.263 200.311C66.8676 200.311 65.5774 196.655 65.5774 190.498C65.5774 183.918 67.3368 180.763 72.263 180.763C74.3742 180.763 77.3064 181.417 77.3064 181.417L77.1501 183.841C77.1501 183.841 74.3742 183.456 72.7321 183.456C69.6826 183.456 68.7833 185.727 68.7833 190.498C68.7833 194.962 69.5262 197.617 72.8494 197.617C74.3351 197.617 77.1892 197.233 77.1892 197.233L77.2673 199.734Z" fill="white"/>
<path d="M80.239 180.763H83.1713V200.311H80.239V180.763Z" fill="white"/>
<path d="M86.1035 190.363C86.1035 185.698 86.8667 182.96 89.1161 181.688C90.2007 181.033 91.6065 180.763 93.4141 180.763C99.0778 180.763 100.765 183.5 100.765 190.363C100.765 195.183 99.9213 198.152 97.5112 199.463C96.4669 200.041 95.1413 200.311 93.4543 200.311C87.7906 200.349 86.1035 197.226 86.1035 190.363ZM95.4627 197.265C97.0694 196.417 97.4309 194.335 97.4309 190.363C97.4309 185.12 96.8284 183.462 93.3739 183.462C92.5706 183.462 91.9279 183.577 91.4057 183.77C89.6785 184.464 89.3571 186.353 89.3571 190.363C89.3571 195.607 89.9596 197.65 93.3739 197.65C94.2576 197.65 94.9405 197.496 95.4627 197.265Z" fill="white"/>
<path d="M104.675 180.763H109.958L115.855 196.974H116.223V180.763H119.336V200.311H114.217L108.36 183.941H107.951V200.311H104.675V180.763Z" fill="white"/>
<path d="M147.973 183.809C147.973 183.809 144.888 183.423 143.175 183.423C140.966 183.423 140.014 184.079 140.014 185.929C140.014 187.703 140.928 188.05 143.67 188.937C147.173 190.055 148.658 190.98 148.658 194.489C148.658 198.46 146.792 200.311 142.679 200.311C140.357 200.311 137.31 199.733 137.31 199.733L137.462 197.227C137.462 197.227 140.966 197.612 142.679 197.612C144.66 197.612 145.574 196.725 145.574 194.72C145.574 192.792 144.622 192.33 142.146 191.636C138.605 190.595 136.929 189.322 136.929 186.353C136.929 182.459 138.909 180.763 142.946 180.763C145.269 180.763 148.049 181.418 148.049 181.418L147.973 183.809Z" fill="white"/>
<path d="M159.996 180.878H172.703V183.659H168.024V200.426H164.797V183.659H159.996V180.878Z" fill="white"/>
<path d="M200.032 199.849C200.032 199.849 197.334 200.426 195.027 200.426C189.632 200.426 188.342 196.771 188.342 190.614C188.342 184.033 190.101 180.878 195.027 180.878C197.138 180.878 200.071 181.532 200.071 181.532L199.914 183.956C199.914 183.956 197.138 183.572 195.496 183.572C192.447 183.572 191.547 185.842 191.547 190.614C191.547 195.077 192.29 197.733 195.614 197.733C197.099 197.733 199.953 197.348 199.953 197.348L200.032 199.849Z" fill="white"/>
<path d="M203.003 180.878H208.286L214.183 197.089H214.552V180.878H217.664V200.426H212.545L206.688 184.057H206.279V200.426H203.003V180.878Z" fill="white"/>
<path d="M221.574 190.478C221.574 185.813 222.337 183.076 224.587 181.803C225.671 181.148 227.077 180.878 228.885 180.878C234.548 180.878 236.235 183.615 236.235 190.478C236.235 195.298 235.392 198.267 232.982 199.578C231.937 200.156 230.612 200.426 228.925 200.426C223.261 200.465 221.574 197.341 221.574 190.478ZM230.973 197.38C232.58 196.532 232.942 194.45 232.942 190.478C232.942 185.235 232.339 183.577 228.885 183.577C228.081 183.577 227.439 183.693 226.916 183.885C225.189 184.579 224.868 186.469 224.868 190.478C224.868 195.722 225.47 197.766 228.885 197.766C229.768 197.766 230.411 197.611 230.973 197.38Z" fill="white"/>
<path d="M238.19 200.426V180.878H241.617V197.645H248.942V200.426H238.19Z" fill="white"/>
<path d="M249.919 190.193C249.919 185.394 250.682 182.578 252.932 181.269C254.016 180.595 255.422 180.317 257.23 180.317C262.893 180.317 264.581 183.133 264.581 190.193C264.581 195.151 263.737 198.205 261.327 199.553C260.283 200.148 258.957 200.426 257.27 200.426C251.606 200.466 249.919 197.253 249.919 190.193ZM259.319 197.293C260.925 196.42 261.287 194.278 261.287 190.193C261.287 184.799 260.684 183.093 257.23 183.093C256.426 183.093 255.784 183.212 255.262 183.411C253.534 184.125 253.213 186.068 253.213 190.193C253.213 195.587 253.815 197.689 257.23 197.689C258.113 197.689 258.756 197.531 259.319 197.293ZM253.936 175.756L260.403 173.059L261.327 175.835L254.78 178.096L253.936 175.756Z" fill="white"/>
<path d="M275.691 189.9H281.197V199.887C281.197 199.887 277.027 200.426 274.881 200.426C269.173 200.426 267.513 196.224 267.513 190.517C267.513 184.31 269.375 180.878 275.084 180.878C278.322 180.878 281.197 181.61 281.197 181.61L281.075 184.001C281.075 184.001 277.675 183.577 275.367 183.577C271.44 183.577 270.792 186.546 270.792 190.556C270.792 194.643 271.561 197.766 275.286 197.766C276.298 197.766 277.958 197.535 277.958 197.535V192.445H275.691V189.9Z" fill="white"/>
<path d="M284.129 180.878H288.039V200.426H284.129V180.878Z" fill="white"/>
<path d="M302.661 199.849C302.661 199.849 299.963 200.426 297.656 200.426C292.261 200.426 290.971 196.771 290.971 190.614C290.971 184.033 292.73 180.878 297.656 180.878C299.768 180.878 302.7 181.532 302.7 181.532L302.543 183.956C302.543 183.956 299.767 183.572 298.125 183.572C295.076 183.572 294.177 185.842 294.177 190.614C294.177 195.077 294.919 197.733 298.243 197.733C299.728 197.733 302.582 197.348 302.582 197.348L302.661 199.849Z" fill="white"/>
<path d="M309.144 180.878H314.866L319.316 200.426H316.177L314.588 193.553H309.383L307.793 200.426H304.655L309.144 180.878ZM309.383 193.553H314.588L312.283 183.659H311.687L309.383 193.553Z" fill="white"/>
<path d="M332.315 183.924C332.315 183.924 329.23 183.538 327.516 183.538C325.308 183.538 324.356 184.194 324.356 186.045C324.356 187.818 325.27 188.165 328.011 189.052C331.515 190.17 333 191.096 333 194.604C333 198.576 331.134 200.426 327.021 200.426C324.698 200.426 321.652 199.848 321.652 199.848L321.804 197.342C321.804 197.342 325.308 197.727 327.021 197.727C329.002 197.727 329.915 196.841 329.915 194.836C329.915 192.908 328.963 192.445 326.488 191.751C322.947 190.71 321.271 189.438 321.271 186.469C321.271 182.574 323.251 180.878 327.326 180.878C329.649 180.878 332.429 181.533 332.429 181.533L332.315 183.924Z" fill="white"/>
<path d="M184.576 183.81H174.658V180.878H185.409L184.576 183.81Z" fill="white"/>
<path d="M132.919 183.81H123V180.878H133.752L132.919 183.81Z" fill="white"/>
<path d="M184.577 191.932H174.658V189H185.41L184.577 191.932Z" fill="white"/>
<path d="M132.919 191.932H123V189H133.752L132.919 191.932Z" fill="white"/>
<path d="M184.577 199.932H174.658V197H185.41L184.577 199.932Z" fill="white"/>
<path d="M132.919 199.932H123V197H133.752L132.919 199.932Z" fill="white"/>
<path d="M187.314 125.628H149.36V137.845H187.314V125.628Z" fill="#007CC0"/>
<path d="M187.314 137.817L149.36 137.703V125.628H187.314V137.817Z" fill="#007CC0"/>
<path d="M196.725 45.8916V54.5654L188.817 59.1007L187.343 59.9794V83.7614L179.236 88.2684V64.6564L168.436 70.8925L168.38 70.9492L168.295 70.8925L157.495 64.6564V88.2684L149.388 83.7898V59.9794L148.141 59.2424L140.091 54.5937V45.9483L147.177 50.0017L148.424 50.7387L151.996 52.8079L168.38 62.2754L184.962 52.6662L188.93 50.3702L190.149 49.6616L196.725 45.8916Z" fill="white"/>
<path d="M168.437 70.8926V70.9776L168.38 70.9493L168.437 70.8926Z" fill="white"/>
<path d="M196.726 41.3842L183.46 49.1793L182.468 49.7462L168.38 58.0231L161.152 53.7996L171.186 47.9037L176.005 45.0975L183.46 40.7323L179.917 38.6063L171.356 43.6235L163.731 48.1021H163.703L157.58 51.702L154.462 49.8879L153.754 49.4627L140.091 41.4409L168.578 24.5469L175.807 28.9688L153.669 41.9511L156.673 43.7652L178.84 30.7546L196.726 41.3842Z" fill="white"/>
<path d="M168.408 11.5934C174.474 11.5934 180.341 12.7839 185.84 15.1082C191.169 17.3759 195.96 20.6073 200.098 24.7174C204.208 28.8275 207.44 33.618 209.708 38.9753C212.032 44.5027 213.222 50.3702 213.222 56.4079C213.222 62.4738 212.032 68.3414 209.708 73.8405C207.44 79.1694 204.208 83.9599 200.098 88.0983C195.988 92.2084 191.198 95.4399 185.84 97.7075C180.313 100.032 174.445 101.222 168.408 101.222C162.342 101.222 156.474 100.032 150.975 97.7075C145.646 95.4399 140.856 92.2084 136.717 88.0983C132.607 83.9882 129.376 79.1978 127.108 73.8405C124.784 68.3131 123.593 62.4455 123.593 56.4079C123.593 50.3419 124.784 44.4743 127.108 38.9753C129.376 33.6463 132.607 28.8559 136.717 24.7174C140.828 20.6073 145.618 17.3759 150.975 15.1082C156.474 12.7839 162.342 11.5934 168.408 11.5934ZM168.408 0C137.256 0 112 25.256 112 56.4079C112 87.5598 137.256 112.816 168.408 112.816C199.56 112.816 224.816 87.5598 224.816 56.4079C224.816 25.256 199.56 0 168.408 0Z" fill="#007CC0"/>
<path d="M333.085 269.031C332.828 268.066 332.328 267.186 331.633 266.478C330.938 265.771 330.072 265.26 329.123 264.998C325.602 264.016 311.516 264 311.516 264C311.516 264 297.432 263.984 293.908 264.923C292.959 265.197 292.096 265.715 291.4 266.426C290.705 267.137 290.201 268.017 289.938 268.983C289.009 272.56 289 279.977 289 279.977C289 279.977 288.991 287.431 289.913 290.971C290.43 292.928 291.948 294.474 293.877 295.002C297.434 295.984 311.482 296 311.482 296C311.482 296 325.568 296.016 329.089 295.08C330.039 294.818 330.905 294.309 331.602 293.602C332.299 292.896 332.802 292.018 333.062 291.053C333.993 287.479 334 280.064 334 280.064C334 280.064 334.045 272.607 333.085 269.031ZM307.01 286.849L307.021 273.146L318.728 280.009L307.01 286.849Z" fill="white"/>
<path d="M7.092 215.468C4.826 215.49 3.814 216.986 3.814 219.296C3.814 223.586 9.38 223.652 9.38 227.348C9.38 228.998 8.742 230.186 7.048 230.186C5.354 230.186 4.716 228.998 4.716 227.348V226.49H3.748V227.282C3.748 229.504 4.716 231.132 7.07 231.132C9.424 231.132 10.392 229.504 10.392 227.282C10.392 223.036 4.826 222.97 4.826 219.23C4.826 217.602 5.442 216.392 7.114 216.392C8.786 216.392 9.402 217.624 9.402 219.252V219.648H10.37V219.318C10.37 217.096 9.424 215.468 7.092 215.468ZM13.7166 219.362V227.238C13.7166 229.482 14.7506 231.132 17.0826 231.132C19.4586 231.132 20.4926 229.482 20.4926 227.238V219.362C20.4926 217.118 19.4586 215.468 17.0826 215.468C14.7506 215.468 13.7166 217.118 13.7166 219.362ZM14.7286 227.304V219.296C14.7286 217.624 15.3886 216.392 17.0826 216.392C18.7986 216.392 19.4806 217.624 19.4806 219.296V227.304C19.4806 228.976 18.7986 230.208 17.0826 230.208C15.3886 230.208 14.7286 228.976 14.7286 227.304ZM23.9215 231H29.7735V230.076H24.9335V215.6H23.9215V231ZM34.0186 227.282V215.6H33.0066V227.238C33.0066 229.438 33.9526 231.132 36.3066 231.132C38.6606 231.132 39.5846 229.438 39.5846 227.238V215.6H38.6386V227.282C38.6386 228.932 38.0226 230.208 36.3286 230.208C34.6346 230.208 34.0186 228.932 34.0186 227.282ZM46.3381 215.468C43.9841 215.468 43.0161 217.14 43.0161 219.362V227.238C43.0161 229.46 43.9841 231.132 46.3381 231.132C48.6921 231.132 49.6601 229.46 49.6601 227.238V225.478H48.6921V227.304C48.6921 228.954 48.0541 230.186 46.3601 230.186C44.6661 230.186 44.0281 228.954 44.0281 227.304V219.296C44.0281 217.646 44.6661 216.392 46.3601 216.392C48.0541 216.392 48.6921 217.646 48.6921 219.296V220.638H49.6601V219.362C49.6601 217.14 48.6921 215.468 46.3381 215.468ZM54.0826 215.6H53.0706V231H54.0826V215.6ZM57.5361 219.362V227.238C57.5361 229.482 58.5701 231.132 60.9021 231.132C63.2781 231.132 64.3121 229.482 64.3121 227.238V219.362C64.3121 217.118 63.2781 215.468 60.9021 215.468C58.5701 215.468 57.5361 217.118 57.5361 219.362ZM58.5481 227.304V219.296C58.5481 217.624 59.2081 216.392 60.9021 216.392C62.6181 216.392 63.3001 217.624 63.3001 219.296V227.304C63.3001 228.976 62.6181 230.208 60.9021 230.208C59.2081 230.208 58.5481 228.976 58.5481 227.304ZM68.665 231V217.272L73.483 231H74.605V215.6H73.681V228.602L69.061 215.6H67.741V231H68.665ZM83.3088 222.728H79.1068V216.524H84.1668V215.6H78.0948V231H84.1668V230.076H79.1068V223.652H83.3088V222.728ZM90.7797 215.468C88.5137 215.49 87.5017 216.986 87.5017 219.296C87.5017 223.586 93.0677 223.652 93.0677 227.348C93.0677 228.998 92.4297 230.186 90.7357 230.186C89.0417 230.186 88.4037 228.998 88.4037 227.348V226.49H87.4357V227.282C87.4357 229.504 88.4037 231.132 90.7577 231.132C93.1117 231.132 94.0797 229.504 94.0797 227.282C94.0797 223.036 88.5137 222.97 88.5137 219.23C88.5137 217.602 89.1297 216.392 90.8017 216.392C92.4737 216.392 93.0897 217.624 93.0897 219.252V219.648H94.0577V219.318C94.0577 217.096 93.1117 215.468 90.7797 215.468ZM105.308 231H106.32V216.524H109.444V215.6H102.162V216.524H105.308V231ZM117.741 222.728H113.539V216.524H118.599V215.6H112.527V231H118.599V230.076H113.539V223.652H117.741V222.728ZM125.256 215.468C122.902 215.468 121.934 217.14 121.934 219.362V227.238C121.934 229.46 122.902 231.132 125.256 231.132C127.61 231.132 128.578 229.46 128.578 227.238V225.478H127.61V227.304C127.61 228.954 126.972 230.186 125.278 230.186C123.584 230.186 122.946 228.954 122.946 227.304V219.296C122.946 217.646 123.584 216.392 125.278 216.392C126.972 216.392 127.61 217.646 127.61 219.296V220.638H128.578V219.362C128.578 217.14 127.61 215.468 125.256 215.468ZM132.913 231V217.272L137.731 231H138.853V215.6H137.929V228.602L133.309 215.6H131.989V231H132.913ZM142.276 219.362V227.238C142.276 229.482 143.31 231.132 145.642 231.132C148.018 231.132 149.052 229.482 149.052 227.238V219.362C149.052 217.118 148.018 215.468 145.642 215.468C143.31 215.468 142.276 217.118 142.276 219.362ZM143.288 227.304V219.296C143.288 217.624 143.948 216.392 145.642 216.392C147.358 216.392 148.04 217.624 148.04 219.296V227.304C148.04 228.976 147.358 230.208 145.642 230.208C143.948 230.208 143.288 228.976 143.288 227.304ZM152.481 231H158.333V230.076H153.493V215.6H152.481V231ZM166.693 212.476H165.637L164.075 214.566H164.845L166.693 212.476ZM164.911 215.468C162.579 215.468 161.545 217.118 161.545 219.362V227.238C161.545 229.482 162.579 231.132 164.911 231.132C167.287 231.132 168.321 229.482 168.321 227.238V219.362C168.321 217.118 167.287 215.468 164.911 215.468ZM164.911 216.392C166.627 216.392 167.309 217.624 167.309 219.296V227.304C167.309 228.976 166.627 230.208 164.911 230.208C163.217 230.208 162.557 228.976 162.557 227.304V219.296C162.557 217.624 163.217 216.392 164.911 216.392ZM175.005 215.468C172.651 215.468 171.683 217.14 171.683 219.362V227.238C171.683 229.46 172.651 231.132 175.005 231.132C177.359 231.132 178.327 229.46 178.327 227.238V223.058H175.313V223.982H177.359V227.304C177.359 228.954 176.721 230.186 175.027 230.186C173.333 230.186 172.695 228.954 172.695 227.304V219.296C172.695 217.646 173.333 216.392 175.027 216.392C176.721 216.392 177.359 217.646 177.359 219.296V220.506H178.327V219.362C178.327 217.14 177.359 215.468 175.005 215.468ZM182.793 215.6H181.781V231H182.793V215.6ZM189.568 215.468C187.214 215.468 186.246 217.14 186.246 219.362V227.238C186.246 229.46 187.214 231.132 189.568 231.132C191.922 231.132 192.89 229.46 192.89 227.238V225.478H191.922V227.304C191.922 228.954 191.284 230.186 189.59 230.186C187.896 230.186 187.258 228.954 187.258 227.304V219.296C187.258 217.646 187.896 216.392 189.59 216.392C191.284 216.392 191.922 217.646 191.922 219.296V220.638H192.89V219.362C192.89 217.14 191.922 215.468 189.568 215.468ZM197.775 227.59H202.571L203.341 231H204.353L200.921 215.578H199.447L196.081 231H197.005L197.775 227.59ZM197.929 226.71L200.151 216.744L202.417 226.71H197.929ZM210.855 215.468C208.589 215.49 207.577 216.986 207.577 219.296C207.577 223.586 213.143 223.652 213.143 227.348C213.143 228.998 212.505 230.186 210.811 230.186C209.117 230.186 208.479 228.998 208.479 227.348V226.49H207.511V227.282C207.511 229.504 208.479 231.132 210.833 231.132C213.187 231.132 214.155 229.504 214.155 227.282C214.155 223.036 208.589 222.97 208.589 219.23C208.589 217.602 209.205 216.392 210.877 216.392C212.549 216.392 213.165 217.624 213.165 219.252V219.648H214.133V219.318C214.133 217.096 213.187 215.468 210.855 215.468ZM224.196 227.59H228.992L229.762 231H230.774L227.342 215.578H225.868L222.502 231H223.426L224.196 227.59ZM224.35 226.71L226.572 216.744L228.838 226.71H224.35ZM241.902 231H242.914V216.524H246.038V215.6H238.756V216.524H241.902V231ZM250.089 227.282V215.6H249.077V227.238C249.077 229.438 250.023 231.132 252.377 231.132C254.731 231.132 255.655 229.438 255.655 227.238V215.6H254.709V227.282C254.709 228.932 254.093 230.208 252.399 230.208C250.705 230.208 250.089 228.932 250.089 227.282ZM265.802 227.59H270.598L271.368 231H272.38L268.948 215.578H267.474L264.108 231H265.032L265.802 227.59ZM265.956 226.71L268.178 216.744L270.444 226.71H265.956ZM275.67 231H281.522V230.076H276.682V215.6H275.67V231ZM288.055 215.468C285.701 215.468 284.733 217.14 284.733 219.362V227.238C284.733 229.46 285.701 231.132 288.055 231.132C290.409 231.132 291.377 229.46 291.377 227.238V225.478H290.409V227.304C290.409 228.954 289.771 230.186 288.077 230.186C286.383 230.186 285.745 228.954 285.745 227.304V219.296C285.745 217.646 286.383 216.392 288.077 216.392C289.771 216.392 290.409 217.646 290.409 219.296V220.638H291.377V219.362C291.377 217.14 290.409 215.468 288.055 215.468ZM296.262 227.59H301.058L301.828 231H302.84L299.408 215.578H297.934L294.568 231H295.492L296.262 227.59ZM296.416 226.71L298.638 216.744L300.904 226.71H296.416ZM307.054 231V217.272L311.872 231H312.994V215.6H312.07V228.602L307.45 215.6H306.13V231H307.054ZM319.74 215.468C317.386 215.468 316.418 217.14 316.418 219.362V227.238C316.418 229.46 317.386 231.132 319.74 231.132C322.094 231.132 323.062 229.46 323.062 227.238V225.478H322.094V227.304C322.094 228.954 321.456 230.186 319.762 230.186C318.068 230.186 317.43 228.954 317.43 227.304V219.296C317.43 217.646 318.068 216.392 319.762 216.392C321.456 216.392 322.094 217.646 322.094 219.296V220.638H323.062V219.362C323.062 217.14 322.094 215.468 319.74 215.468ZM331.686 222.728H327.484V216.524H332.544V215.6H326.472V231H332.544V230.076H327.484V223.652H331.686V222.728Z" fill="white"/>
</svg>
