<svg width="317" height="52" viewBox="0 0 317 52" fill="none" xmlns="http://www.w3.org/2000/svg">
<path d="M50.6345 9.2463C50.6345 9.2463 47.9553 8.87645 46.4041 8.87645C44.5004 8.87645 43.6544 9.46821 43.6544 11.1695C43.6544 12.7969 44.4299 13.0928 46.8271 13.9064C49.9294 14.942 51.1986 15.7557 51.1986 19.0104C51.1986 22.6349 49.5769 24.3363 45.9106 24.3363C43.8659 24.3363 41.1866 23.8185 41.1866 23.8185L41.3981 21.4514C41.3981 21.4514 44.5004 21.8213 45.9811 21.8213C47.7437 21.8213 48.5193 21.0076 48.5193 19.1583C48.5193 17.383 47.6732 17.0132 45.4875 16.3475C42.4557 15.3858 40.9751 14.2763 40.9751 11.5394C40.9751 7.9888 42.7378 6.43542 46.2631 6.43542C48.3078 6.43542 50.7755 7.02719 50.7755 7.02719L50.6345 9.2463Z" fill="white"/>
<path d="M53.1731 15.1639C53.1731 10.9476 53.8077 8.43263 55.7113 7.2491C56.6279 6.65734 57.756 6.43542 59.3072 6.43542C64.0311 6.43542 65.4412 8.95042 65.4412 15.1639C65.4412 19.5282 64.7362 22.2651 62.6915 23.4486C61.8454 23.9664 60.7173 24.2623 59.3072 24.2623C54.5832 24.2623 53.1731 21.4514 53.1731 15.1639ZM60.9993 21.4514C62.339 20.7117 62.621 18.7885 62.621 15.1639C62.621 10.3559 62.1274 8.87645 59.2367 8.87645C58.5316 8.87645 58.0381 8.95042 57.615 9.17233C56.2049 9.83806 55.9229 11.5394 55.9229 15.2379C55.9229 20.046 56.4164 21.8952 59.3072 21.8952C60.0122 21.8213 60.5763 21.6733 60.9993 21.4514Z" fill="white"/>
<path d="M68.1204 23.9664V6.73132H70.7996V21.5994H76.5106V24.0404H68.1204V23.9664Z" fill="white"/>
<path d="M80.8829 18.6405C80.8829 20.9336 81.729 21.8213 83.7736 21.8213C85.8183 21.8213 86.6644 20.9336 86.6644 18.6405V6.73132H89.3437V18.4186C89.3437 22.487 87.6515 24.2623 83.7736 24.2623C79.8958 24.2623 78.2036 22.487 78.2036 18.4186V6.73132H80.8829V18.6405Z" fill="white"/>
<path d="M101.964 23.7445C101.964 23.7445 99.6371 24.2623 97.6629 24.2623C93.0095 24.2623 91.9519 20.9336 91.9519 15.3119C91.9519 9.32027 93.4325 6.43542 97.6629 6.43542C99.4961 6.43542 101.964 7.02719 101.964 7.02719L101.823 9.2463C101.823 9.2463 99.4256 8.87645 98.0155 8.87645C95.4067 8.87645 94.6312 10.9476 94.6312 15.3119C94.6312 19.3802 95.2657 21.8213 98.086 21.8213C99.3551 21.8213 101.823 21.4514 101.823 21.4514L101.964 23.7445Z" fill="white"/>
<path d="M104.431 6.73132H107.111V24.0404H104.431V6.73132Z" fill="white"/>
<path d="M109.86 15.1639C109.86 10.9476 110.495 8.43263 112.399 7.2491C113.315 6.65734 114.514 6.43542 115.994 6.43542C120.718 6.43542 122.128 8.95042 122.128 15.1639C122.128 19.5282 121.423 22.2651 119.379 23.4486C118.533 23.9664 117.405 24.2623 115.994 24.2623C111.27 24.2623 109.86 21.4514 109.86 15.1639ZM117.687 21.4514C119.026 20.7117 119.308 18.7885 119.308 15.1639C119.308 10.3559 118.815 8.87645 115.924 8.87645C115.219 8.87645 114.725 8.95042 114.302 9.17233C112.892 9.83806 112.61 11.5394 112.61 15.2379C112.61 20.046 113.104 21.8952 115.994 21.8952C116.629 21.8213 117.193 21.6733 117.687 21.4514Z" fill="white"/>
<path d="M124.738 6.73132H129.038L133.833 21.0816H134.115V6.73132H136.653V24.0404H132.493L127.699 9.5422H127.346V24.0404H124.667V6.73132H124.738Z" fill="white"/>
<path d="M160.978 9.2463C160.978 9.2463 158.298 8.87645 156.747 8.87645C154.844 8.87645 153.998 9.46821 153.998 11.1695C153.998 12.7969 154.773 13.0928 157.17 13.9064C160.273 14.942 161.542 15.7557 161.542 19.0104C161.542 22.6349 159.92 24.3363 156.254 24.3363C154.209 24.3363 151.53 23.8185 151.53 23.8185L151.671 21.5254C151.671 21.5254 154.773 21.8952 156.254 21.8952C158.016 21.8952 158.792 21.0816 158.792 19.2323C158.792 17.457 157.946 17.0872 155.76 16.4214C152.658 15.4598 151.177 14.3503 151.177 11.6134C151.177 8.06278 152.94 6.5094 156.465 6.5094C158.51 6.5094 160.978 7.10116 160.978 7.10116V9.2463Z" fill="white"/>
<path d="M167.958 6.73132H178.534V9.17235H174.656V24.0404H171.977V9.17235H167.958V6.73132Z" fill="white"/>
<path d="M201.731 23.7445C201.731 23.7445 199.404 24.2623 197.43 24.2623C192.776 24.2623 191.719 20.9336 191.719 15.3119C191.719 9.32027 193.199 6.43542 197.43 6.43542C199.263 6.43542 201.731 7.02719 201.731 7.02719L201.59 9.2463C201.59 9.2463 199.192 8.87645 197.782 8.87645C195.174 8.87645 194.398 10.9476 194.398 15.3119C194.398 19.3802 195.033 21.8213 197.853 21.8213C199.122 21.8213 201.59 21.4514 201.59 21.4514L201.731 23.7445Z" fill="white"/>
<path d="M204.199 6.73132H208.5L213.294 21.0816H213.576V6.73132H216.114V24.0404H211.954L207.16 9.5422H206.807V24.0404H204.128V6.73132H204.199Z" fill="white"/>
<path d="M218.934 15.1639C218.934 10.9476 219.569 8.43263 221.473 7.2491C222.389 6.65734 223.517 6.43542 225.068 6.43542C229.792 6.43542 231.202 8.95042 231.202 15.1639C231.202 19.5282 230.497 22.2651 228.453 23.4486C227.607 23.9664 226.479 24.2623 225.068 24.2623C220.344 24.2623 218.934 21.4514 218.934 15.1639ZM226.761 21.4514C228.1 20.7117 228.382 18.7885 228.382 15.1639C228.382 10.3559 227.889 8.87645 224.998 8.87645C224.293 8.87645 223.799 8.95042 223.376 9.17233C221.966 9.83806 221.684 11.5394 221.684 15.2379C221.684 20.046 222.178 21.8952 225.068 21.8952C225.773 21.8213 226.267 21.6733 226.761 21.4514Z" fill="white"/>
<path d="M233.881 23.9664V6.73132H236.561V21.5994H242.272V24.0404H233.881V23.9664Z" fill="white"/>
<path d="M243.33 15.1639C243.33 10.9476 243.964 8.43262 245.868 7.24909C246.784 6.65733 247.913 6.43542 249.464 6.43542C254.188 6.43542 255.598 8.95041 255.598 15.1639C255.598 19.5282 254.893 22.2651 252.848 23.4486C252.002 23.9664 250.874 24.2623 249.464 24.2623C244.74 24.2623 243.33 21.4514 243.33 15.1639ZM251.156 21.4514C252.495 20.7117 252.777 18.7885 252.777 15.1639C252.777 10.3558 252.284 8.87644 249.393 8.87644C248.688 8.87644 248.195 8.95041 247.771 9.17232C246.361 9.83806 246.079 11.5394 246.079 15.2379C246.079 20.046 246.573 21.8952 249.464 21.8952C250.098 21.8213 250.662 21.6733 251.156 21.4514ZM246.643 2.36705L252.072 0L252.848 2.44102L247.348 4.43822L246.643 2.36705Z" fill="white"/>
<path d="M264.411 14.6461H268.994V23.7445C268.994 23.7445 265.539 24.2623 263.776 24.2623C259.052 24.2623 257.642 20.4158 257.642 15.2379C257.642 9.61615 259.193 6.43542 263.917 6.43542C266.596 6.43542 268.994 7.10116 268.994 7.10116L268.923 9.32027C268.923 9.32027 266.103 8.95042 264.199 8.95042C260.956 8.95042 260.392 11.6873 260.392 15.3119C260.392 19.0104 261.026 21.8952 264.129 21.8952C264.975 21.8952 266.385 21.6733 266.385 21.6733V17.0132H264.481V14.6461H264.411Z" fill="white"/>
<path d="M271.955 6.73132H274.635V24.0404H271.955V6.73132Z" fill="white"/>
<path d="M287.325 23.7445C287.325 23.7445 284.998 24.2623 283.024 24.2623C278.371 24.2623 277.313 20.9336 277.313 15.3119C277.313 9.32027 278.794 6.43542 283.024 6.43542C284.857 6.43542 287.325 7.02719 287.325 7.02719L287.184 9.2463C287.184 9.2463 284.787 8.87645 283.377 8.87645C280.768 8.87645 279.992 10.9476 279.992 15.3119C279.992 19.3802 280.627 21.8213 283.447 21.8213C284.716 21.8213 287.184 21.4514 287.184 21.4514L287.325 23.7445Z" fill="white"/>
<path d="M292.332 6.73132H297.197L300.934 24.0404H298.254L296.915 17.9748H292.543L291.204 24.0404H288.524L292.332 6.73132ZM292.543 17.9009H296.915L295.011 9.17235H294.517L292.543 17.9009Z" fill="white"/>
<path d="M311.721 9.2463C311.721 9.2463 309.042 8.87645 307.49 8.87645C305.587 8.87645 304.741 9.46821 304.741 11.1695C304.741 12.7969 305.516 13.0928 307.913 13.9064C311.016 14.942 312.285 15.7557 312.285 19.0104C312.285 22.6349 310.663 24.3363 306.997 24.3363C304.952 24.3363 302.273 23.8185 302.273 23.8185L302.414 21.5254C302.414 21.5254 305.516 21.8952 306.997 21.8952C308.76 21.8952 309.535 21.0816 309.535 19.2323C309.535 17.457 308.689 17.0872 306.503 16.4214C303.401 15.4598 301.92 14.3503 301.92 11.6134C301.92 8.06278 303.683 6.5094 307.208 6.5094C309.253 6.5094 311.721 7.10116 311.721 7.10116V9.2463Z" fill="white"/>
<path d="M148.851 23.9664H140.037V21.5254H149.556L148.851 23.9664Z" fill="white"/>
<path d="M148.851 9.17234H140.037V6.65735H149.556L148.851 9.17234Z" fill="white"/>
<path d="M148.85 16.5693H140.037V14.0543H149.556L148.85 16.5693Z" fill="white"/>
<path d="M140.742 21.5254H149.556L148.85 23.9664H140.037" fill="white"/>
<path d="M189.18 9.17234H180.367V6.65735H189.885L189.18 9.17234Z" fill="white"/>
<path d="M189.18 16.5693H180.367V14.0543H189.885L189.18 16.5693Z" fill="white"/>
<path d="M181.072 21.5254H189.885L189.18 23.9664H180.367" fill="white"/>
<path d="M19.7713 35.7983H3.66162V39.4596H19.7713V35.7983Z" fill="#0085DD"/>
<path d="M19.7713 39.4596L3.66162 39.4205V35.7983H19.7713V39.4596Z" fill="#0085DD"/>
<path d="M23.1094 13.8557V17.3876L19.8871 19.2485L19.2769 19.5903V29.2556L15.9783 31.0975V21.4892L11.5738 24.0337L11.5357 24.0527L11.4975 24.0337L7.093 21.4892V31.0975L3.79437 29.2556V19.5903L3.27956 19.3055L0 17.4066V13.8937L2.87915 15.5457L3.39396 15.8305L4.84307 16.685L11.5357 20.5208L18.3045 16.6281L19.9252 15.6976L20.421 15.4128L23.1094 13.8557Z" fill="white"/>
<path d="M11.5745 24.0337V24.0728L11.5356 24.0532L11.5745 24.0337Z" fill="white"/>
<path d="M23.1097 12.0327L17.6755 15.2039L17.2751 15.4317L11.5359 18.8117L8.59955 17.0837L12.6799 14.6912L14.6439 13.5518L17.6755 11.7669L16.2455 10.9124L12.7562 12.9442L9.62918 14.7671L7.13138 16.2292L5.85387 15.4887L5.56787 15.3178L0.000244141 12.0707L11.6122 5.19678L14.5676 7.00071L5.52973 12.2796L6.75003 13.0012L15.807 7.72228L23.1097 12.0327Z" fill="white"/>
<path d="M44.056 29.0078C42.202 29.0258 41.374 30.2498 41.374 32.1398C41.374 35.6498 45.928 35.7038 45.928 38.7278C45.928 40.0778 45.406 41.0498 44.02 41.0498C42.634 41.0498 42.112 40.0778 42.112 38.7278V38.0258H41.32V38.6738C41.32 40.4918 42.112 41.8238 44.038 41.8238C45.964 41.8238 46.756 40.4918 46.756 38.6738C46.756 35.1998 42.202 35.1458 42.202 32.0858C42.202 30.7538 42.706 29.7638 44.074 29.7638C45.442 29.7638 45.946 30.7718 45.946 32.1038V32.4278H46.738V32.1578C46.738 30.3398 45.964 29.0078 44.056 29.0078ZM49.4761 32.1938V38.6378C49.4761 40.4738 50.3221 41.8238 52.2301 41.8238C54.1741 41.8238 55.0201 40.4738 55.0201 38.6378V32.1938C55.0201 30.3578 54.1741 29.0078 52.2301 29.0078C50.3221 29.0078 49.4761 30.3578 49.4761 32.1938ZM50.3041 38.6918V32.1398C50.3041 30.7718 50.8441 29.7638 52.2301 29.7638C53.6341 29.7638 54.1921 30.7718 54.1921 32.1398V38.6918C54.1921 40.0598 53.6341 41.0678 52.2301 41.0678C50.8441 41.0678 50.3041 40.0598 50.3041 38.6918ZM57.8256 41.7158H62.6136V40.9598H58.6536V29.1158H57.8256V41.7158ZM66.0869 38.6738V29.1158H65.2589V38.6378C65.2589 40.4378 66.0329 41.8238 67.9589 41.8238C69.8849 41.8238 70.6409 40.4378 70.6409 38.6378V29.1158H69.8669V38.6738C69.8669 40.0238 69.3629 41.0678 67.9769 41.0678C66.5909 41.0678 66.0869 40.0238 66.0869 38.6738ZM76.1665 29.0078C74.2405 29.0078 73.4485 30.3758 73.4485 32.1938V38.6378C73.4485 40.4558 74.2405 41.8238 76.1665 41.8238C78.0925 41.8238 78.8845 40.4558 78.8845 38.6378V37.1978H78.0925V38.6918C78.0925 40.0418 77.5705 41.0498 76.1845 41.0498C74.7985 41.0498 74.2765 40.0418 74.2765 38.6918V32.1398C74.2765 30.7898 74.7985 29.7638 76.1845 29.7638C77.5705 29.7638 78.0925 30.7898 78.0925 32.1398V33.2378H78.8845V32.1938C78.8845 30.3758 78.0925 29.0078 76.1665 29.0078ZM82.5029 29.1158H81.6749V41.7158H82.5029V29.1158ZM85.3285 32.1938V38.6378C85.3285 40.4738 86.1745 41.8238 88.0825 41.8238C90.0265 41.8238 90.8725 40.4738 90.8725 38.6378V32.1938C90.8725 30.3578 90.0265 29.0078 88.0825 29.0078C86.1745 29.0078 85.3285 30.3578 85.3285 32.1938ZM86.1565 38.6918V32.1398C86.1565 30.7718 86.6965 29.7638 88.0825 29.7638C89.4865 29.7638 90.0445 30.7718 90.0445 32.1398V38.6918C90.0445 40.0598 89.4865 41.0678 88.0825 41.0678C86.6965 41.0678 86.1565 40.0598 86.1565 38.6918ZM94.4339 41.7158V30.4838L98.3759 41.7158H99.2939V29.1158H98.5379V39.7538L94.7579 29.1158H93.6779V41.7158H94.4339ZM106.415 34.9478H102.977V29.8718H107.117V29.1158H102.149V41.7158H107.117V40.9598H102.977V35.7038H106.415V34.9478ZM112.528 29.0078C110.674 29.0258 109.846 30.2498 109.846 32.1398C109.846 35.6498 114.4 35.7038 114.4 38.7278C114.4 40.0778 113.878 41.0498 112.492 41.0498C111.106 41.0498 110.584 40.0778 110.584 38.7278V38.0258H109.792V38.6738C109.792 40.4918 110.584 41.8238 112.51 41.8238C114.436 41.8238 115.228 40.4918 115.228 38.6738C115.228 35.1998 110.674 35.1458 110.674 32.0858C110.674 30.7538 111.178 29.7638 112.546 29.7638C113.914 29.7638 114.418 30.7718 114.418 32.1038V32.4278H115.21V32.1578C115.21 30.3398 114.436 29.0078 112.528 29.0078ZM124.415 41.7158H125.243V29.8718H127.799V29.1158H121.841V29.8718H124.415V41.7158ZM134.587 34.9478H131.149V29.8718H135.289V29.1158H130.321V41.7158H135.289V40.9598H131.149V35.7038H134.587V34.9478ZM140.736 29.0078C138.81 29.0078 138.018 30.3758 138.018 32.1938V38.6378C138.018 40.4558 138.81 41.8238 140.736 41.8238C142.662 41.8238 143.454 40.4558 143.454 38.6378V37.1978H142.662V38.6918C142.662 40.0418 142.14 41.0498 140.754 41.0498C139.368 41.0498 138.846 40.0418 138.846 38.6918V32.1398C138.846 30.7898 139.368 29.7638 140.754 29.7638C142.14 29.7638 142.662 30.7898 142.662 32.1398V33.2378H143.454V32.1938C143.454 30.3758 142.662 29.0078 140.736 29.0078ZM147 41.7158V30.4838L150.942 41.7158H151.86V29.1158H151.104V39.7538L147.324 29.1158H146.244V41.7158H147ZM154.662 32.1938V38.6378C154.662 40.4738 155.508 41.8238 157.416 41.8238C159.36 41.8238 160.206 40.4738 160.206 38.6378V32.1938C160.206 30.3578 159.36 29.0078 157.416 29.0078C155.508 29.0078 154.662 30.3578 154.662 32.1938ZM155.49 38.6918V32.1398C155.49 30.7718 156.03 29.7638 157.416 29.7638C158.82 29.7638 159.378 30.7718 159.378 32.1398V38.6918C159.378 40.0598 158.82 41.0678 157.416 41.0678C156.03 41.0678 155.49 40.0598 155.49 38.6918ZM163.011 41.7158H167.799V40.9598H163.839V29.1158H163.011V41.7158ZM174.638 26.5598H173.774L172.496 28.2698H173.126L174.638 26.5598ZM173.18 29.0078C171.272 29.0078 170.426 30.3578 170.426 32.1938V38.6378C170.426 40.4738 171.272 41.8238 173.18 41.8238C175.124 41.8238 175.97 40.4738 175.97 38.6378V32.1938C175.97 30.3578 175.124 29.0078 173.18 29.0078ZM173.18 29.7638C174.584 29.7638 175.142 30.7718 175.142 32.1398V38.6918C175.142 40.0598 174.584 41.0678 173.18 41.0678C171.794 41.0678 171.254 40.0598 171.254 38.6918V32.1398C171.254 30.7718 171.794 29.7638 173.18 29.7638ZM181.44 29.0078C179.514 29.0078 178.722 30.3758 178.722 32.1938V38.6378C178.722 40.4558 179.514 41.8238 181.44 41.8238C183.366 41.8238 184.158 40.4558 184.158 38.6378V35.2178H181.692V35.9738H183.366V38.6918C183.366 40.0418 182.844 41.0498 181.458 41.0498C180.072 41.0498 179.55 40.0418 179.55 38.6918V32.1398C179.55 30.7898 180.072 29.7638 181.458 29.7638C182.844 29.7638 183.366 30.7898 183.366 32.1398V33.1298H184.158V32.1938C184.158 30.3758 183.366 29.0078 181.44 29.0078ZM187.811 29.1158H186.983V41.7158H187.811V29.1158ZM193.355 29.0078C191.429 29.0078 190.637 30.3758 190.637 32.1938V38.6378C190.637 40.4558 191.429 41.8238 193.355 41.8238C195.281 41.8238 196.073 40.4558 196.073 38.6378V37.1978H195.281V38.6918C195.281 40.0418 194.759 41.0498 193.373 41.0498C191.987 41.0498 191.465 40.0418 191.465 38.6918V32.1398C191.465 30.7898 191.987 29.7638 193.373 29.7638C194.759 29.7638 195.281 30.7898 195.281 32.1398V33.2378H196.073V32.1938C196.073 30.3758 195.281 29.0078 193.355 29.0078ZM200.069 38.9258H203.993L204.623 41.7158H205.451L202.643 29.0978H201.437L198.683 41.7158H199.439L200.069 38.9258ZM200.195 38.2058L202.013 30.0518L203.867 38.2058H200.195ZM210.771 29.0078C208.917 29.0258 208.089 30.2498 208.089 32.1398C208.089 35.6498 212.643 35.7038 212.643 38.7278C212.643 40.0778 212.121 41.0498 210.735 41.0498C209.349 41.0498 208.827 40.0778 208.827 38.7278V38.0258H208.035V38.6738C208.035 40.4918 208.827 41.8238 210.753 41.8238C212.679 41.8238 213.471 40.4918 213.471 38.6738C213.471 35.1998 208.917 35.1458 208.917 32.0858C208.917 30.7538 209.421 29.7638 210.789 29.7638C212.157 29.7638 212.661 30.7718 212.661 32.1038V32.4278H213.453V32.1578C213.453 30.3398 212.679 29.0078 210.771 29.0078ZM221.686 38.9258H225.61L226.24 41.7158H227.068L224.26 29.0978H223.054L220.3 41.7158H221.056L221.686 38.9258ZM221.812 38.2058L223.63 30.0518L225.484 38.2058H221.812ZM236.173 41.7158H237.001V29.8718H239.557V29.1158H233.599V29.8718H236.173V41.7158ZM242.871 38.6738V29.1158H242.043V38.6378C242.043 40.4378 242.817 41.8238 244.743 41.8238C246.669 41.8238 247.425 40.4378 247.425 38.6378V29.1158H246.651V38.6738C246.651 40.0238 246.147 41.0678 244.761 41.0678C243.375 41.0678 242.871 40.0238 242.871 38.6738ZM255.728 38.9258H259.652L260.282 41.7158H261.11L258.302 29.0978H257.096L254.342 41.7158H255.098L255.728 38.9258ZM255.854 38.2058L257.672 30.0518L259.526 38.2058H255.854ZM263.802 41.7158H268.59V40.9598H264.63V29.1158H263.802V41.7158ZM273.935 29.0078C272.009 29.0078 271.217 30.3758 271.217 32.1938V38.6378C271.217 40.4558 272.009 41.8238 273.935 41.8238C275.861 41.8238 276.653 40.4558 276.653 38.6378V37.1978H275.861V38.6918C275.861 40.0418 275.339 41.0498 273.953 41.0498C272.567 41.0498 272.045 40.0418 272.045 38.6918V32.1398C272.045 30.7898 272.567 29.7638 273.953 29.7638C275.339 29.7638 275.861 30.7898 275.861 32.1398V33.2378H276.653V32.1938C276.653 30.3758 275.861 29.0078 273.935 29.0078ZM280.65 38.9258H284.574L285.204 41.7158H286.032L283.224 29.0978H282.018L279.264 41.7158H280.02L280.65 38.9258ZM280.776 38.2058L282.594 30.0518L284.448 38.2058H280.776ZM289.479 41.7158V30.4838L293.421 41.7158H294.339V29.1158H293.583V39.7538L289.803 29.1158H288.723V41.7158H289.479ZM299.859 29.0078C297.933 29.0078 297.141 30.3758 297.141 32.1938V38.6378C297.141 40.4558 297.933 41.8238 299.859 41.8238C301.785 41.8238 302.577 40.4558 302.577 38.6378V37.1978H301.785V38.6918C301.785 40.0418 301.263 41.0498 299.877 41.0498C298.491 41.0498 297.969 40.0418 297.969 38.6918V32.1398C297.969 30.7898 298.491 29.7638 299.877 29.7638C301.263 29.7638 301.785 30.7898 301.785 32.1398V33.2378H302.577V32.1938C302.577 30.3758 301.785 29.0078 299.859 29.0078ZM309.633 34.9478H306.195V29.8718H310.335V29.1158H305.367V41.7158H310.335V40.9598H306.195V35.7038H309.633V34.9478Z" fill="white"/>
</svg>
