<svg width="63" height="61" viewBox="0 0 63 61" fill="none" xmlns="http://www.w3.org/2000/svg">
<path d="M21.7447 60.1185C24.2869 60.1185 26.3477 58.0661 26.3477 55.5343C26.3477 53.0026 24.2869 50.9502 21.7447 50.9502C19.2025 50.9502 17.1416 53.0026 17.1416 55.5343C17.1416 58.0661 19.2025 60.1185 21.7447 60.1185Z" fill="white"/>
<path d="M49.7105 60.1185C52.2527 60.1185 54.3135 58.0661 54.3135 55.5343C54.3135 53.0026 52.2527 50.9502 49.7105 50.9502C47.1683 50.9502 45.1074 53.0026 45.1074 55.5343C45.1074 58.0661 47.1683 60.1185 49.7105 60.1185Z" fill="white"/>
<path d="M62.1502 5.86301C61.9598 5.62929 61.7198 5.44048 61.4474 5.31014C61.175 5.1798 60.8771 5.11117 60.5749 5.10918H17.9812L19.311 9.18396H57.8949L52.4326 33.6326H21.7455L12.3962 4.1516C12.295 3.83878 12.1194 3.55496 11.8843 3.32436C11.6492 3.09376 11.3616 2.92322 11.0459 2.8273L2.65812 0.260185C2.40021 0.181256 2.12922 0.153692 1.86061 0.179064C1.592 0.204437 1.33103 0.28225 1.09262 0.408061C0.611124 0.662147 0.2507 1.09631 0.0906388 1.61505C-0.0694227 2.13379 -0.0160103 2.6946 0.239126 3.17412C0.494261 3.65363 0.930222 4.01257 1.4511 4.17198L8.79554 6.41311L18.1858 35.9553L14.8307 38.6854L14.5647 38.9502C13.7348 39.9027 13.2644 41.1136 13.2345 42.3743C13.2047 43.635 13.6172 44.8666 14.401 45.857C14.9587 46.5323 15.6672 47.0683 16.4701 47.4221C17.2729 47.7758 18.1477 47.9376 19.0246 47.8944H53.1691C53.7116 47.8944 54.232 47.6797 54.6157 47.2976C54.9993 46.9156 55.2149 46.3973 55.2149 45.857C55.2149 45.3166 54.9993 44.7984 54.6157 44.4163C54.232 44.0343 53.7116 43.8196 53.1691 43.8196H18.6972C18.4617 43.8116 18.2321 43.7432 18.0308 43.6211C17.8295 43.4989 17.6633 43.3271 17.5481 43.1223C17.4329 42.9175 17.3727 42.6866 17.3734 42.4518C17.374 42.2171 17.4354 41.9864 17.5516 41.7822L22.482 37.7074H54.0692C54.5421 37.7189 55.0044 37.5669 55.3774 37.2771C55.7504 36.9874 56.0111 36.5779 56.115 36.1183L62.6002 7.59479C62.6624 7.29105 62.6542 6.97718 62.5762 6.67708C62.4982 6.37697 62.3525 6.09855 62.1502 5.86301Z" fill="white"/>
</svg>
