<svg width="56" height="61" viewBox="0 0 56 61" fill="none" xmlns="http://www.w3.org/2000/svg">
<path fill-rule="evenodd" clip-rule="evenodd" d="M48.579 4.62334H6.93985C6.01957 4.62334 5.13698 5.03127 4.48624 5.75739C3.83551 6.48351 3.46993 7.46834 3.46993 8.49522V39.4703C3.46993 40.4971 3.83551 41.482 4.48624 42.2081C5.13698 42.9342 6.01957 43.3421 6.93985 43.3421H15.6147C16.692 43.3421 17.7546 43.622 18.7183 44.1597C19.6819 44.6973 20.5201 45.4779 21.1665 46.4396L27.7594 56.2471L34.3523 46.4396C34.9987 45.4779 35.8369 44.6973 36.8005 44.1597C37.7642 43.622 38.8268 43.3421 39.9041 43.3421H48.579C49.4992 43.3421 50.3818 42.9342 51.0326 42.2081C51.6833 41.482 52.0489 40.4971 52.0489 39.4703V8.49522C52.0489 7.46834 51.6833 6.48351 51.0326 5.75739C50.3818 5.03127 49.4992 4.62334 48.579 4.62334ZM6.93985 0.751465C5.09929 0.751465 3.33411 1.56732 2.03264 3.01956C0.731161 4.4718 0 6.44145 0 8.49522L0 39.4703C0 41.524 0.731161 43.4937 2.03264 44.9459C3.33411 46.3981 5.09929 47.214 6.93985 47.214H15.6147C16.1534 47.214 16.6846 47.354 17.1665 47.6228C17.6483 47.8916 18.0674 48.2819 18.3906 48.7628L24.9835 58.5702C25.3067 59.0511 25.7258 59.4414 26.2076 59.7102C26.6894 59.979 27.2207 60.119 27.7594 60.119C28.2981 60.119 28.8294 59.979 29.3112 59.7102C29.793 59.4414 30.2121 59.0511 30.5353 58.5702L37.1282 48.7628C37.4514 48.2819 37.8705 47.8916 38.3523 47.6228C38.8342 47.354 39.3655 47.214 39.9041 47.214H48.579C50.4195 47.214 52.1847 46.3981 53.4862 44.9459C54.7876 43.4937 55.5188 41.524 55.5188 39.4703V8.49522C55.5188 6.44145 54.7876 4.4718 53.4862 3.01956C52.1847 1.56732 50.4195 0.751465 48.579 0.751465L6.93985 0.751465Z" fill="white"/>
<path fill-rule="evenodd" clip-rule="evenodd" d="M10.4097 14.3031C10.4097 13.7897 10.5925 13.2973 10.9178 12.9342C11.2432 12.5712 11.6845 12.3672 12.1446 12.3672H43.374C43.8341 12.3672 44.2754 12.5712 44.6008 12.9342C44.9261 13.2973 45.1089 13.7897 45.1089 14.3031C45.1089 14.8166 44.9261 15.309 44.6008 15.672C44.2754 16.0351 43.8341 16.2391 43.374 16.2391H12.1446C11.6845 16.2391 11.2432 16.0351 10.9178 15.672C10.5925 15.309 10.4097 14.8166 10.4097 14.3031ZM10.4097 23.9828C10.4097 23.4694 10.5925 22.977 10.9178 22.6139C11.2432 22.2508 11.6845 22.0469 12.1446 22.0469H43.374C43.8341 22.0469 44.2754 22.2508 44.6008 22.6139C44.9261 22.977 45.1089 23.4694 45.1089 23.9828C45.1089 24.4963 44.9261 24.9887 44.6008 25.3517C44.2754 25.7148 43.8341 25.9188 43.374 25.9188H12.1446C11.6845 25.9188 11.2432 25.7148 10.9178 25.3517C10.5925 24.9887 10.4097 24.4963 10.4097 23.9828ZM10.4097 33.6625C10.4097 33.1491 10.5925 32.6567 10.9178 32.2936C11.2432 31.9305 11.6845 31.7266 12.1446 31.7266H29.4943C29.9544 31.7266 30.3957 31.9305 30.7211 32.2936C31.0464 32.6567 31.2292 33.1491 31.2292 33.6625C31.2292 34.176 31.0464 34.6684 30.7211 35.0314C30.3957 35.3945 29.9544 35.5985 29.4943 35.5985H12.1446C11.6845 35.5985 11.2432 35.3945 10.9178 35.0314C10.5925 34.6684 10.4097 34.176 10.4097 33.6625Z" fill="white"/>
</svg>
