<svg width="62" height="59" viewBox="0 0 62 59" fill="none" xmlns="http://www.w3.org/2000/svg">
<path d="M57.0025 0H4.99749C2.24202 0 0 2.13353 0 4.75568V54.2443C0 56.8665 2.24202 59 4.99749 59H57.0025C59.758 59 62 56.8665 62 54.2443V4.75568C62 2.13353 59.7583 0 57.0025 0ZM57.0025 54.9237H4.99749C4.61054 54.9237 4.28356 54.6125 4.28356 54.2443V4.75568C4.28356 4.38745 4.61054 4.07629 4.99749 4.07629H57.0025C57.3895 4.07629 57.7164 4.38745 57.7164 4.75568V27.8696H53.8267V26.903C53.8267 23.5083 50.9244 20.7464 47.3568 20.7464H42.3704C38.8028 20.7464 35.9005 23.5083 35.9005 26.903V27.8696H31.0001C30.054 27.8696 29.2867 28.5995 29.2867 29.5001C29.2867 30.4007 30.054 31.1307 31.0001 31.1307H57.7167V54.2446C57.7164 54.6125 57.3897 54.9237 57.0025 54.9237ZM39.3274 27.8696V26.903C39.3274 25.3062 40.6924 24.0075 42.3704 24.0075H47.3568C49.0348 24.0075 50.3998 25.3064 50.3998 26.903V27.8696H39.3274Z" fill="white"/>
<path d="M20.1434 8.71753H13.475C10.7193 8.71753 8.47754 10.8511 8.47754 13.4732V45.6262C8.47754 48.2483 10.7193 50.3819 13.475 50.3819H20.1437C22.8992 50.3819 25.1412 48.2483 25.1412 45.6262V13.4732C25.1409 10.8511 22.8992 8.71753 20.1434 8.71753ZM20.8573 45.6262C20.8573 45.9944 20.5303 46.3056 20.1434 46.3056H13.475C13.0881 46.3056 12.7611 45.9944 12.7611 45.6262V13.4732C12.7611 13.105 13.0881 12.7938 13.475 12.7938H20.1437C20.5306 12.7938 20.8576 13.105 20.8576 13.4732V45.6262H20.8573Z" fill="white"/>
<path d="M44.844 19.891C48.4988 19.891 51.4718 17.0609 51.4718 13.582C51.4718 10.103 48.4988 7.27295 44.844 7.27295C41.1887 7.27295 38.2151 10.1033 38.2151 13.582C38.2151 17.0607 41.1887 19.891 44.844 19.891ZM44.844 10.5343C46.6092 10.5343 48.045 11.9014 48.045 13.5822C48.045 15.263 46.6092 16.6302 44.844 16.6302C43.0784 16.6302 41.6419 15.263 41.6419 13.5822C41.6419 11.9014 43.0786 10.5343 44.844 10.5343Z" fill="white"/>
<path d="M52.0787 34.958H37.6497C36.7033 34.958 35.9363 35.6882 35.9363 36.5885C35.9363 37.4891 36.7036 38.219 37.6497 38.219H52.0787C53.0248 38.219 53.7922 37.4891 53.7922 36.5885C53.7922 35.6879 53.0251 34.958 52.0787 34.958Z" fill="white"/>
<path d="M31.0002 34.552C30.4347 34.552 29.8836 34.7694 29.4867 35.1471C29.0869 35.5276 28.8584 36.0521 28.8584 36.5874C28.8584 37.1255 29.0869 37.65 29.4867 38.0305C29.8836 38.4082 30.4376 38.6256 31.0002 38.6256C31.5627 38.6256 32.1136 38.4082 32.5137 38.0305C32.9135 37.65 33.142 37.1255 33.142 36.5874C33.142 36.0521 32.9135 35.5276 32.5137 35.1471C32.1168 34.7691 31.5653 34.552 31.0002 34.552Z" fill="white"/>
<path d="M52.0787 41.2393H37.6497C36.7033 41.2393 35.9363 41.9695 35.9363 42.8698C35.9363 43.7704 36.7036 44.5003 37.6497 44.5003H52.0787C53.0248 44.5003 53.7922 43.7704 53.7922 42.8698C53.7922 41.9692 53.0251 41.2393 52.0787 41.2393Z" fill="white"/>
<path d="M31.0002 40.832C30.4376 40.832 29.8836 41.0494 29.4867 41.4299C29.0869 41.8076 28.8584 42.3321 28.8584 42.8702C28.8584 43.4055 29.0869 43.9327 29.4867 44.3105C29.8836 44.6909 30.4376 44.9083 31.0002 44.9083C31.5627 44.9083 32.1168 44.6909 32.5137 44.3105C32.9135 43.93 33.142 43.4055 33.142 42.8702C33.142 42.3348 32.9135 41.8076 32.5137 41.4299C32.1168 41.0497 31.5625 40.832 31.0002 40.832Z" fill="white"/>
<path d="M52.0787 47.5208H37.6497C36.7033 47.5208 35.9363 48.2507 35.9363 49.1513C35.9363 50.0516 36.7036 50.7818 37.6497 50.7818H52.0787C53.0248 50.7818 53.7922 50.0516 53.7922 49.1513C53.7922 48.251 53.0251 47.5208 52.0787 47.5208Z" fill="white"/>
<path d="M31.0002 47.1125C30.4376 47.1125 29.8836 47.33 29.4867 47.7104C29.0869 48.0881 28.8584 48.6153 28.8584 49.1507C28.8584 49.6888 29.0869 50.2132 29.4867 50.5937C29.8836 50.9714 30.4376 51.1888 31.0002 51.1888C31.5627 51.1888 32.1168 50.9714 32.5137 50.5937C32.9135 50.2132 33.142 49.686 33.142 49.1507C33.142 48.6153 32.9135 48.0909 32.5137 47.7104C32.1168 47.33 31.5625 47.1125 31.0002 47.1125Z" fill="white"/>
</svg>
