<svg width="30" height="30" viewBox="0 0 30 30" fill="none" xmlns="http://www.w3.org/2000/svg">
<path d="M28.8 0H1.2C0.53625 0 0 0.53625 0 1.2V28.8C0 29.4638 0.53625 30 1.2 30H28.8C29.4638 30 30 29.4638 30 28.8V1.2C30 0.53625 29.4638 0 28.8 0ZM27.3 27.3H2.7V2.7H27.3V27.3Z" fill="#7B798C"/>
<path d="M9.07533 20.9625H11.2841C11.4641 20.9625 11.6328 20.8837 11.7453 20.7487L15.0003 16.8675L18.2553 20.7487C18.3716 20.8837 18.5403 20.9625 18.7166 20.9625H20.9253C21.1803 20.9625 21.3191 20.6662 21.1541 20.4712L16.5678 15L21.1541 9.52873C21.3191 9.33373 21.1803 9.03748 20.9253 9.03748H18.7166C18.5366 9.03748 18.3678 9.11623 18.2553 9.25123L15.0003 13.1325L11.7453 9.25123C11.6291 9.11623 11.4603 9.03748 11.2841 9.03748H9.07533C8.82033 9.03748 8.68157 9.33373 8.84657 9.52873L13.4328 15L8.84657 20.4712C8.80961 20.5147 8.7859 20.5678 8.77825 20.6244C8.7706 20.6809 8.77934 20.7385 8.80342 20.7902C8.82751 20.8419 8.86593 20.8857 8.91413 20.9162C8.96232 20.9467 9.01827 20.9628 9.07533 20.9625Z" fill="#7B798C"/>
</svg>
