<svg width="144" height="38" viewBox="0 0 144 38" fill="none" xmlns="http://www.w3.org/2000/svg">
<path d="M43.9224 3.57324C43.9224 3.57324 41.9313 3.29839 40.7786 3.29839C39.3639 3.29839 38.7352 3.73815 38.7352 5.00246C38.7352 6.2118 39.3115 6.43168 41.093 7.03635C43.3984 7.80593 44.3416 8.4106 44.3416 10.8293C44.3416 13.5228 43.1365 14.7871 40.4119 14.7871C38.8924 14.7871 36.9013 14.4023 36.9013 14.4023L37.0585 12.6433C37.0585 12.6433 39.3639 12.9181 40.4643 12.9181C41.7742 12.9181 42.3505 12.3135 42.3505 10.9392C42.3505 9.61994 41.7218 9.34509 40.0975 8.85036C37.8445 8.13575 36.7441 7.3112 36.7441 5.27731C36.7441 2.63875 38.054 1.48438 40.6738 1.48438C42.1933 1.48438 44.0272 1.92414 44.0272 1.92414L43.9224 3.57324Z" fill="white"/>
<path d="M45.8086 7.97084C45.8086 4.83755 46.2802 2.96857 47.6949 2.08905C48.376 1.64929 49.2143 1.48438 50.367 1.48438C53.8776 1.48438 54.9255 3.35336 54.9255 7.97084C54.9255 11.2141 54.4015 13.248 52.8821 14.1275C52.2533 14.5123 51.415 14.7322 50.367 14.7322C46.8565 14.7322 45.8086 12.6433 45.8086 7.97084ZM51.6246 12.6433C52.6201 12.0936 52.8297 10.6644 52.8297 7.97084C52.8297 4.39779 52.4629 3.29839 50.3147 3.29839C49.7907 3.29839 49.4239 3.35336 49.1095 3.51827C48.0616 4.013 47.852 5.27731 47.852 8.02581C47.852 11.5989 48.2188 12.9731 50.367 12.9731C50.891 12.9181 51.3102 12.8082 51.6246 12.6433Z" fill="white"/>
<path d="M56.917 14.5126V1.70459H58.908V12.7536H63.1521V14.5676H56.917V14.5126Z" fill="white"/>
<path d="M66.4012 10.5548C66.4012 12.2588 67.03 12.9185 68.5494 12.9185C70.0689 12.9185 70.6977 12.2588 70.6977 10.5548V1.70459H72.6887V10.3899C72.6887 13.4132 71.4312 14.7325 68.5494 14.7325C65.6677 14.7325 64.4102 13.4132 64.4102 10.3899V1.70459H66.4012V10.5548Z" fill="white"/>
<path d="M82.0672 14.3474C82.0672 14.3474 80.3381 14.7322 78.871 14.7322C75.4129 14.7322 74.627 12.2585 74.627 8.08078C74.627 3.62821 75.7273 1.48438 78.871 1.48438C80.2333 1.48438 82.0672 1.92414 82.0672 1.92414L81.9624 3.57324C81.9624 3.57324 80.1809 3.29839 79.133 3.29839C77.1944 3.29839 76.618 4.83755 76.618 8.08078C76.618 11.1041 77.0896 12.9181 79.1854 12.9181C80.1285 12.9181 81.9624 12.6433 81.9624 12.6433L82.0672 14.3474Z" fill="white"/>
<path d="M83.9004 1.70459H85.8914V14.5676H83.9004V1.70459Z" fill="white"/>
<path d="M87.9355 7.97084C87.9355 4.83755 88.4071 2.96857 89.8218 2.08905C90.5029 1.64929 91.3937 1.48438 92.494 1.48438C96.0045 1.48438 97.0524 3.35336 97.0524 7.97084C97.0524 11.2141 96.5285 13.248 95.009 14.1275C94.3802 14.5123 93.5419 14.7322 92.494 14.7322C88.9835 14.7322 87.9355 12.6433 87.9355 7.97084ZM93.7515 12.6433C94.747 12.0936 94.9566 10.6644 94.9566 7.97084C94.9566 4.39779 94.5898 3.29839 92.4416 3.29839C91.9176 3.29839 91.5509 3.35336 91.2365 3.51827C90.1886 4.013 89.979 5.27731 89.979 8.02581C89.979 11.5989 90.3458 12.9731 92.494 12.9731C92.9656 12.9181 93.3847 12.8082 93.7515 12.6433Z" fill="white"/>
<path d="M98.9909 1.70459H102.187L105.75 12.3688H105.96V1.70459H107.846V14.5676H104.754L101.192 3.79345H100.93V14.5676H98.9385V1.70459H98.9909Z" fill="white"/>
<path d="M126.923 3.57344C126.923 3.57344 124.932 3.29859 123.779 3.29859C122.364 3.29859 121.735 3.73835 121.735 5.00266C121.735 6.21201 122.312 6.43189 124.093 7.03656C126.399 7.80614 127.342 8.41081 127.342 10.8295C127.342 13.523 126.137 14.7873 123.412 14.7873C121.893 14.7873 119.902 14.4025 119.902 14.4025L120.006 12.6985C120.006 12.6985 122.312 12.9733 123.412 12.9733C124.722 12.9733 125.298 12.3687 125.298 10.9944C125.298 9.67512 124.67 9.40027 123.045 8.90554C120.74 8.19093 119.64 7.36638 119.64 5.33248C119.64 2.69392 120.95 1.53955 123.569 1.53955C125.089 1.53955 126.923 1.97931 126.923 1.97931V3.57344Z" fill="white"/>
<path d="M116.911 14.5127H110.361V12.6987H117.435L116.911 14.5127Z" fill="white"/>
<path d="M117.434 3.51791H110.36V1.64893H117.434V3.51791Z" fill="white"/>
<path d="M117.434 9.01547H110.36V7.14648H117.434V9.01547Z" fill="white"/>
<path d="M110.884 12.6987H117.434V14.5127H110.36" fill="white"/>
<path d="M36.7441 22.373H44.6036V24.1871H41.7218V35.236H39.7307V24.1871H36.7441V22.373Z" fill="white"/>
<path d="M61.8426 35.0158C61.8426 35.0158 60.1135 35.4006 58.6464 35.4006C55.1883 35.4006 54.4023 32.927 54.4023 28.7492C54.4023 24.2967 55.5027 22.1528 58.6464 22.1528C60.0087 22.1528 61.8426 22.5926 61.8426 22.5926L61.7378 24.2417C61.7378 24.2417 59.9563 23.9668 58.9084 23.9668C56.9697 23.9668 56.3934 25.506 56.3934 28.7492C56.3934 31.7726 56.865 33.5866 58.9608 33.5866C59.9039 33.5866 61.7378 33.3118 61.7378 33.3118L61.8426 35.0158Z" fill="white"/>
<path d="M63.6774 22.373H66.8736L70.4365 33.0372H70.6461V22.373H72.5323V35.236H69.441L65.878 24.4619H65.6161V35.236H63.625V22.373H63.6774Z" fill="white"/>
<path d="M74.627 28.6393C74.627 25.506 75.0985 23.637 76.5132 22.7575C77.1944 22.3177 78.0327 22.1528 79.1854 22.1528C82.696 22.1528 83.7439 24.0218 83.7439 28.6393C83.7439 31.8825 83.2199 33.9164 81.7004 34.7959C81.0717 35.1807 80.2333 35.4006 79.1854 35.4006C75.6749 35.4006 74.627 33.3118 74.627 28.6393ZM80.4429 33.3118C81.4384 32.7621 81.648 31.3328 81.648 28.6393C81.648 25.0662 81.2813 23.9668 79.133 23.9668C78.6091 23.9668 78.2423 24.0218 77.9279 24.1867C76.88 24.6815 76.6704 25.9458 76.6704 28.6943C76.6704 32.2673 77.0372 33.6416 79.1854 33.6416C79.7094 33.5866 80.0761 33.4767 80.4429 33.3118Z" fill="white"/>
<path d="M85.7344 35.1811V22.373H87.7254V33.422H91.9695V35.236H85.7344V35.1811Z" fill="white"/>
<path d="M92.7559 28.6395C92.7559 25.5062 93.2274 23.6372 94.6421 22.7577C95.3233 22.3179 96.1616 22.153 97.3143 22.153C100.825 22.153 101.873 24.022 101.873 28.6395C101.873 31.8827 101.349 33.9166 99.8293 34.7961C99.2006 35.1809 98.3622 35.4008 97.3143 35.4008C93.8038 35.4008 92.7559 33.3119 92.7559 28.6395ZM98.5718 33.3119C99.5673 32.7622 99.7769 31.333 99.7769 28.6395C99.7769 25.0664 99.4101 23.967 97.2619 23.967C96.7379 23.967 96.3712 24.022 96.0568 24.1869C95.0089 24.6816 94.7993 25.9459 94.7993 28.6944C94.7993 32.2675 95.1661 33.6417 97.3143 33.6417C97.7859 33.5868 98.205 33.4768 98.5718 33.3119ZM95.2185 19.1296L99.2529 17.3706L99.8293 19.1846L95.7424 20.6688L95.2185 19.1296Z" fill="white"/>
<path d="M108.422 28.2545H111.827V35.0158C111.827 35.0158 109.26 35.4006 107.95 35.4006C104.44 35.4006 103.392 32.5422 103.392 28.6943C103.392 24.5165 104.544 22.1528 108.055 22.1528C110.046 22.1528 111.827 22.6476 111.827 22.6476L111.775 24.2967C111.775 24.2967 109.679 24.0218 108.264 24.0218C105.854 24.0218 105.435 26.0557 105.435 28.7492C105.435 31.4977 105.907 33.6416 108.212 33.6416C108.841 33.6416 109.889 33.4767 109.889 33.4767V30.0136H108.474V28.2545H108.422Z" fill="white"/>
<path d="M114.029 22.373H116.02V35.236H114.029V22.373Z" fill="white"/>
<path d="M125.45 35.0158C125.45 35.0158 123.721 35.4006 122.254 35.4006C118.796 35.4006 118.01 32.927 118.01 28.7492C118.01 24.2967 119.11 22.1528 122.254 22.1528C123.616 22.1528 125.45 22.5926 125.45 22.5926L125.345 24.2417C125.345 24.2417 123.564 23.9668 122.516 23.9668C120.577 23.9668 120.001 25.506 120.001 28.7492C120.001 31.7726 120.472 33.5866 122.568 33.5866C123.511 33.5866 125.345 33.3118 125.345 33.3118L125.45 35.0158Z" fill="white"/>
<path d="M129.171 22.373H132.787L135.564 35.236H133.572L132.577 30.6735H129.328L128.333 35.236H126.342L129.171 22.373ZM129.328 30.6735H132.577L131.162 24.1871H130.795L129.328 30.6735Z" fill="white"/>
<path d="M143.58 24.2419C143.58 24.2419 141.589 23.967 140.436 23.967C139.021 23.967 138.393 24.4068 138.393 25.6711C138.393 26.8805 138.969 27.1003 140.751 27.705C143.056 28.4746 143.999 29.0793 143.999 31.4979C143.999 34.1915 142.794 35.4558 140.069 35.4558C138.55 35.4558 136.559 35.071 136.559 35.071L136.664 33.3669C136.664 33.3669 138.969 33.6418 140.069 33.6418C141.379 33.6418 141.956 33.0371 141.956 31.6629C141.956 30.3436 141.327 30.0687 139.703 29.574C137.397 28.8594 136.297 28.0348 136.297 26.0009C136.297 23.3624 137.607 22.208 140.227 22.208C141.746 22.208 143.58 22.6478 143.58 22.6478V24.2419Z" fill="white"/>
<path d="M53.0403 24.1864H45.9668V22.3174H53.0403V24.1864Z" fill="white"/>
<path d="M53.0403 29.6834H45.9668V27.8145H53.0403V29.6834Z" fill="white"/>
<path d="M45.9668 33.3672H53.0403V35.1812H45.9668" fill="white"/>
<path d="M21.3528 33.0498H3.9541V37.004H21.3528V33.0498Z" fill="#0085DD"/>
<path d="M21.3528 37.004L3.9541 36.9618V33.0498H21.3528V37.004Z" fill="#0085DD"/>
<path d="M24.9585 9.35156V13.1661L21.4783 15.1759L20.8193 15.545V25.9836L17.2568 27.9729V17.5958L12.4998 20.3439L12.4587 20.3644L12.4175 20.3439L7.66053 17.5958V27.9729L4.09797 25.9836V15.545L3.54196 15.2374L0 13.1866V9.39258L3.10952 11.1768L3.66552 11.4844L5.23058 12.4073L12.4587 16.5499L19.7691 12.3457L21.5195 11.3409L22.0549 11.0332L24.9585 9.35156Z" fill="white"/>
<path d="M12.5004 20.3438V20.3854L12.459 20.3646L12.5004 20.3438Z" fill="white"/>
<path d="M24.9585 7.38292L19.0895 10.8078L18.6571 11.0539L12.4587 14.7043L9.28736 12.8381L13.6942 10.2541L15.8153 9.02357L19.0895 7.0958L17.5451 6.17294L13.7766 8.36731L10.3994 10.3361L7.70171 11.9152L6.32199 11.1154L6.0131 10.9308L0 7.42393L12.541 0L15.7329 1.94827L5.97192 7.64952L7.28986 8.42883L17.0714 2.72758L24.9585 7.38292Z" fill="white"/>
</svg>
