<svg width="588" height="577" viewBox="0 0 588 577" fill="none" xmlns="http://www.w3.org/2000/svg">
<g opacity="0.67">
<path opacity="0.67" d="M285.433 520.344L531.107 378.698L285.579 236.907L39.9053 378.698L285.433 520.344Z" fill="#0F054C"/>
</g>
<g opacity="0.67">
<path opacity="0.67" d="M285.431 498.385L493.119 378.698L285.577 258.866L77.8896 378.698L285.431 498.385Z" fill="#0F054C"/>
</g>
<g opacity="0.9">
<path opacity="0.9" d="M285.432 472.787L448.729 378.696L285.577 284.459L122.28 378.696L285.432 472.787Z" fill="#080344"/>
</g>
<path d="M74.5509 60.8114L123.516 281.335" stroke="url(#paint0_linear)" stroke-miterlimit="10" stroke-linecap="round" stroke-linejoin="round"/>
<path d="M92.1992 84.0616L127.93 244.774" stroke="url(#paint1_linear)" stroke-miterlimit="10" stroke-linecap="round" stroke-linejoin="round"/>
<path d="M74.4052 119.159L98.3729 227.08" stroke="url(#paint2_linear)" stroke-miterlimit="10" stroke-linecap="round" stroke-linejoin="round"/>
<path d="M111.461 45.8951L160.425 266.418" stroke="url(#paint3_linear)" stroke-miterlimit="10" stroke-linecap="round" stroke-linejoin="round"/>
<path d="M129.105 69.1489L164.836 229.862" stroke="url(#paint4_linear)" stroke-miterlimit="10" stroke-linecap="round" stroke-linejoin="round"/>
<path d="M111.313 104.242L135.281 212.164" stroke="url(#paint5_linear)" stroke-miterlimit="10" stroke-linecap="round" stroke-linejoin="round"/>
<path d="M148.367 30.8333L197.332 251.503" stroke="url(#paint6_linear)" stroke-miterlimit="10" stroke-linecap="round" stroke-linejoin="round"/>
<path d="M166.159 54.2296L201.743 214.796" stroke="url(#paint7_linear)" stroke-miterlimit="10" stroke-linecap="round" stroke-linejoin="round"/>
<path d="M148.22 89.3265L172.188 197.248" stroke="url(#paint8_linear)" stroke-miterlimit="10" stroke-linecap="round" stroke-linejoin="round"/>
<path d="M185.273 15.9152L234.238 236.585" stroke="url(#paint9_linear)" stroke-miterlimit="10" stroke-linecap="round" stroke-linejoin="round"/>
<path d="M203.067 39.1654L238.651 199.878" stroke="url(#paint10_linear)" stroke-miterlimit="10" stroke-linecap="round" stroke-linejoin="round"/>
<path d="M185.127 74.4102L209.095 182.332" stroke="url(#paint11_linear)" stroke-miterlimit="10" stroke-linecap="round" stroke-linejoin="round"/>
<path d="M222.179 1L271.144 221.669" stroke="url(#paint12_linear)" stroke-miterlimit="10" stroke-linecap="round" stroke-linejoin="round"/>
<path d="M239.973 24.2502L275.557 184.963" stroke="url(#paint13_linear)" stroke-miterlimit="10" stroke-linecap="round" stroke-linejoin="round"/>
<path d="M222.033 59.3472L246.001 167.269" stroke="url(#paint14_linear)" stroke-miterlimit="10" stroke-linecap="round" stroke-linejoin="round"/>
<path d="M296.583 576C446.738 576 568.462 506.076 568.462 419.82C568.462 333.565 446.738 263.641 296.583 263.641C146.428 263.641 24.7036 333.565 24.7036 419.82C24.7036 506.076 146.428 576 296.583 576Z" stroke="url(#paint15_linear)" stroke-width="2" stroke-miterlimit="10"/>
<path d="M296.583 576C446.738 576 568.462 506.076 568.462 419.82C568.462 333.565 446.738 263.641 296.583 263.641C146.428 263.641 24.7036 333.565 24.7036 419.82C24.7036 506.076 146.428 576 296.583 576Z" stroke="url(#paint16_linear)" stroke-width="0.25" stroke-miterlimit="10"/>
<path d="M563.02 469.687C576.663 469.687 587.723 458.688 587.723 445.119C587.723 431.551 576.663 420.552 563.02 420.552C549.377 420.552 538.317 431.551 538.317 445.119C538.317 458.688 549.377 469.687 563.02 469.687Z" fill="url(#paint17_radial)"/>
<path d="M571.841 445.12C571.841 449.946 567.871 453.894 563.019 453.894C558.166 453.894 554.196 449.946 554.196 445.12C554.196 440.294 558.166 436.346 563.019 436.346C567.871 436.492 571.841 440.294 571.841 445.12Z" fill="url(#paint18_radial)"/>
<path d="M24.7029 456.38C38.346 456.38 49.4059 445.381 49.4059 431.812C49.4059 418.244 38.346 407.245 24.7029 407.245C11.0599 407.245 0 418.244 0 431.812C0 445.381 11.0599 456.38 24.7029 456.38Z" fill="url(#paint19_radial)"/>
<path d="M33.5224 431.813C33.5224 436.638 29.5523 440.587 24.6999 440.587C19.8476 440.587 15.8774 436.638 15.8774 431.813C15.8774 426.987 19.8476 423.038 24.6999 423.038C29.5523 423.038 33.5224 426.987 33.5224 431.813Z" fill="url(#paint20_radial)"/>
<path d="M296.583 556.403C446.738 556.403 568.462 486.479 568.462 400.224C568.462 313.968 446.738 244.044 296.583 244.044C146.428 244.044 24.7036 313.968 24.7036 400.224C24.7036 486.479 146.428 556.403 296.583 556.403Z" stroke="url(#paint21_linear)" stroke-width="2" stroke-miterlimit="10"/>
<path d="M296.583 556.403C446.738 556.403 568.462 486.479 568.462 400.224C568.462 313.968 446.738 244.044 296.583 244.044C146.428 244.044 24.7036 313.968 24.7036 400.224C24.7036 486.479 146.428 556.403 296.583 556.403Z" stroke="url(#paint22_linear)" stroke-width="0.25" stroke-miterlimit="10"/>
<path d="M547.437 359.863C561.08 359.863 572.139 348.864 572.139 335.295C572.139 321.727 561.08 310.728 547.437 310.728C533.793 310.728 522.734 321.727 522.734 335.295C522.734 348.864 533.793 359.863 547.437 359.863Z" fill="url(#paint23_radial)"/>
<path d="M556.26 335.295C556.26 340.121 552.29 344.069 547.438 344.069C542.585 344.069 538.615 340.121 538.615 335.295C538.615 330.469 542.585 326.521 547.438 326.521C552.29 326.667 556.26 330.469 556.26 335.295Z" fill="url(#paint24_radial)"/>
<path d="M58.0828 496.593C71.7259 496.593 82.7857 485.594 82.7857 472.026C82.7857 458.458 71.7259 447.458 58.0828 447.458C44.4398 447.458 33.3799 458.458 33.3799 472.026C33.3799 485.594 44.4398 496.593 58.0828 496.593Z" fill="url(#paint25_radial)"/>
<path d="M66.7579 472.028C66.7579 476.853 62.7878 480.802 57.9354 480.802C53.083 480.802 49.1129 476.853 49.1129 472.028C49.1129 467.202 53.083 463.254 57.9354 463.254C62.9348 463.254 66.7579 467.202 66.7579 472.028Z" fill="url(#paint26_radial)"/>
<path d="M365.989 539.297C453.613 539.297 524.646 498.508 524.646 448.192C524.646 397.876 453.613 357.087 365.989 357.087C278.364 357.087 207.331 397.876 207.331 448.192C207.331 498.508 278.364 539.297 365.989 539.297Z" fill="url(#paint27_radial)"/>
<path d="M367.9 526.865C388.609 526.865 405.396 517.241 405.396 505.369C405.396 493.497 388.609 483.872 367.9 483.872C347.192 483.872 330.405 493.497 330.405 505.369C330.405 517.241 347.192 526.865 367.9 526.865Z" fill="url(#paint28_radial)"/>
<path d="M377.312 499.959C382.605 503.03 382.605 507.855 377.312 510.78C372.018 513.851 363.637 513.851 358.343 510.78C353.05 507.709 353.05 502.883 358.343 499.959C363.637 496.888 372.165 496.888 377.312 499.959Z" fill="url(#paint29_radial)"/>
<path d="M489.796 435.322C495.09 438.393 495.09 443.219 489.796 446.143C484.503 449.214 476.121 449.214 470.828 446.143C465.534 443.073 465.534 438.247 470.828 435.322C476.121 432.397 484.65 432.397 489.796 435.322Z" fill="url(#paint30_radial)"/>
<path d="M480.387 462.228C501.095 462.228 517.882 452.604 517.882 440.732C517.882 428.859 501.095 419.235 480.387 419.235C459.679 419.235 442.891 428.859 442.891 440.732C442.891 452.604 459.679 462.228 480.387 462.228Z" fill="url(#paint31_radial)"/>
<path d="M434.215 467.344C439.508 470.269 439.508 475.241 434.215 478.166C428.922 481.236 420.54 481.236 415.247 478.166C409.953 475.095 409.953 470.269 415.247 467.344C420.54 464.273 428.922 464.273 434.215 467.344Z" fill="url(#paint32_radial)"/>
<path d="M450.687 457.842C465.392 466.323 465.392 479.923 450.687 488.259C435.983 496.74 412.31 496.74 397.605 488.259C382.901 479.777 382.901 466.177 397.605 457.842C412.31 449.36 435.983 449.36 450.687 457.842Z" fill="url(#paint33_radial)"/>
<path d="M522.288 376.094L242.027 536.953C240.557 537.831 238.792 537.831 237.322 536.953L96.6034 455.646C93.5155 453.891 93.5155 449.358 96.6034 447.603L376.864 286.744C378.334 285.867 380.099 285.867 381.569 286.744L522.288 368.051C525.376 369.806 525.376 374.339 522.288 376.094Z" fill="url(#paint34_linear)"/>
<path d="M524.639 372.144C524.639 373.753 523.904 375.215 522.287 376.093L242.026 536.952C240.556 537.829 238.791 537.829 237.321 536.952L96.6022 455.645C95.2789 454.914 94.5436 453.598 94.3966 452.282V456.522C94.3966 456.669 94.3966 456.815 94.3966 457.107V457.4C94.5436 458.716 95.2789 460.032 96.6022 460.763L237.321 542.07C238.791 542.948 240.556 542.948 242.026 542.07L522.287 381.211C523.61 380.48 524.345 379.31 524.492 377.994H524.639V372.144Z" fill="url(#paint35_linear)"/>
<path d="M524.639 372.144C524.639 373.753 523.904 375.215 522.287 376.093L242.026 536.952C240.556 537.829 238.791 537.829 237.321 536.952L96.6022 455.645C95.2789 454.914 94.5436 453.598 94.3966 452.282V456.522C94.3966 456.669 94.3966 456.815 94.3966 457.107V457.4C94.5436 458.716 95.2789 460.032 96.6022 460.763L237.321 542.07C238.791 542.948 240.556 542.948 242.026 542.07L522.287 381.211C523.61 380.48 524.345 379.31 524.492 377.994H524.639V372.144Z" fill="url(#paint36_linear)"/>
<path d="M242.762 408.998L250.114 404.757C251.143 404.172 251.143 403.295 250.114 402.71L242.762 398.469C241.733 397.884 240.262 397.884 239.233 398.469L231.881 402.71C230.852 403.295 230.852 404.172 231.881 404.757L239.233 408.998C240.262 409.437 241.88 409.437 242.762 408.998ZM226.44 400.37L235.41 395.252C235.998 394.959 235.998 394.374 235.41 394.082L226.44 388.964C225.852 388.671 224.97 388.671 224.529 388.964L215.559 394.082C214.971 394.374 214.971 394.959 215.559 395.252L224.529 400.37C224.97 400.809 225.852 400.809 226.44 400.37ZM257.613 418.357L266.583 413.239C267.171 412.946 267.171 412.361 266.583 412.069L257.613 406.951C257.025 406.658 256.143 406.658 255.702 406.951L246.732 412.069C246.144 412.361 246.144 412.946 246.732 413.239L255.702 418.357C256.143 418.65 257.025 418.65 257.613 418.357ZM273.935 426.839L281.287 422.598C282.316 422.013 282.316 421.136 281.287 420.551L273.935 416.31C272.905 415.725 271.288 415.725 270.406 416.31L263.054 420.551C262.024 421.136 262.024 422.013 263.054 422.598L270.406 426.839C271.435 427.424 273.052 427.424 273.935 426.839ZM258.789 399.785L266.142 395.544C267.171 394.959 267.171 394.082 266.142 393.497L258.789 389.256C257.76 388.671 256.29 388.671 255.26 389.256L247.908 393.497C246.879 394.082 246.879 394.959 247.908 395.544L255.26 399.785C256.29 400.37 257.76 400.37 258.789 399.785ZM273.641 409.144L282.61 404.026C283.198 403.734 283.198 403.149 282.61 402.856L273.641 397.738C273.052 397.445 272.17 397.445 271.729 397.738L262.76 402.856C262.171 403.149 262.171 403.734 262.76 404.026L271.729 409.144C272.17 409.437 273.052 409.437 273.641 409.144ZM289.962 417.626L297.314 413.385C298.344 412.8 298.344 411.923 297.314 411.338L289.962 407.097C288.933 406.512 287.315 406.512 286.433 407.097L279.081 411.338C278.052 411.923 278.052 412.8 279.081 413.385L286.433 417.626C287.315 418.211 288.933 418.211 289.962 417.626ZM258.054 436.052L265.406 431.811C266.436 431.226 266.436 430.348 265.406 429.764L258.054 425.523C257.025 424.938 255.408 424.938 254.525 425.523L247.173 429.764C246.144 430.348 246.144 431.226 247.173 431.811L254.525 436.052C255.408 436.637 257.025 436.637 258.054 436.052ZM162.477 437.075L171.447 431.957C172.035 431.665 172.035 431.08 171.447 430.787L162.477 425.669C161.889 425.376 161.007 425.376 160.566 425.669L151.596 430.787C151.008 431.08 151.008 431.665 151.596 431.957L160.566 437.075C161.154 437.368 162.036 437.368 162.477 437.075ZM210.413 409.583L219.382 404.465C219.971 404.172 219.971 403.587 219.382 403.295L210.413 398.177C209.825 397.884 208.942 397.884 208.501 398.177L199.532 403.295C198.944 403.587 198.944 404.172 199.532 404.465L208.501 409.583C209.09 409.875 209.972 409.875 210.413 409.583ZM206.002 471.148L198.797 475.243C197.767 475.828 197.767 476.705 198.797 477.29L206.002 481.385C207.031 481.97 208.648 481.97 209.678 481.385L216.883 477.29C217.912 476.705 217.912 475.828 216.883 475.243L209.678 471.148C208.648 470.563 207.031 470.563 206.002 471.148ZM146.597 446.288L155.566 441.17C156.155 440.877 156.155 440.292 155.566 440L146.597 434.882C146.009 434.589 145.127 434.589 144.685 434.882L135.716 440C135.128 440.292 135.128 440.877 135.716 441.17L144.685 446.288C145.127 446.581 146.009 446.581 146.597 446.288ZM226.882 418.065L234.234 413.824C235.263 413.239 235.263 412.361 234.234 411.777L226.882 407.536C225.852 406.951 224.382 406.951 223.352 407.536L216 411.777C214.971 412.361 214.971 413.239 216 413.824L223.352 418.065C224.235 418.65 225.852 418.65 226.882 418.065ZM242.468 391.304L251.437 386.185C252.026 385.893 252.026 385.308 251.437 385.015L242.468 379.897C241.88 379.605 240.997 379.605 240.556 379.897L231.587 385.015C230.999 385.308 230.999 385.893 231.587 386.185L240.556 391.304C240.997 391.596 241.88 391.596 242.468 391.304ZM241.586 427.57L250.555 422.452C251.143 422.159 251.143 421.574 250.555 421.282L241.586 416.164C240.997 415.871 240.115 415.871 239.674 416.164L230.705 421.282C230.116 421.574 230.116 422.159 230.705 422.452L239.674 427.57C240.262 427.862 241.145 427.862 241.586 427.57ZM337.898 390.134L345.25 385.893C346.279 385.308 346.279 384.43 345.25 383.846L337.898 379.605C336.868 379.02 335.251 379.02 334.369 379.605L327.017 383.846C325.987 384.43 325.987 385.308 327.017 385.893L334.369 390.134C335.251 390.719 336.868 390.719 337.898 390.134ZM306.725 372.293L314.077 368.052C315.106 367.467 315.106 366.59 314.077 366.005L306.725 361.764C305.696 361.179 304.225 361.179 303.196 361.764L295.844 366.005C294.815 366.59 294.815 367.467 295.844 368.052L303.196 372.293C304.225 372.878 305.696 372.878 306.725 372.293ZM321.576 381.652L330.546 376.534C331.134 376.241 331.134 375.656 330.546 375.364L321.576 370.246C320.988 369.953 320.106 369.953 319.665 370.246L310.695 375.364C310.107 375.656 310.107 376.241 310.695 376.534L319.665 381.652C320.106 381.944 320.988 381.944 321.576 381.652ZM290.403 363.811L299.373 358.693C299.961 358.401 299.961 357.816 299.373 357.523L290.403 352.405C289.815 352.112 288.933 352.112 288.492 352.405L279.522 357.523C278.934 357.816 278.934 358.401 279.522 358.693L288.492 363.811C288.933 364.104 289.815 364.104 290.403 363.811ZM354.66 344.801L362.012 340.56C363.042 339.975 363.042 339.097 362.012 338.513L354.66 334.272C353.631 333.687 352.161 333.687 351.131 334.272L343.779 338.513C342.75 339.097 342.75 339.975 343.779 340.56L351.131 344.801C352.161 345.386 353.631 345.386 354.66 344.801ZM369.512 354.16L378.481 349.041C379.069 348.749 379.069 348.164 378.481 347.872L369.512 342.753C368.923 342.461 368.041 342.461 367.6 342.753L358.63 347.872C358.042 348.164 358.042 348.749 358.63 349.041L367.6 354.16C368.041 354.598 368.923 354.598 369.512 354.16ZM338.339 336.319L347.308 331.201C347.896 330.908 347.896 330.323 347.308 330.031L338.339 324.913C337.751 324.62 336.868 324.62 336.427 324.913L327.458 330.031C326.87 330.323 326.87 330.908 327.458 331.201L336.427 336.319C336.868 336.611 337.751 336.611 338.339 336.319ZM190.562 462.228L183.21 466.469C182.181 467.054 182.181 467.931 183.21 468.516L190.562 472.757C191.592 473.342 193.209 473.342 194.091 472.757L201.443 468.516C202.473 467.931 202.473 467.054 201.443 466.469L194.091 462.228C193.062 461.643 191.445 461.643 190.562 462.228ZM289.521 400.078L298.491 394.959C299.079 394.667 299.079 394.082 298.491 393.79L289.521 388.671C288.933 388.379 288.051 388.379 287.61 388.671L278.64 393.79C278.052 394.082 278.052 394.667 278.64 394.959L287.61 400.078C288.198 400.37 289.08 400.37 289.521 400.078ZM274.817 390.572L282.169 386.332C283.198 385.747 283.198 384.869 282.169 384.284L274.817 380.043C273.788 379.458 272.317 379.458 271.288 380.043L263.936 384.284C262.907 384.869 262.907 385.747 263.936 386.332L271.288 390.572C272.17 391.157 273.788 391.157 274.817 390.572ZM305.99 408.559L313.342 404.319C314.371 403.734 314.371 402.856 313.342 402.271L305.99 398.03C304.96 397.445 303.343 397.445 302.461 398.03L295.109 402.271C294.079 402.856 294.079 403.734 295.109 404.319L302.461 408.559C303.343 409.144 304.96 409.144 305.99 408.559ZM258.348 382.091L267.318 376.972C267.906 376.68 267.906 376.095 267.318 375.803L258.348 370.684C257.76 370.392 256.878 370.392 256.437 370.684L247.467 375.803C246.879 376.095 246.879 376.68 247.467 376.972L256.437 382.091C257.025 382.383 257.907 382.383 258.348 382.091ZM305.549 390.865L314.518 385.747C315.106 385.454 315.106 384.869 314.518 384.577L305.549 379.458C304.96 379.166 304.078 379.166 303.637 379.458L294.668 384.577C294.079 384.869 294.079 385.454 294.668 385.747L303.637 390.865C304.078 391.157 304.96 391.157 305.549 390.865ZM321.87 399.347L329.222 395.106C330.252 394.521 330.252 393.643 329.222 393.058L321.87 388.818C320.841 388.233 319.223 388.233 318.341 388.818L310.989 393.058C309.96 393.643 309.96 394.521 310.989 395.106L318.341 399.347C319.37 399.931 320.988 399.931 321.87 399.347ZM290.697 381.506L298.049 377.265C299.079 376.68 299.079 375.803 298.049 375.218L290.697 370.977C289.668 370.392 288.198 370.392 287.168 370.977L279.816 375.218C278.787 375.803 278.787 376.68 279.816 377.265L287.168 381.506C288.198 382.091 289.815 382.091 290.697 381.506ZM274.376 372.878L283.345 367.76C283.934 367.467 283.934 366.882 283.345 366.59L274.376 361.472C273.788 361.179 272.905 361.179 272.464 361.472L263.495 366.59C262.907 366.882 262.907 367.467 263.495 367.76L272.464 372.878C272.905 373.317 273.788 373.317 274.376 372.878ZM304.372 343.192L295.403 348.31C294.815 348.603 294.815 349.188 295.403 349.48L304.372 354.598C304.96 354.891 305.843 354.891 306.284 354.598L315.253 349.48C315.841 349.188 315.841 348.603 315.253 348.31L306.284 343.192C305.843 342.9 304.96 342.9 304.372 343.192ZM351.573 351.966L342.603 357.084C342.015 357.377 342.015 357.962 342.603 358.254L351.573 363.373C352.161 363.665 353.043 363.665 353.484 363.373L362.454 358.254C363.042 357.962 363.042 357.377 362.454 357.084L353.484 351.966C352.896 351.674 352.014 351.674 351.573 351.966ZM366.277 361.325L358.925 365.566C357.895 366.151 357.895 367.028 358.925 367.613L366.277 371.854C367.306 372.439 368.923 372.439 369.806 371.854L377.158 367.613C378.187 367.028 378.187 366.151 377.158 365.566L369.806 361.325C368.923 360.887 367.306 360.887 366.277 361.325ZM335.251 343.485L327.899 347.725C326.87 348.31 326.87 349.188 327.899 349.773L335.251 354.013C336.28 354.598 337.751 354.598 338.78 354.013L346.132 349.773C347.161 349.188 347.161 348.31 346.132 347.725L338.78 343.485C337.751 342.9 336.133 342.9 335.251 343.485ZM319.223 352.551L311.871 356.792C310.842 357.377 310.842 358.254 311.871 358.839L319.223 363.08C320.253 363.665 321.723 363.665 322.752 363.08L330.104 358.839C331.134 358.254 331.134 357.377 330.104 356.792L322.752 352.551C321.723 352.112 320.106 352.112 319.223 352.551ZM381.863 370.392L374.658 374.486C373.629 375.071 373.629 375.949 374.658 376.534L381.863 380.628C382.892 381.213 384.51 381.213 385.539 380.628L392.744 376.534C393.773 375.949 393.773 375.071 392.744 374.486L385.539 370.392C384.51 369.807 382.892 369.807 381.863 370.392ZM335.545 361.179L326.576 366.297C325.987 366.59 325.987 367.175 326.576 367.467L335.545 372.585C336.133 372.878 337.015 372.878 337.457 372.585L346.426 367.467C347.014 367.175 347.014 366.59 346.426 366.297L337.457 361.179C337.015 360.887 336.133 360.887 335.545 361.179ZM320.4 334.125L311.43 339.244C310.842 339.536 310.842 340.121 311.43 340.414L320.4 345.532C320.988 345.824 321.87 345.824 322.311 345.532L331.281 340.414C331.869 340.121 331.869 339.536 331.281 339.244L322.311 334.125C321.87 333.687 320.988 333.687 320.4 334.125ZM397.743 361.179L390.538 365.274C389.509 365.859 389.509 366.736 390.538 367.321L397.743 371.416C398.773 372 400.39 372 401.419 371.416L408.625 367.321C409.654 366.736 409.654 365.859 408.625 365.274L401.419 361.179C400.537 360.594 398.773 360.594 397.743 361.179ZM175.711 452.722L166.742 457.841C166.153 458.133 166.153 458.718 166.742 459.011L175.711 464.129C176.299 464.421 177.182 464.421 177.623 464.129L186.592 459.011C187.18 458.718 187.18 458.133 186.592 457.841L177.623 452.722C177.182 452.43 176.299 452.43 175.711 452.722ZM368.335 306.633L343.044 321.11C342.456 321.403 342.456 321.988 343.044 322.28L352.014 327.399C352.602 327.691 353.484 327.691 353.925 327.399L379.216 312.921C379.804 312.629 379.804 312.044 379.216 311.751L370.247 306.633C369.806 306.341 368.923 306.341 368.335 306.633ZM394.362 339.975C394.95 339.682 394.95 339.097 394.362 338.805L385.392 333.687C384.804 333.394 383.922 333.394 383.48 333.687L374.511 338.805C373.923 339.097 373.923 339.682 374.511 339.975L383.48 345.093C384.069 345.386 384.951 345.386 385.392 345.093L394.362 339.975ZM413.771 352.112L406.566 356.207C405.537 356.792 405.537 357.669 406.566 358.254L413.771 362.349C414.8 362.934 416.418 362.934 417.447 362.349L424.652 358.254C425.681 357.669 425.681 356.792 424.652 356.207L417.447 352.112C416.418 351.527 414.8 351.527 413.771 352.112ZM350.249 370.538L342.897 374.779C341.868 375.364 341.868 376.241 342.897 376.826L350.249 381.067C351.278 381.652 352.896 381.652 353.778 381.067L361.13 376.826C362.159 376.241 362.159 375.364 361.13 374.779L353.778 370.538C352.896 369.953 351.278 369.953 350.249 370.538ZM414.212 333.979L375.246 356.353C374.217 356.938 374.217 357.816 375.246 358.401L382.598 362.641C383.628 363.226 385.245 363.226 386.127 362.641L425.093 340.267C426.122 339.682 426.122 338.805 425.093 338.22L417.741 333.979C416.859 333.394 415.241 333.394 414.212 333.979ZM429.798 342.9L422.593 346.994C421.564 347.579 421.564 348.457 422.593 349.041L429.798 353.136C430.828 353.721 432.445 353.721 433.474 353.136L440.68 349.041C441.709 348.457 441.709 347.579 440.68 346.994L433.474 342.9C432.445 342.315 430.828 342.315 429.798 342.9ZM381.128 317.162L361.718 328.276C359.66 329.446 359.66 331.347 361.718 332.663L365.1 334.564C367.159 335.734 370.541 335.734 372.599 334.564L380.981 329.738C383.039 328.569 386.421 328.569 388.48 329.738L396.567 334.418C398.626 335.588 402.008 335.588 404.066 334.418L407.448 332.517C409.507 331.347 409.507 329.446 407.448 328.13L388.48 317.162C386.568 315.992 383.186 315.992 381.128 317.162ZM238.057 452.869L230.852 456.963C229.822 457.548 229.822 458.426 230.852 459.011L238.057 463.105C239.086 463.69 240.703 463.69 241.733 463.105L248.938 459.011C249.967 458.426 249.967 457.548 248.938 456.963L241.733 452.869C240.703 452.284 239.086 452.284 238.057 452.869ZM365.688 379.605L262.76 438.538C261.73 439.123 261.73 440 262.76 440.585L269.965 444.68C270.994 445.264 272.611 445.264 273.641 444.68L376.57 385.747C377.599 385.162 377.599 384.284 376.57 383.699L369.365 379.605C368.335 379.02 366.718 379.02 365.688 379.605ZM222.47 443.802L215.118 448.043C214.089 448.628 214.089 449.505 215.118 450.09L222.47 454.331C223.5 454.916 225.117 454.916 225.999 454.331L233.351 450.09C234.381 449.505 234.381 448.628 233.351 448.043L225.999 443.802C225.117 443.217 223.5 443.217 222.47 443.802ZM207.766 434.443L198.797 439.561C198.208 439.854 198.208 440.439 198.797 440.731L207.766 445.849C208.354 446.142 209.237 446.142 209.678 445.849L218.647 440.731C219.235 440.439 219.235 439.854 218.647 439.561L209.678 434.443C209.09 434.151 208.207 434.151 207.766 434.443ZM191.739 443.656L182.769 448.774C182.181 449.067 182.181 449.652 182.769 449.944L191.739 455.062C192.327 455.355 193.209 455.355 193.65 455.062L202.62 449.944C203.208 449.652 203.208 449.067 202.62 448.774L193.65 443.656C193.209 443.217 192.327 443.217 191.739 443.656ZM222.029 461.935L214.824 466.03C213.795 466.615 213.795 467.492 214.824 468.077L222.029 472.172C223.058 472.757 224.676 472.757 225.705 472.172L232.91 468.077C233.939 467.492 233.939 466.615 232.91 466.03L225.705 461.935C224.676 461.35 223.058 461.35 222.029 461.935ZM206.443 453.015L199.091 457.256C198.061 457.841 198.061 458.718 199.091 459.303L206.443 463.544C207.472 464.129 209.09 464.129 209.972 463.544L217.324 459.303C218.353 458.718 218.353 457.841 217.324 457.256L209.972 453.015C209.09 452.43 207.472 452.43 206.443 453.015ZM175.564 435.028L152.037 448.482C151.008 449.067 151.008 449.944 152.037 450.529L159.39 454.77C160.419 455.355 161.889 455.355 162.919 454.77L186.445 441.316C187.474 440.731 187.474 439.854 186.445 439.269L179.093 435.028C178.064 434.443 176.446 434.443 175.564 435.028ZM207.325 416.749L199.973 420.989C198.944 421.574 198.944 422.452 199.973 423.037L207.325 427.278C208.354 427.862 209.825 427.862 210.854 427.278L218.206 423.037C219.235 422.452 219.235 421.574 218.206 420.989L210.854 416.749C209.825 416.164 208.354 416.164 207.325 416.749ZM223.647 425.23L214.677 430.348C214.089 430.641 214.089 431.226 214.677 431.518L223.647 436.637C224.235 436.929 225.117 436.929 225.558 436.637L234.528 431.518C235.116 431.226 235.116 430.641 234.528 430.348L225.558 425.23C225.117 424.938 224.235 424.938 223.647 425.23ZM192.474 407.389L183.504 412.508C182.916 412.8 182.916 413.385 183.504 413.678L192.474 418.796C193.062 419.088 193.944 419.088 194.385 418.796L203.355 413.678C203.943 413.385 203.943 412.8 203.355 412.508L194.385 407.389C193.944 407.097 193.062 407.097 192.474 407.389ZM176.593 416.456L167.624 421.574C167.036 421.867 167.036 422.452 167.624 422.744L176.593 427.862C177.182 428.155 178.064 428.155 178.505 427.862L187.474 422.744C188.063 422.452 188.063 421.867 187.474 421.574L178.505 416.456C178.064 416.164 177.034 416.164 176.593 416.456ZM238.498 434.736L231.146 438.976C230.116 439.561 230.116 440.439 231.146 441.024L238.498 445.264C239.527 445.849 241.145 445.849 242.027 445.264L249.379 441.024C250.408 440.439 250.408 439.561 249.379 438.976L242.027 434.736C240.997 434.151 239.527 434.151 238.498 434.736ZM191.445 425.961L184.092 430.202C183.063 430.787 183.063 431.665 184.092 432.25L191.445 436.49C192.474 437.075 193.944 437.075 194.974 436.49L202.326 432.25C203.355 431.665 203.355 430.787 202.326 430.202L194.974 425.961C193.944 425.376 192.327 425.376 191.445 425.961ZM253.937 443.656L246.732 447.75C245.703 448.335 245.703 449.213 246.732 449.798L253.937 453.892C254.966 454.477 256.584 454.477 257.613 453.892L264.818 449.798C265.847 449.213 265.847 448.335 264.818 447.75L257.613 443.656C256.731 443.071 254.966 443.071 253.937 443.656Z" fill="url(#paint37_linear)"/>
<path d="M435.974 412.068L324.664 476.12L280.257 450.675L391.715 386.623L435.974 412.068Z" fill="url(#paint38_linear)"/>
<path d="M376.278 287.035L95.282 448.333C92.4882 449.941 89.1062 448.333 88.371 445.262L49.8462 259.104C49.4051 257.203 50.2873 255.156 52.0518 254.132L333.048 92.8342C335.842 91.2256 339.224 92.8342 339.959 95.9052L378.484 282.063C378.925 284.11 378.042 286.011 376.278 287.035Z" fill="url(#paint39_linear)"/>
<path d="M58.9611 256.473L327.753 102.195C331.282 100.147 335.693 102.195 336.575 106.143L372.306 278.409C372.894 280.895 371.718 283.527 369.512 284.697L100.574 439.121C97.0449 441.169 92.6336 439.121 91.7514 435.173L56.1674 262.761C55.5792 260.275 56.7555 257.789 58.9611 256.473Z" fill="url(#paint40_linear)"/>
<path d="M312.9 141.823L100.278 264.515L97.7786 252.231L310.4 129.54L312.9 141.823Z" fill="url(#paint41_linear)"/>
<path d="M257.171 268.609L116.747 349.477L102.043 273.581L242.32 192.566L257.171 268.609Z" fill="#54C9FF"/>
<path d="M269.524 261.446L329.37 226.934L314.666 150.891L254.673 185.549L269.524 261.446Z" fill="#2069C7"/>
<path d="M221.734 358.107L128.951 411.63L119.688 364.249L212.471 310.581L221.734 358.107Z" fill="#064280"/>
<path d="M341.133 289.521L231.881 352.549L222.618 305.022L331.869 241.995L341.133 289.521Z" fill="#529DFA"/>
<path d="M161.299 350.793L127.186 370.389L127.627 372.729L161.74 352.987L161.299 350.793Z" fill="#0182AA"/>
<path d="M157.186 360.74L128.513 377.265L128.954 379.459L157.627 362.934L157.186 360.74Z" fill="#0182AA"/>
<path d="M165.274 363.663L129.837 383.99L130.278 386.329L165.715 365.856L165.274 363.663Z" fill="#0182AA"/>
<path d="M161.888 373.022L131.156 390.863L131.597 393.057L162.329 375.362L161.888 373.022Z" fill="#0182AA"/>
<path d="M153.213 385.744L132.48 397.589L132.921 399.929L153.654 387.938L153.213 385.744Z" fill="#0182AA"/>
<path d="M209.531 323.009L169.683 345.968L170.124 348.161L209.972 325.203L209.531 323.009Z" fill="#0182AA"/>
<path d="M203.65 333.831L171.006 352.695L171.447 355.035L204.091 336.171L203.65 333.831Z" fill="#0182AA"/>
<path d="M192.916 347.575L172.33 359.567L172.771 361.76L193.504 349.915L192.916 347.575Z" fill="#0182AA"/>
<path d="M213.5 343.335L173.652 366.294L174.093 368.633L213.941 345.674L213.5 343.335Z" fill="#0182AA"/>
<path d="M206.884 354.744L174.976 373.17L175.417 375.363L207.325 357.084L206.884 354.744Z" fill="#0182AA"/>
<path d="M336.72 287.914L234.821 346.7L227.027 306.632L328.927 247.845L336.72 287.914Z" stroke="#01FFFF" stroke-width="0.2602" stroke-miterlimit="10"/>
<path d="M232.322 333.683L334.221 275.042" stroke="#01FFFF" stroke-width="0.2602" stroke-miterlimit="10"/>
<path d="M229.674 320.084L331.574 261.444" stroke="#01FFFF" stroke-width="0.2602" stroke-miterlimit="10"/>
<path d="M234.969 339.826L241.88 321.986L254.084 327.543L265.994 287.035L281.875 300.635L288.786 284.842L304.813 302.39L309.519 267.732L318.635 286.743L322.458 265.393L328.193 262.029" stroke="#15FF5F" stroke-width="1.041" stroke-miterlimit="10" stroke-linecap="round" stroke-linejoin="round"/>
<path d="M123.953 247.99L104.249 259.396L102.926 252.231L122.629 240.824L123.953 247.99Z" fill="#889FFF"/>
<path d="M163.802 315.698L123.071 339.242L110.867 276.507L151.597 252.963L163.802 315.698Z" fill="#239BD5"/>
<path d="M236.882 214.65L167.184 254.718L165.273 245.067L234.97 204.998L236.882 214.65Z" fill="#239BD5"/>
<path d="M227.618 237.023L170.125 270.072L168.213 260.421L225.706 227.371L227.618 237.023Z" fill="#239BD5"/>
<path d="M242.763 245.213L173.213 285.427L171.301 275.776L240.999 235.561L242.763 245.213Z" fill="#239BD5"/>
<path d="M225.117 272.56L176.152 300.783L174.24 291.131L223.205 262.908L225.117 272.56Z" fill="#239BD5"/>
<path d="M274.081 197.247L263.641 203.243L260.994 189.935L271.581 183.793L274.081 197.247Z" fill="#54C9FF"/>
<path d="M278.197 218.598L267.758 224.593L265.111 211.286L275.698 205.144L278.197 218.598Z" fill="#54C9FF"/>
<path d="M282.463 239.947L271.876 245.942L269.376 232.635L279.816 226.493L282.463 239.947Z" fill="#54C9FF"/>
<path d="M312.901 165.367L278.053 185.401L277.17 180.575L311.872 160.541L312.901 165.367Z" fill="#5796FF"/>
<path d="M314.96 176.335L280.111 196.369L279.229 191.543L314.077 171.509L314.96 176.335Z" fill="#5796FF"/>
<path d="M317.165 187.157L282.316 207.337L281.287 202.512L316.136 182.331L317.165 187.157Z" fill="#5796FF"/>
<path d="M319.224 198.125L284.375 218.159L283.493 213.334L318.342 193.299L319.224 198.125Z" fill="#5796FF"/>
<path d="M321.43 209.091L286.581 229.125L285.552 224.3L320.4 204.265L321.43 209.091Z" fill="#5796FF"/>
<path d="M323.489 219.913L288.64 240.093L287.758 235.268L322.607 215.087L323.489 219.913Z" fill="#5796FF"/>
<path d="M307.752 139.046L243.495 176.043L243.054 174.435L307.458 137.291L307.752 139.046Z" fill="#89D1FF"/>
<path d="M91.4584 448.772L91.6055 448.918C91.4584 448.772 91.4584 448.772 91.4584 448.772ZM338.047 93.1272C338.047 93.1272 338.194 93.1272 338.047 93.1272V93.1272ZM334.518 91.2262C333.194 90.3488 331.43 90.3488 329.812 91.2262L48.8164 252.524C47.052 253.548 46.1697 255.449 46.6108 257.496L85.1356 443.654C85.4297 445.409 86.7531 446.578 88.2235 447.017L90.2821 448.041C89.3998 447.456 88.6646 446.432 88.3705 445.116L49.8457 259.105C49.4046 257.203 50.2869 255.156 52.0514 254.133L333.047 92.8348C334.371 92.1036 335.694 92.1036 337.017 92.5423L334.518 91.2262Z" fill="url(#paint42_linear)"/>
<path d="M91.4584 448.772L91.6055 448.918C91.4584 448.772 91.4584 448.772 91.4584 448.772ZM338.047 93.1272C338.047 93.1272 338.194 93.1272 338.047 93.1272V93.1272ZM334.518 91.2262C333.194 90.3488 331.43 90.3488 329.812 91.2262L48.8164 252.524C47.052 253.548 46.1697 255.449 46.6108 257.496L85.1356 443.654C85.4297 445.409 86.7531 446.578 88.2235 447.017L90.2821 448.041C89.3998 447.456 88.6646 446.432 88.3705 445.116L49.8457 259.105C49.4046 257.203 50.2869 255.156 52.0514 254.133L333.047 92.8348C334.371 92.1036 335.694 92.1036 337.017 92.5423L334.518 91.2262Z" fill="url(#paint43_linear)"/>
<path d="M132.481 503.025C146.125 503.025 157.184 492.026 157.184 478.457C157.184 464.889 146.125 453.89 132.481 453.89C118.838 453.89 107.779 464.889 107.779 478.457C107.779 492.026 118.838 503.025 132.481 503.025Z" fill="url(#paint44_radial)"/>
<path d="M141.305 478.46C141.305 483.286 137.335 487.234 132.483 487.234C127.63 487.234 123.66 483.286 123.66 478.46C123.66 473.634 127.63 469.686 132.483 469.686C137.335 469.686 141.305 473.634 141.305 478.46Z" fill="url(#paint45_radial)"/>
<path d="M220.56 552.162C234.203 552.162 245.263 541.163 245.263 527.595C245.263 514.026 234.203 503.027 220.56 503.027C206.917 503.027 195.857 514.026 195.857 527.595C195.857 541.163 206.917 552.162 220.56 552.162Z" fill="url(#paint46_radial)"/>
<path d="M220.561 536.369C225.433 536.369 229.383 532.441 229.383 527.595C229.383 522.749 225.433 518.821 220.561 518.821C215.688 518.821 211.738 522.749 211.738 527.595C211.738 532.441 215.688 536.369 220.561 536.369Z" fill="url(#paint47_radial)"/>
<path d="M154.393 256.471L423.037 102.193C426.566 100.145 430.977 102.193 431.86 106.141L467.591 278.406C468.179 280.893 467.003 283.525 464.797 284.695L196.005 439.119C192.476 441.167 188.065 439.119 187.183 435.171L151.452 262.759C151.011 260.273 152.04 257.787 154.393 256.471Z" fill="url(#paint48_linear)"/>
<path opacity="0.7" d="M182.476 270.509L179.829 271.972L180.417 275.189L183.064 273.727L182.476 270.509ZM186.74 296.686L184.093 298.148L184.682 301.365L187.328 299.903L186.74 296.686ZM188.799 309.847L186.152 311.309L186.74 314.526L189.387 313.064L188.799 309.847ZM186.005 292.298L183.358 293.761L183.946 296.978L186.593 295.516L186.005 292.298ZM184.682 283.524L182.035 284.987L182.623 288.204L185.27 286.742L184.682 283.524ZM183.946 279.137L181.3 280.6L181.888 283.817L184.535 282.354L183.946 279.137ZM185.27 287.911L182.623 289.374L183.211 292.591L185.858 291.129L185.27 287.911ZM189.534 314.088L186.887 315.55L187.475 318.767L190.122 317.305L189.534 314.088ZM188.211 305.46L185.564 306.922L186.152 310.139L188.799 308.677L188.211 305.46ZM202.915 282.501L188.358 290.982L188.946 294.2L203.503 285.718L202.915 282.501ZM195.857 291.275L189.093 295.223L189.681 298.44L196.445 294.492L195.857 291.275ZM206.591 294.638L190.563 303.997L191.151 307.215L207.179 297.855L206.591 294.638ZM198.65 280.161L187.622 286.595L188.211 289.812L199.239 283.378L198.65 280.161ZM191.004 322.862L188.358 324.324L188.946 327.541L191.593 326.079L191.004 322.862ZM190.269 318.475L187.622 319.937L188.211 323.154L190.857 321.692L190.269 318.475ZM191.74 327.249L189.093 328.711L189.681 331.928L192.328 330.466L191.74 327.249ZM189.828 333.098L190.416 336.315L193.063 334.853L192.475 331.636L189.828 333.098ZM183.211 274.75L180.564 276.213L181.153 279.43L183.799 277.967L183.211 274.75ZM220.707 275.628L224.383 273.58L223.795 270.363L220.119 272.41L220.707 275.628ZM202.768 246.088L178.065 260.419L178.653 263.929L203.356 249.598L202.768 246.088ZM187.475 285.425L190.857 283.524L190.269 280.307L186.887 282.208L187.475 285.425ZM260.702 225.03L255.555 228.101L256.144 231.318L261.29 228.247L260.702 225.03ZM197.327 271.387L186.299 277.821L186.887 281.038L197.915 274.604L197.327 271.387ZM257.908 239.654L257.32 236.437L245.116 243.602L245.704 246.819L257.908 239.654ZM270.701 210.407L270.113 206.897L245.41 221.228L245.998 224.738L270.701 210.407ZM250.997 235.413L247.174 237.606L247.762 240.824L251.585 238.63L250.997 235.413ZM242.322 240.531L242.91 243.748L246.586 241.555L245.998 238.338L242.322 240.531ZM201.15 306.191L224.677 292.445L224.089 289.228L200.562 302.974L201.15 306.191ZM204.973 280.015L204.385 276.798L199.974 279.43L200.562 282.647L204.973 280.015ZM184.829 269.047L185.417 272.264L191.151 268.901L190.563 265.684L184.829 269.047ZM217.178 272.849L216.59 269.632L206.591 275.481L207.179 278.699L217.178 272.849ZM193.651 267.438L210.561 257.641L209.973 254.424L193.063 264.221L193.651 267.438ZM219.53 276.359L218.942 273.142L204.385 281.623L204.973 284.84L219.53 276.359ZM194.386 271.826L193.798 268.608L190.122 270.802L190.71 274.019L194.386 271.826ZM206.885 261.15L195.121 268.023L195.71 271.241L207.473 264.368L206.885 261.15ZM189.828 274.458L189.24 271.241L185.564 273.434L186.152 276.651L189.828 274.458ZM237.028 230.002L236.44 226.493L211.737 240.824L212.325 244.333L237.028 230.002ZM241.439 240.97L237.763 243.163L238.352 246.381L242.028 244.187L241.439 240.97ZM243.939 244.333L238.499 247.55L239.087 250.768L244.527 247.55L243.939 244.333ZM253.791 228.979L237.028 238.776L237.616 241.993L254.379 232.196L253.791 228.979ZM252.468 244.187L239.234 251.938L239.822 255.155L253.056 247.404L252.468 244.187ZM238.205 262.028L235.558 263.49L236.146 266.707L238.793 265.245L238.205 262.028ZM237.469 257.641L234.823 259.103L235.411 262.32L238.058 260.858L237.469 257.641ZM236.734 253.254L234.087 254.716L234.676 257.933L237.322 256.471L236.734 253.254ZM236.293 267.877L236.881 271.094L239.528 269.632L238.94 266.415L236.293 267.877ZM257.173 249.744L256.585 246.527L252.174 249.159L252.762 252.376L257.173 249.744ZM241.292 264.952L241.881 268.17L248.645 264.221L248.056 261.004L241.292 264.952ZM247.321 256.617L247.909 259.834L258.79 253.546L258.202 250.329L247.321 256.617ZM258.79 245.211L259.379 248.428L269.377 242.578L268.789 239.361L258.79 245.211ZM260.849 248.72L261.437 251.938L265.113 249.89L264.525 246.673L260.849 248.72ZM254.673 242.871L255.261 246.088L271.142 236.875L270.554 233.658L254.673 242.871ZM235.999 248.867L233.352 250.329L233.94 253.546L236.587 252.084L235.999 248.867ZM246.292 257.348L240.557 260.712L241.145 263.929L246.88 260.565L246.292 257.348ZM250.703 259.542L251.291 262.759L255.114 260.565L254.526 257.348L250.703 259.542ZM250.85 249.89L239.822 256.325L240.41 259.542L251.438 253.107L250.85 249.89ZM211.59 301.365L212.178 304.582L229.97 294.346L229.382 291.129L211.59 301.365ZM208.796 312.479L205.856 314.234L206.444 317.451L209.384 315.696L208.796 312.479ZM201.297 312.04L192.622 317.012L193.21 320.229L201.885 315.257L201.297 312.04ZM204.973 323.008L208.649 320.961L208.061 317.743L204.385 319.791L204.973 323.008ZM199.827 317.743L200.415 320.961L204.826 318.328L204.238 315.111L199.827 317.743ZM196.298 308.969L199.974 306.776L199.386 303.559L195.71 305.752L196.298 308.969ZM217.619 288.204L213.649 290.544L214.237 293.761L218.207 291.421L217.619 288.204ZM197.915 318.913L193.357 321.546L193.945 324.763L198.503 322.131L197.915 318.913ZM209.679 302.535L191.887 312.771L192.475 315.989L210.267 305.752L209.679 302.535ZM194.974 306.191L191.298 308.384L191.887 311.602L195.563 309.408L194.974 306.191ZM194.827 330.173L195.416 333.391L202.179 329.442L201.591 326.225L194.827 330.173ZM235.411 244.479L232.764 245.942L233.352 249.159L235.999 247.697L235.411 244.479ZM202.768 311.163L203.356 314.38L224.971 301.804L224.383 298.587L202.768 311.163ZM212.178 291.421L208.208 293.761L208.796 296.978L212.766 294.638L212.178 291.421ZM234.676 240.092L232.029 241.555L232.617 244.772L235.264 243.31L234.676 240.092ZM198.503 289.812L199.092 293.03L230.705 274.604L230.117 271.387L198.503 289.812ZM210.12 316.574L210.708 319.791L216.737 316.281L216.148 313.064L210.12 316.574ZM194.092 325.933L194.68 329.15L202.915 324.324L202.327 321.107L194.092 325.933ZM204.238 324.763L204.826 327.98L211.443 324.178L210.855 320.961L204.238 324.763Z" fill="#44FFFF"/>
<path opacity="0.7" d="M198.65 352.548L196.004 354.01L196.592 357.228L199.239 355.765L198.65 352.548ZM202.915 378.724L200.268 380.186L200.856 383.404L203.503 381.941L202.915 378.724ZM204.973 391.885L202.326 393.348L202.915 396.565L205.561 395.103L204.973 391.885ZM202.179 374.337L199.533 375.799L200.121 379.017L202.768 377.554L202.179 374.337ZM200.856 365.709L198.209 367.172L198.797 370.389L201.444 368.926L200.856 365.709ZM200.121 361.322L197.474 362.784L198.062 366.002L200.709 364.539L200.121 361.322ZM201.444 370.096L198.797 371.559L199.386 374.776L202.032 373.313L201.444 370.096ZM205.708 396.272L203.062 397.735L203.65 400.952L206.297 399.49L205.708 396.272ZM204.385 387.498L201.738 388.961L202.326 392.178L204.973 390.715L204.385 387.498ZM219.089 364.539L204.532 373.021L205.12 376.238L219.677 367.756L219.089 364.539ZM212.031 373.46L205.267 377.408L205.855 380.625L212.619 376.677L212.031 373.46ZM222.765 376.823L206.738 386.182L207.326 389.399L223.353 380.04L222.765 376.823ZM214.825 362.2L203.797 368.634L204.385 371.851L215.413 365.417L214.825 362.2ZM207.179 405.047L204.532 406.509L205.12 409.726L207.767 408.264L207.179 405.047ZM206.444 400.659L203.797 402.122L204.385 405.339L207.032 403.877L206.444 400.659ZM207.767 409.434L205.12 410.896L205.708 414.113L208.355 412.651L207.767 409.434ZM205.855 415.283L206.444 418.5L209.09 417.038L208.502 413.821L205.855 415.283ZM199.386 356.935L196.739 358.397L197.327 361.615L199.974 360.152L199.386 356.935ZM236.881 357.666L240.557 355.619L239.969 352.402L236.293 354.449L236.881 357.666ZM218.942 328.273L194.239 342.604L194.827 346.114L219.53 331.783L218.942 328.273ZM203.65 367.464L207.032 365.563L206.444 362.346L203.062 364.247L203.65 367.464ZM276.729 307.215L271.583 310.286L272.171 313.503L277.318 310.432L276.729 307.215ZM213.502 353.572L202.473 360.006L203.062 363.223L214.09 356.789L213.502 353.572ZM274.083 321.692L273.494 318.475L261.29 325.641L261.878 328.858L274.083 321.692ZM286.875 292.445L286.287 288.936L261.584 303.267L262.172 306.776L286.875 292.445ZM267.172 317.451L263.349 319.645L263.937 322.862L267.76 320.669L267.172 317.451ZM258.496 322.57L259.084 325.787L262.76 323.593L262.172 320.376L258.496 322.57ZM217.325 388.229L240.851 374.483L240.263 371.266L216.736 385.012L217.325 388.229ZM221.148 362.053L220.56 358.836L216.148 361.468L216.736 364.686L221.148 362.053ZM201.003 351.232L201.591 354.449L207.326 351.086L206.738 347.868L201.003 351.232ZM233.352 355.034L232.764 351.817L222.765 357.666L223.353 360.883L233.352 355.034ZM209.826 349.623L226.735 339.825L226.147 336.608L209.237 346.406L209.826 349.623ZM235.705 358.397L235.117 355.18L220.56 363.662L221.148 366.879L235.705 358.397ZM210.561 353.864L209.973 350.647L206.297 352.84L206.885 356.058L210.561 353.864ZM223.059 343.189L211.296 350.062L211.884 353.279L223.647 346.406L223.059 343.189ZM206.002 356.643L205.414 353.425L201.738 355.619L202.326 358.836L206.002 356.643ZM253.203 312.187L252.615 308.677L227.912 323.008L228.5 326.518L253.203 312.187ZM257.614 323.008L253.938 325.202L254.526 328.419L258.202 326.226L257.614 323.008ZM260.114 326.372L254.673 329.589L255.261 332.806L260.702 329.589L260.114 326.372ZM269.965 311.163L253.203 320.961L253.791 324.178L270.554 314.381L269.965 311.163ZM268.495 326.226L255.261 333.976L255.849 337.193L269.083 329.443L268.495 326.226ZM254.379 344.066L251.732 345.529L252.32 348.746L254.967 347.284L254.379 344.066ZM253.644 339.679L250.997 341.142L251.585 344.359L254.232 342.896L253.644 339.679ZM252.909 335.292L250.262 336.755L250.85 339.972L253.497 338.509L252.909 335.292ZM252.468 349.916L253.056 353.133L255.702 351.671L255.114 348.453L252.468 349.916ZM273.2 331.783L272.612 328.565L268.201 331.198L268.789 334.415L273.2 331.783ZM257.467 347.137L258.055 350.354L264.819 346.406L264.231 343.189L257.467 347.137ZM263.496 338.802L264.084 342.019L274.965 335.731L274.377 332.514L263.496 338.802ZM274.965 327.249L275.553 330.466L285.552 324.617L284.964 321.4L274.965 327.249ZM277.023 330.905L277.612 334.122L281.288 332.075L280.699 328.858L277.023 330.905ZM270.701 324.909L271.289 328.127L287.169 318.914L286.581 315.697L270.701 324.909ZM252.173 331.051L249.527 332.514L250.115 335.731L252.762 334.269L252.173 331.051ZM262.319 339.387L256.585 342.75L257.173 345.967L262.907 342.604L262.319 339.387ZM266.878 341.58L267.466 344.798L271.289 342.604L270.701 339.387L266.878 341.58ZM267.025 331.929L255.997 338.363L256.585 341.58L267.613 335.146L267.025 331.929ZM227.765 383.404L228.353 386.621L246.145 376.384L245.557 373.167L227.765 383.404ZM224.971 394.664L222.03 396.419L222.618 399.636L225.559 397.881L224.971 394.664ZM217.472 394.225L208.796 399.197L209.384 402.414L218.06 397.442L217.472 394.225ZM221.148 405.193L224.824 403.145L224.236 399.928L220.56 401.976L221.148 405.193ZM216.001 399.928L216.589 403.145L221.001 400.513L220.412 397.296L216.001 399.928ZM212.472 391.008L216.148 388.814L215.56 385.597L211.884 387.791L212.472 391.008ZM233.793 370.389L229.823 372.728L230.411 375.946L234.381 373.606L233.793 370.389ZM214.09 400.952L209.531 403.584L210.12 406.801L214.678 404.169L214.09 400.952ZM225.853 384.574L208.061 394.81L208.649 398.027L226.441 387.791L225.853 384.574ZM211.149 388.376L207.473 390.569L208.061 393.786L211.737 391.593L211.149 388.376ZM210.855 412.358L211.443 415.575L218.207 411.627L217.619 408.41L210.855 412.358ZM251.585 326.664L248.939 328.127L249.527 331.344L252.173 329.881L251.585 326.664ZM218.942 393.348L219.53 396.565L241.145 383.989L240.557 380.771L218.942 393.348ZM228.353 373.606L224.383 375.946L224.971 379.163L228.941 376.823L228.353 373.606ZM250.85 322.277L248.203 323.74L248.791 326.957L251.438 325.494L250.85 322.277ZM214.678 371.851L215.266 375.068L246.88 356.643L246.292 353.425L214.678 371.851ZM226.294 398.612L226.882 401.829L232.911 398.32L232.323 395.103L226.294 398.612ZM210.267 407.971L210.855 411.188L219.089 406.363L218.501 403.145L210.267 407.971ZM220.265 406.948L220.854 410.165L227.47 406.363L226.882 403.145L220.265 406.948Z" fill="#44FFFF"/>
<path opacity="0.7" d="M304.813 202.073L302.166 203.535L302.755 206.752L305.401 205.29L304.813 202.073ZM309.077 228.249L306.431 229.711L307.019 232.929L309.665 231.466L309.077 228.249ZM311.136 241.41L308.489 242.873L309.077 246.09L311.724 244.627L311.136 241.41ZM308.342 223.862L305.695 225.324L306.284 228.542L308.93 227.079L308.342 223.862ZM306.872 215.088L304.225 216.55L304.813 219.767L307.46 218.305L306.872 215.088ZM306.284 210.847L303.637 212.309L304.225 215.527L306.872 214.064L306.284 210.847ZM307.607 219.475L304.96 220.937L305.548 224.154L308.195 222.692L307.607 219.475ZM311.871 245.797L309.224 247.26L309.812 250.477L312.459 249.015L311.871 245.797ZM310.401 237.023L307.754 238.486L308.342 241.703L310.989 240.24L310.401 237.023ZM325.252 214.064L310.695 222.546L311.283 225.763L325.84 217.281L325.252 214.064ZM318.194 222.985L311.43 226.933L312.018 230.15L318.782 226.202L318.194 222.985ZM328.928 226.348L312.9 235.707L313.489 238.924L329.516 229.565L328.928 226.348ZM320.988 211.724L309.96 218.159L310.548 221.376L321.576 214.942L320.988 211.724ZM313.342 254.425L310.695 255.888L311.283 259.105L313.93 257.642L313.342 254.425ZM312.606 250.184L309.96 251.647L310.548 254.864L313.194 253.402L312.606 250.184ZM313.93 258.812L311.283 260.275L311.871 263.492L314.518 262.029L313.93 258.812ZM312.018 264.808L312.606 268.025L315.253 266.563L314.665 263.346L312.018 264.808ZM305.548 206.46L302.902 207.922L303.49 211.14L306.136 209.677L305.548 206.46ZM343.044 207.191L346.72 205.144L346.132 201.927L342.456 203.974L343.044 207.191ZM325.105 177.798L300.402 192.129L300.99 195.639L325.693 181.307L325.105 177.798ZM309.812 216.989L313.194 215.088L312.606 211.871L309.224 213.772L309.812 216.989ZM382.892 156.594L377.746 159.665L378.334 162.882L383.48 159.811L382.892 156.594ZM319.664 202.95L308.636 209.385L309.224 212.602L320.252 206.168L319.664 202.95ZM380.245 171.217L379.657 168L367.453 175.166L368.041 178.383L380.245 171.217ZM393.038 141.97L392.45 138.46L367.747 152.792L368.335 156.301L393.038 141.97ZM373.334 166.976L369.511 169.17L370.099 172.387L373.923 170.194L373.334 166.976ZM364.659 172.095L365.247 175.312L368.923 173.118L368.335 169.901L364.659 172.095ZM323.487 237.754L347.014 224.008L346.426 220.791L322.899 234.537L323.487 237.754ZM327.31 211.578L326.722 208.361L322.311 210.993L322.899 214.21L327.31 211.578ZM307.166 200.611L307.754 203.828L313.489 200.464L312.9 197.247L307.166 200.611ZM339.515 204.559L338.927 201.342L328.928 207.191L329.516 210.408L339.515 204.559ZM315.988 199.002L332.898 189.204L332.31 185.987L315.4 195.785L315.988 199.002ZM341.868 207.922L341.279 204.705L326.722 213.187L327.31 216.404L341.868 207.922ZM316.723 203.389L316.135 200.172L312.459 202.365L313.047 205.583L316.723 203.389ZM329.222 192.714L317.459 199.587L318.047 202.804L329.81 195.931L329.222 192.714ZM312.165 206.021L311.577 202.804L307.901 204.998L308.489 208.215L312.165 206.021ZM359.365 161.566L358.777 158.202L334.074 172.533L334.663 176.043L359.365 161.566ZM363.777 172.533L360.101 174.727L360.689 177.944L364.365 175.751L363.777 172.533ZM366.276 175.897L360.836 179.114L361.424 182.331L366.865 179.114L366.276 175.897ZM376.128 160.688L359.365 170.486L359.954 173.703L376.716 163.905L376.128 160.688ZM374.658 175.751L361.424 183.501L362.012 186.718L375.246 178.968L374.658 175.751ZM360.542 193.591L357.895 195.054L358.483 198.271L361.13 196.808L360.542 193.591ZM359.807 189.204L357.16 190.667L357.748 193.884L360.395 192.421L359.807 189.204ZM359.071 184.817L356.425 186.279L357.013 189.497L359.66 188.034L359.071 184.817ZM358.63 199.441L359.218 202.658L361.865 201.195L361.277 197.978L358.63 199.441ZM379.363 181.307L378.775 178.09L374.364 180.723L374.952 183.94L379.363 181.307ZM363.63 196.516L364.218 199.733L370.982 195.785L370.394 192.568L363.63 196.516ZM369.658 188.181L370.247 191.398L381.128 185.11L380.539 181.892L369.658 188.181ZM381.128 176.774L381.716 179.991L391.715 174.142L391.126 170.925L381.128 176.774ZM383.186 180.43L383.774 183.647L387.45 181.6L386.862 178.383L383.186 180.43ZM376.863 174.434L377.452 177.652L393.332 168.439L392.744 165.222L376.863 174.434ZM358.336 180.43L355.689 181.892L356.278 185.11L358.924 183.647L358.336 180.43ZM368.482 188.912L362.747 192.275L363.336 195.492L369.07 192.129L368.482 188.912ZM373.04 191.105L373.628 194.322L377.452 192.129L376.863 188.912L373.04 191.105ZM373.187 181.454L362.159 187.888L362.747 191.105L373.776 184.671L373.187 181.454ZM333.927 232.929L334.515 236.146L352.307 225.909L351.719 222.692L333.927 232.929ZM331.134 244.189L328.193 245.944L328.781 249.161L331.722 247.406L331.134 244.189ZM323.634 243.75L314.959 248.722L315.547 251.939L324.223 246.967L323.634 243.75ZM327.31 254.718L330.986 252.67L330.398 249.453L326.722 251.501L327.31 254.718ZM322.164 249.307L322.752 252.524L327.163 249.892L326.575 246.675L322.164 249.307ZM318.635 240.533L322.311 238.339L321.723 235.122L318.047 237.316L318.635 240.533ZM339.956 219.914L335.986 222.253L336.574 225.471L340.544 223.131L339.956 219.914ZM320.252 250.477L315.694 253.109L316.282 256.326L320.841 253.694L320.252 250.477ZM332.016 234.098L314.224 244.335L314.812 247.552L332.604 237.316L332.016 234.098ZM317.312 237.901L313.636 240.094L314.224 243.311L317.9 241.118L317.312 237.901ZM317.018 261.883L317.606 265.1L324.37 261.152L323.781 257.935L317.018 261.883ZM357.748 176.043L355.101 177.505L355.689 180.723L358.336 179.26L357.748 176.043ZM325.105 242.873L325.693 246.09L347.308 233.514L346.72 230.296L325.105 242.873ZM334.515 222.985L330.545 225.324L331.134 228.542L335.104 226.202L334.515 222.985ZM357.013 171.802L354.366 173.265L354.954 176.482L357.601 175.019L357.013 171.802ZM320.841 221.376L321.429 224.593L353.043 206.168L352.455 202.95L320.841 221.376ZM332.457 248.137L333.045 251.354L339.074 247.845L338.486 244.627L332.457 248.137ZM316.429 257.496L317.018 260.713L325.252 255.888L324.664 252.67L316.429 257.496ZM326.428 256.326L327.016 259.543L333.633 255.741L333.045 252.524L326.428 256.326Z" fill="#44FFFF"/>
<path d="M258.391 245.397L527.183 91.1189C530.712 89.0716 535.123 91.1189 536.005 95.0672L571.736 267.333C572.325 269.819 571.148 272.451 568.943 273.621L300.004 428.045C296.475 430.093 292.064 428.045 291.182 424.097L255.598 251.685C255.009 249.199 256.186 246.713 258.391 245.397Z" fill="url(#paint49_linear)"/>
<g opacity="0.7">
<path opacity="0.7" d="M321.471 379.789L542.474 254.758L529.828 188.513L308.825 313.691L321.471 379.789Z" fill="#44FFFF"/>
<path opacity="0.7" d="M368.965 299.505L330.147 321.44L327.941 309.742L366.76 287.806L368.965 299.505Z" fill="white"/>
<path opacity="0.7" d="M372.497 318.075L333.678 340.011L331.472 328.312L370.291 306.376L372.497 318.075Z" fill="white"/>
<path opacity="0.7" d="M376.024 336.65L337.352 358.585L335.146 347.032L373.818 324.951L376.024 336.65Z" fill="white"/>
<path opacity="0.7" d="M516.889 207.521L388.227 280.347L387.345 276.106L516.006 203.427L516.889 207.521Z" fill="white"/>
<path opacity="0.7" d="M518.654 217.027L389.993 289.852L389.258 285.612L517.772 212.932L518.654 217.027Z" fill="white"/>
<path opacity="0.7" d="M520.419 226.679L391.758 299.358L391.023 295.117L519.684 222.438L520.419 226.679Z" fill="white"/>
<path opacity="0.7" d="M522.329 236.185L393.668 308.864L392.786 304.623L521.447 231.944L522.329 236.185Z" fill="white"/>
<path opacity="0.7" d="M524.095 245.69L395.434 318.369L394.698 314.129L523.36 241.45L524.095 245.69Z" fill="white"/>
<path opacity="0.7" d="M526.006 255.194L397.345 327.874L396.463 323.633L525.124 250.954L526.006 255.194Z" fill="white"/>
<path opacity="0.7" d="M531.007 180.613L305.004 308.423L302.946 297.748L528.948 169.938L531.007 180.613Z" fill="#44FFFF"/>
<path opacity="0.7" d="M330.44 291.607L309.413 303.452L308.237 297.31L329.264 285.465L330.44 291.607Z" fill="white"/>
<path opacity="0.7" d="M525.859 178.567L457.485 217.173L457.191 215.711L525.565 176.959L525.859 178.567Z" fill="white"/>
</g>
<defs>
<linearGradient id="paint0_linear" x1="54.9684" y1="173.638" x2="139.814" y2="187.781" gradientUnits="userSpaceOnUse">
<stop stop-color="#010333" stop-opacity="0"/>
<stop offset="0.0219492" stop-color="#013A60" stop-opacity="0.1164"/>
<stop offset="0.0454485" stop-color="#016E8A" stop-opacity="0.241"/>
<stop offset="0.0693917" stop-color="#019AAE" stop-opacity="0.3679"/>
<stop offset="0.0932879" stop-color="#01BFCB" stop-opacity="0.4946"/>
<stop offset="0.1172" stop-color="#01DBE2" stop-opacity="0.6211"/>
<stop offset="0.141" stop-color="#01EFF2" stop-opacity="0.7475"/>
<stop offset="0.1648" stop-color="#01FBFC" stop-opacity="0.8738"/>
<stop offset="0.1886" stop-color="#01FFFF"/>
<stop offset="0.4789" stop-color="#7659FF" stop-opacity="0.9"/>
<stop offset="0.4793" stop-color="#7659FF" stop-opacity="0.9001"/>
<stop offset="1" stop-color="#7659FF"/>
</linearGradient>
<linearGradient id="paint1_linear" x1="66.4917" y1="168.802" x2="144.306" y2="191.827" gradientUnits="userSpaceOnUse">
<stop stop-color="#010333" stop-opacity="0"/>
<stop offset="0.0219492" stop-color="#013A60" stop-opacity="0.1164"/>
<stop offset="0.0454485" stop-color="#016E8A" stop-opacity="0.241"/>
<stop offset="0.0693917" stop-color="#019AAE" stop-opacity="0.3679"/>
<stop offset="0.0932879" stop-color="#01BFCB" stop-opacity="0.4946"/>
<stop offset="0.1172" stop-color="#01DBE2" stop-opacity="0.6211"/>
<stop offset="0.141" stop-color="#01EFF2" stop-opacity="0.7475"/>
<stop offset="0.1648" stop-color="#01FBFC" stop-opacity="0.8738"/>
<stop offset="0.1886" stop-color="#01FFFF"/>
<stop offset="0.4789" stop-color="#7659FF" stop-opacity="0.9"/>
<stop offset="0.4793" stop-color="#7659FF" stop-opacity="0.9001"/>
<stop offset="1" stop-color="#7659FF"/>
</linearGradient>
<linearGradient id="paint2_linear" x1="43.1194" y1="179.159" x2="106.873" y2="211.684" gradientUnits="userSpaceOnUse">
<stop stop-color="#010333" stop-opacity="0"/>
<stop offset="0.0219492" stop-color="#013A60" stop-opacity="0.1164"/>
<stop offset="0.0454485" stop-color="#016E8A" stop-opacity="0.241"/>
<stop offset="0.0693917" stop-color="#019AAE" stop-opacity="0.3679"/>
<stop offset="0.0932879" stop-color="#01BFCB" stop-opacity="0.4946"/>
<stop offset="0.1172" stop-color="#01DBE2" stop-opacity="0.6211"/>
<stop offset="0.141" stop-color="#01EFF2" stop-opacity="0.7475"/>
<stop offset="0.1648" stop-color="#01FBFC" stop-opacity="0.8738"/>
<stop offset="0.1886" stop-color="#01FFFF"/>
<stop offset="0.4789" stop-color="#7659FF" stop-opacity="0.9"/>
<stop offset="0.4793" stop-color="#7659FF" stop-opacity="0.9001"/>
<stop offset="1" stop-color="#7659FF"/>
</linearGradient>
<linearGradient id="paint3_linear" x1="91.8891" y1="158.692" x2="176.735" y2="172.835" gradientUnits="userSpaceOnUse">
<stop stop-color="#010333" stop-opacity="0"/>
<stop offset="0.0219492" stop-color="#013A60" stop-opacity="0.1164"/>
<stop offset="0.0454485" stop-color="#016E8A" stop-opacity="0.241"/>
<stop offset="0.0693917" stop-color="#019AAE" stop-opacity="0.3679"/>
<stop offset="0.0932879" stop-color="#01BFCB" stop-opacity="0.4946"/>
<stop offset="0.1172" stop-color="#01DBE2" stop-opacity="0.6211"/>
<stop offset="0.141" stop-color="#01EFF2" stop-opacity="0.7475"/>
<stop offset="0.1648" stop-color="#01FBFC" stop-opacity="0.8738"/>
<stop offset="0.1886" stop-color="#01FFFF"/>
<stop offset="0.4789" stop-color="#7659FF" stop-opacity="0.9"/>
<stop offset="0.4793" stop-color="#7659FF" stop-opacity="0.9001"/>
<stop offset="1" stop-color="#7659FF"/>
</linearGradient>
<linearGradient id="paint4_linear" x1="103.408" y1="153.86" x2="181.222" y2="176.885" gradientUnits="userSpaceOnUse">
<stop stop-color="#010333" stop-opacity="0"/>
<stop offset="0.0219492" stop-color="#013A60" stop-opacity="0.1164"/>
<stop offset="0.0454485" stop-color="#016E8A" stop-opacity="0.241"/>
<stop offset="0.0693917" stop-color="#019AAE" stop-opacity="0.3679"/>
<stop offset="0.0932879" stop-color="#01BFCB" stop-opacity="0.4946"/>
<stop offset="0.1172" stop-color="#01DBE2" stop-opacity="0.6211"/>
<stop offset="0.141" stop-color="#01EFF2" stop-opacity="0.7475"/>
<stop offset="0.1648" stop-color="#01FBFC" stop-opacity="0.8738"/>
<stop offset="0.1886" stop-color="#01FFFF"/>
<stop offset="0.4789" stop-color="#7659FF" stop-opacity="0.9"/>
<stop offset="0.4793" stop-color="#7659FF" stop-opacity="0.9001"/>
<stop offset="1" stop-color="#7659FF"/>
</linearGradient>
<linearGradient id="paint5_linear" x1="80.0377" y1="164.213" x2="143.792" y2="196.739" gradientUnits="userSpaceOnUse">
<stop stop-color="#010333" stop-opacity="0"/>
<stop offset="0.0219492" stop-color="#013A60" stop-opacity="0.1164"/>
<stop offset="0.0454485" stop-color="#016E8A" stop-opacity="0.241"/>
<stop offset="0.0693917" stop-color="#019AAE" stop-opacity="0.3679"/>
<stop offset="0.0932879" stop-color="#01BFCB" stop-opacity="0.4946"/>
<stop offset="0.1172" stop-color="#01DBE2" stop-opacity="0.6211"/>
<stop offset="0.141" stop-color="#01EFF2" stop-opacity="0.7475"/>
<stop offset="0.1648" stop-color="#01FBFC" stop-opacity="0.8738"/>
<stop offset="0.1886" stop-color="#01FFFF"/>
<stop offset="0.4789" stop-color="#7659FF" stop-opacity="0.9"/>
<stop offset="0.4793" stop-color="#7659FF" stop-opacity="0.9001"/>
<stop offset="1" stop-color="#7659FF"/>
</linearGradient>
<linearGradient id="paint6_linear" x1="128.807" y1="143.747" x2="213.653" y2="157.89" gradientUnits="userSpaceOnUse">
<stop stop-color="#010333" stop-opacity="0"/>
<stop offset="0.0219492" stop-color="#013A60" stop-opacity="0.1164"/>
<stop offset="0.0454485" stop-color="#016E8A" stop-opacity="0.241"/>
<stop offset="0.0693917" stop-color="#019AAE" stop-opacity="0.3679"/>
<stop offset="0.0932879" stop-color="#01BFCB" stop-opacity="0.4946"/>
<stop offset="0.1172" stop-color="#01DBE2" stop-opacity="0.6211"/>
<stop offset="0.141" stop-color="#01EFF2" stop-opacity="0.7475"/>
<stop offset="0.1648" stop-color="#01FBFC" stop-opacity="0.8738"/>
<stop offset="0.1886" stop-color="#01FFFF"/>
<stop offset="0.4789" stop-color="#7659FF" stop-opacity="0.9"/>
<stop offset="0.4793" stop-color="#7659FF" stop-opacity="0.9001"/>
<stop offset="1" stop-color="#7659FF"/>
</linearGradient>
<linearGradient id="paint7_linear" x1="140.327" y1="138.911" x2="218.141" y2="161.936" gradientUnits="userSpaceOnUse">
<stop stop-color="#010333" stop-opacity="0"/>
<stop offset="0.0219492" stop-color="#013A60" stop-opacity="0.1164"/>
<stop offset="0.0454485" stop-color="#016E8A" stop-opacity="0.241"/>
<stop offset="0.0693917" stop-color="#019AAE" stop-opacity="0.3679"/>
<stop offset="0.0932879" stop-color="#01BFCB" stop-opacity="0.4946"/>
<stop offset="0.1172" stop-color="#01DBE2" stop-opacity="0.6211"/>
<stop offset="0.141" stop-color="#01EFF2" stop-opacity="0.7475"/>
<stop offset="0.1648" stop-color="#01FBFC" stop-opacity="0.8738"/>
<stop offset="0.1886" stop-color="#01FFFF"/>
<stop offset="0.4789" stop-color="#7659FF" stop-opacity="0.9"/>
<stop offset="0.4793" stop-color="#7659FF" stop-opacity="0.9001"/>
<stop offset="1" stop-color="#7659FF"/>
</linearGradient>
<linearGradient id="paint8_linear" x1="116.956" y1="149.268" x2="180.71" y2="181.793" gradientUnits="userSpaceOnUse">
<stop stop-color="#010333" stop-opacity="0"/>
<stop offset="0.0219492" stop-color="#013A60" stop-opacity="0.1164"/>
<stop offset="0.0454485" stop-color="#016E8A" stop-opacity="0.241"/>
<stop offset="0.0693917" stop-color="#019AAE" stop-opacity="0.3679"/>
<stop offset="0.0932879" stop-color="#01BFCB" stop-opacity="0.4946"/>
<stop offset="0.1172" stop-color="#01DBE2" stop-opacity="0.6211"/>
<stop offset="0.141" stop-color="#01EFF2" stop-opacity="0.7475"/>
<stop offset="0.1648" stop-color="#01FBFC" stop-opacity="0.8738"/>
<stop offset="0.1886" stop-color="#01FFFF"/>
<stop offset="0.4789" stop-color="#7659FF" stop-opacity="0.9"/>
<stop offset="0.4793" stop-color="#7659FF" stop-opacity="0.9001"/>
<stop offset="1" stop-color="#7659FF"/>
</linearGradient>
<linearGradient id="paint9_linear" x1="165.723" y1="128.799" x2="250.569" y2="142.942" gradientUnits="userSpaceOnUse">
<stop stop-color="#010333" stop-opacity="0"/>
<stop offset="0.0219492" stop-color="#013A60" stop-opacity="0.1164"/>
<stop offset="0.0454485" stop-color="#016E8A" stop-opacity="0.241"/>
<stop offset="0.0693917" stop-color="#019AAE" stop-opacity="0.3679"/>
<stop offset="0.0932879" stop-color="#01BFCB" stop-opacity="0.4946"/>
<stop offset="0.1172" stop-color="#01DBE2" stop-opacity="0.6211"/>
<stop offset="0.141" stop-color="#01EFF2" stop-opacity="0.7475"/>
<stop offset="0.1648" stop-color="#01FBFC" stop-opacity="0.8738"/>
<stop offset="0.1886" stop-color="#01FFFF"/>
<stop offset="0.4789" stop-color="#7659FF" stop-opacity="0.9"/>
<stop offset="0.4793" stop-color="#7659FF" stop-opacity="0.9001"/>
<stop offset="1" stop-color="#7659FF"/>
</linearGradient>
<linearGradient id="paint10_linear" x1="177.245" y1="123.964" x2="255.059" y2="146.989" gradientUnits="userSpaceOnUse">
<stop stop-color="#010333" stop-opacity="0"/>
<stop offset="0.0219492" stop-color="#013A60" stop-opacity="0.1164"/>
<stop offset="0.0454485" stop-color="#016E8A" stop-opacity="0.241"/>
<stop offset="0.0693917" stop-color="#019AAE" stop-opacity="0.3679"/>
<stop offset="0.0932879" stop-color="#01BFCB" stop-opacity="0.4946"/>
<stop offset="0.1172" stop-color="#01DBE2" stop-opacity="0.6211"/>
<stop offset="0.141" stop-color="#01EFF2" stop-opacity="0.7475"/>
<stop offset="0.1648" stop-color="#01FBFC" stop-opacity="0.8738"/>
<stop offset="0.1886" stop-color="#01FFFF"/>
<stop offset="0.4789" stop-color="#7659FF" stop-opacity="0.9"/>
<stop offset="0.4793" stop-color="#7659FF" stop-opacity="0.9001"/>
<stop offset="1" stop-color="#7659FF"/>
</linearGradient>
<linearGradient id="paint11_linear" x1="153.874" y1="134.322" x2="217.628" y2="166.847" gradientUnits="userSpaceOnUse">
<stop stop-color="#010333" stop-opacity="0"/>
<stop offset="0.0219492" stop-color="#013A60" stop-opacity="0.1164"/>
<stop offset="0.0454485" stop-color="#016E8A" stop-opacity="0.241"/>
<stop offset="0.0693917" stop-color="#019AAE" stop-opacity="0.3679"/>
<stop offset="0.0932879" stop-color="#01BFCB" stop-opacity="0.4946"/>
<stop offset="0.1172" stop-color="#01DBE2" stop-opacity="0.6211"/>
<stop offset="0.141" stop-color="#01EFF2" stop-opacity="0.7475"/>
<stop offset="0.1648" stop-color="#01FBFC" stop-opacity="0.8738"/>
<stop offset="0.1886" stop-color="#01FFFF"/>
<stop offset="0.4789" stop-color="#7659FF" stop-opacity="0.9"/>
<stop offset="0.4793" stop-color="#7659FF" stop-opacity="0.9001"/>
<stop offset="1" stop-color="#7659FF"/>
</linearGradient>
<linearGradient id="paint12_linear" x1="202.64" y1="113.855" x2="287.486" y2="127.997" gradientUnits="userSpaceOnUse">
<stop stop-color="#010333" stop-opacity="0"/>
<stop offset="0.0219492" stop-color="#013A60" stop-opacity="0.1164"/>
<stop offset="0.0454485" stop-color="#016E8A" stop-opacity="0.241"/>
<stop offset="0.0693917" stop-color="#019AAE" stop-opacity="0.3679"/>
<stop offset="0.0932879" stop-color="#01BFCB" stop-opacity="0.4946"/>
<stop offset="0.1172" stop-color="#01DBE2" stop-opacity="0.6211"/>
<stop offset="0.141" stop-color="#01EFF2" stop-opacity="0.7475"/>
<stop offset="0.1648" stop-color="#01FBFC" stop-opacity="0.8738"/>
<stop offset="0.1886" stop-color="#01FFFF"/>
<stop offset="0.4789" stop-color="#7659FF" stop-opacity="0.9"/>
<stop offset="0.4793" stop-color="#7659FF" stop-opacity="0.9001"/>
<stop offset="1" stop-color="#7659FF"/>
</linearGradient>
<linearGradient id="paint13_linear" x1="214.162" y1="109.019" x2="291.977" y2="132.044" gradientUnits="userSpaceOnUse">
<stop stop-color="#010333" stop-opacity="0"/>
<stop offset="0.0219492" stop-color="#013A60" stop-opacity="0.1164"/>
<stop offset="0.0454485" stop-color="#016E8A" stop-opacity="0.241"/>
<stop offset="0.0693917" stop-color="#019AAE" stop-opacity="0.3679"/>
<stop offset="0.0932879" stop-color="#01BFCB" stop-opacity="0.4946"/>
<stop offset="0.1172" stop-color="#01DBE2" stop-opacity="0.6211"/>
<stop offset="0.141" stop-color="#01EFF2" stop-opacity="0.7475"/>
<stop offset="0.1648" stop-color="#01FBFC" stop-opacity="0.8738"/>
<stop offset="0.1886" stop-color="#01FFFF"/>
<stop offset="0.4789" stop-color="#7659FF" stop-opacity="0.9"/>
<stop offset="0.4793" stop-color="#7659FF" stop-opacity="0.9001"/>
<stop offset="1" stop-color="#7659FF"/>
</linearGradient>
<linearGradient id="paint14_linear" x1="190.791" y1="119.376" x2="254.545" y2="151.901" gradientUnits="userSpaceOnUse">
<stop stop-color="#010333" stop-opacity="0"/>
<stop offset="0.0219492" stop-color="#013A60" stop-opacity="0.1164"/>
<stop offset="0.0454485" stop-color="#016E8A" stop-opacity="0.241"/>
<stop offset="0.0693917" stop-color="#019AAE" stop-opacity="0.3679"/>
<stop offset="0.0932879" stop-color="#01BFCB" stop-opacity="0.4946"/>
<stop offset="0.1172" stop-color="#01DBE2" stop-opacity="0.6211"/>
<stop offset="0.141" stop-color="#01EFF2" stop-opacity="0.7475"/>
<stop offset="0.1648" stop-color="#01FBFC" stop-opacity="0.8738"/>
<stop offset="0.1886" stop-color="#01FFFF"/>
<stop offset="0.4789" stop-color="#7659FF" stop-opacity="0.9"/>
<stop offset="0.4793" stop-color="#7659FF" stop-opacity="0.9001"/>
<stop offset="1" stop-color="#7659FF"/>
</linearGradient>
<linearGradient id="paint15_linear" x1="23.2235" y1="419.772" x2="569.941" y2="419.772" gradientUnits="userSpaceOnUse">
<stop stop-color="#E90000"/>
<stop offset="0.2547" stop-color="#010333" stop-opacity="0"/>
<stop offset="0.5132" stop-color="#010333" stop-opacity="0"/>
<stop offset="0.5168" stop-color="#040332" stop-opacity="0.01"/>
<stop offset="0.6182" stop-color="#480223" stop-opacity="0.2202"/>
<stop offset="0.7141" stop-color="#820117" stop-opacity="0.4214"/>
<stop offset="0.8018" stop-color="#AE010D" stop-opacity="0.6056"/>
<stop offset="0.8798" stop-color="#CE0006" stop-opacity="0.7693"/>
<stop offset="0.9451" stop-color="#E20002" stop-opacity="0.9063"/>
<stop offset="0.9898" stop-color="#E90000"/>
</linearGradient>
<linearGradient id="paint16_linear" x1="24.5101" y1="419.772" x2="568.655" y2="419.772" gradientUnits="userSpaceOnUse">
<stop stop-color="#FFEF3F"/>
<stop offset="0.0655497" stop-color="#FBEB3F" stop-opacity="0.8743"/>
<stop offset="0.1311" stop-color="#EFE03E" stop-opacity="0.7485"/>
<stop offset="0.1968" stop-color="#DBCD3D" stop-opacity="0.6226"/>
<stop offset="0.2625" stop-color="#BFB33C" stop-opacity="0.4966"/>
<stop offset="0.3283" stop-color="#9A923A" stop-opacity="0.3704"/>
<stop offset="0.3942" stop-color="#6E6838" stop-opacity="0.244"/>
<stop offset="0.4589" stop-color="#3A3836" stop-opacity="0.1199"/>
<stop offset="0.5214" stop-color="#010333" stop-opacity="0"/>
<stop offset="0.8117" stop-color="#FFEF3F"/>
<stop offset="0.8354" stop-color="#FBEB3F" stop-opacity="0.8743"/>
<stop offset="0.8591" stop-color="#EFE03E" stop-opacity="0.7485"/>
<stop offset="0.8828" stop-color="#DBCD3D" stop-opacity="0.6226"/>
<stop offset="0.9065" stop-color="#BFB33C" stop-opacity="0.4966"/>
<stop offset="0.9303" stop-color="#9A923A" stop-opacity="0.3704"/>
<stop offset="0.9541" stop-color="#6E6838" stop-opacity="0.244"/>
<stop offset="0.9774" stop-color="#3A3836" stop-opacity="0.1199"/>
<stop offset="1" stop-color="#010333" stop-opacity="0"/>
</linearGradient>
<radialGradient id="paint17_radial" cx="0" cy="0" r="1" gradientUnits="userSpaceOnUse" gradientTransform="translate(563.066 445.173) scale(24.6933 24.5579)">
<stop offset="0.0102465" stop-color="#E90000"/>
<stop offset="0.0910464" stop-color="#E20002" stop-opacity="0.9063"/>
<stop offset="0.2092" stop-color="#CE0006" stop-opacity="0.7693"/>
<stop offset="0.3503" stop-color="#AE010D" stop-opacity="0.6056"/>
<stop offset="0.5091" stop-color="#820117" stop-opacity="0.4214"/>
<stop offset="0.6826" stop-color="#480223" stop-opacity="0.2202"/>
<stop offset="0.866" stop-color="#040332" stop-opacity="0.01"/>
<stop offset="0.8725" stop-color="#010333" stop-opacity="0"/>
</radialGradient>
<radialGradient id="paint18_radial" cx="0" cy="0" r="1" gradientUnits="userSpaceOnUse" gradientTransform="translate(563.064 445.174) scale(8.79395 8.74577)">
<stop offset="0.0105999" stop-color="#FFEF3F"/>
<stop offset="0.1232" stop-color="#FBEB3F" stop-opacity="0.8743"/>
<stop offset="0.2359" stop-color="#EFE03E" stop-opacity="0.7485"/>
<stop offset="0.3487" stop-color="#DBCD3D" stop-opacity="0.6226"/>
<stop offset="0.4616" stop-color="#BFB33C" stop-opacity="0.4966"/>
<stop offset="0.5747" stop-color="#9A923A" stop-opacity="0.3704"/>
<stop offset="0.6879" stop-color="#6E6838" stop-opacity="0.244"/>
<stop offset="0.7991" stop-color="#3A3836" stop-opacity="0.1199"/>
<stop offset="0.9065" stop-color="#010333" stop-opacity="0"/>
</radialGradient>
<radialGradient id="paint19_radial" cx="0" cy="0" r="1" gradientUnits="userSpaceOnUse" gradientTransform="translate(24.6932 431.792) scale(24.6932 24.5579)">
<stop offset="0.0102465" stop-color="#E90000"/>
<stop offset="0.0910464" stop-color="#E20002" stop-opacity="0.9063"/>
<stop offset="0.2092" stop-color="#CE0006" stop-opacity="0.7693"/>
<stop offset="0.3503" stop-color="#AE010D" stop-opacity="0.6056"/>
<stop offset="0.5091" stop-color="#820117" stop-opacity="0.4214"/>
<stop offset="0.6826" stop-color="#480223" stop-opacity="0.2202"/>
<stop offset="0.866" stop-color="#040332" stop-opacity="0.01"/>
<stop offset="0.8725" stop-color="#010333" stop-opacity="0"/>
</radialGradient>
<radialGradient id="paint20_radial" cx="0" cy="0" r="1" gradientUnits="userSpaceOnUse" gradientTransform="translate(24.6902 431.792) scale(8.79395 8.74577)">
<stop offset="0.0105999" stop-color="#FFEF3F"/>
<stop offset="0.1232" stop-color="#FBEB3F" stop-opacity="0.8743"/>
<stop offset="0.2359" stop-color="#EFE03E" stop-opacity="0.7485"/>
<stop offset="0.3487" stop-color="#DBCD3D" stop-opacity="0.6226"/>
<stop offset="0.4616" stop-color="#BFB33C" stop-opacity="0.4966"/>
<stop offset="0.5747" stop-color="#9A923A" stop-opacity="0.3704"/>
<stop offset="0.6879" stop-color="#6E6838" stop-opacity="0.244"/>
<stop offset="0.7991" stop-color="#3A3836" stop-opacity="0.1199"/>
<stop offset="0.9065" stop-color="#010333" stop-opacity="0"/>
</radialGradient>
<linearGradient id="paint21_linear" x1="23.2235" y1="400.26" x2="569.941" y2="400.26" gradientUnits="userSpaceOnUse">
<stop stop-color="#E90000"/>
<stop offset="0.2547" stop-color="#010333" stop-opacity="0"/>
<stop offset="0.5132" stop-color="#010333" stop-opacity="0"/>
<stop offset="0.5168" stop-color="#040332" stop-opacity="0.01"/>
<stop offset="0.6182" stop-color="#480223" stop-opacity="0.2202"/>
<stop offset="0.7141" stop-color="#820117" stop-opacity="0.4214"/>
<stop offset="0.8018" stop-color="#AE010D" stop-opacity="0.6056"/>
<stop offset="0.8798" stop-color="#CE0006" stop-opacity="0.7693"/>
<stop offset="0.9451" stop-color="#E20002" stop-opacity="0.9063"/>
<stop offset="0.9898" stop-color="#E90000"/>
</linearGradient>
<linearGradient id="paint22_linear" x1="24.5101" y1="400.26" x2="568.655" y2="400.26" gradientUnits="userSpaceOnUse">
<stop stop-color="#FFEF3F"/>
<stop offset="0.0655497" stop-color="#FBEB3F" stop-opacity="0.8743"/>
<stop offset="0.1311" stop-color="#EFE03E" stop-opacity="0.7485"/>
<stop offset="0.1968" stop-color="#DBCD3D" stop-opacity="0.6226"/>
<stop offset="0.2625" stop-color="#BFB33C" stop-opacity="0.4966"/>
<stop offset="0.3283" stop-color="#9A923A" stop-opacity="0.3704"/>
<stop offset="0.3942" stop-color="#6E6838" stop-opacity="0.244"/>
<stop offset="0.4589" stop-color="#3A3836" stop-opacity="0.1199"/>
<stop offset="0.5214" stop-color="#010333" stop-opacity="0"/>
<stop offset="0.8117" stop-color="#FFEF3F"/>
<stop offset="0.8354" stop-color="#FBEB3F" stop-opacity="0.8743"/>
<stop offset="0.8591" stop-color="#EFE03E" stop-opacity="0.7485"/>
<stop offset="0.8828" stop-color="#DBCD3D" stop-opacity="0.6226"/>
<stop offset="0.9065" stop-color="#BFB33C" stop-opacity="0.4966"/>
<stop offset="0.9303" stop-color="#9A923A" stop-opacity="0.3704"/>
<stop offset="0.9541" stop-color="#6E6838" stop-opacity="0.244"/>
<stop offset="0.9774" stop-color="#3A3836" stop-opacity="0.1199"/>
<stop offset="1" stop-color="#010333" stop-opacity="0"/>
</linearGradient>
<radialGradient id="paint23_radial" cx="0" cy="0" r="1" gradientUnits="userSpaceOnUse" gradientTransform="translate(547.407 335.344) scale(24.6932 24.5579)">
<stop offset="0.0102465" stop-color="#E90000"/>
<stop offset="0.0910464" stop-color="#E20002" stop-opacity="0.9063"/>
<stop offset="0.2092" stop-color="#CE0006" stop-opacity="0.7693"/>
<stop offset="0.3503" stop-color="#AE010D" stop-opacity="0.6056"/>
<stop offset="0.5091" stop-color="#820117" stop-opacity="0.4214"/>
<stop offset="0.6826" stop-color="#480223" stop-opacity="0.2202"/>
<stop offset="0.866" stop-color="#040332" stop-opacity="0.01"/>
<stop offset="0.8725" stop-color="#010333" stop-opacity="0"/>
</radialGradient>
<radialGradient id="paint24_radial" cx="0" cy="0" r="1" gradientUnits="userSpaceOnUse" gradientTransform="translate(547.408 335.343) scale(8.79392 8.7458)">
<stop offset="0.0105999" stop-color="#FFEF3F"/>
<stop offset="0.1232" stop-color="#FBEB3F" stop-opacity="0.8743"/>
<stop offset="0.2359" stop-color="#EFE03E" stop-opacity="0.7485"/>
<stop offset="0.3487" stop-color="#DBCD3D" stop-opacity="0.6226"/>
<stop offset="0.4616" stop-color="#BFB33C" stop-opacity="0.4966"/>
<stop offset="0.5747" stop-color="#9A923A" stop-opacity="0.3704"/>
<stop offset="0.6879" stop-color="#6E6838" stop-opacity="0.244"/>
<stop offset="0.7991" stop-color="#3A3836" stop-opacity="0.1199"/>
<stop offset="0.9065" stop-color="#010333" stop-opacity="0"/>
</radialGradient>
<radialGradient id="paint25_radial" cx="0" cy="0" r="1" gradientUnits="userSpaceOnUse" gradientTransform="translate(58.0313 471.985) scale(24.6932 24.5579)">
<stop offset="0.0102465" stop-color="#E90000"/>
<stop offset="0.0910464" stop-color="#E20002" stop-opacity="0.9063"/>
<stop offset="0.2092" stop-color="#CE0006" stop-opacity="0.7693"/>
<stop offset="0.3503" stop-color="#AE010D" stop-opacity="0.6056"/>
<stop offset="0.5091" stop-color="#820117" stop-opacity="0.4214"/>
<stop offset="0.6826" stop-color="#480223" stop-opacity="0.2202"/>
<stop offset="0.866" stop-color="#040332" stop-opacity="0.01"/>
<stop offset="0.8725" stop-color="#010333" stop-opacity="0"/>
</radialGradient>
<radialGradient id="paint26_radial" cx="0" cy="0" r="1" gradientUnits="userSpaceOnUse" gradientTransform="translate(58.031 471.986) scale(8.79395 8.74574)">
<stop offset="0.0105999" stop-color="#FFEF3F"/>
<stop offset="0.1232" stop-color="#FBEB3F" stop-opacity="0.8743"/>
<stop offset="0.2359" stop-color="#EFE03E" stop-opacity="0.7485"/>
<stop offset="0.3487" stop-color="#DBCD3D" stop-opacity="0.6226"/>
<stop offset="0.4616" stop-color="#BFB33C" stop-opacity="0.4966"/>
<stop offset="0.5747" stop-color="#9A923A" stop-opacity="0.3704"/>
<stop offset="0.6879" stop-color="#6E6838" stop-opacity="0.244"/>
<stop offset="0.7991" stop-color="#3A3836" stop-opacity="0.1199"/>
<stop offset="0.9065" stop-color="#010333" stop-opacity="0"/>
</radialGradient>
<radialGradient id="paint27_radial" cx="0" cy="0" r="1" gradientUnits="userSpaceOnUse" gradientTransform="translate(365.964 448.206) rotate(-64.9822) scale(64.9144 116.888)">
<stop stop-color="#01FFFF"/>
<stop offset="1" stop-color="#010333" stop-opacity="0"/>
</radialGradient>
<radialGradient id="paint28_radial" cx="0" cy="0" r="1" gradientUnits="userSpaceOnUse" gradientTransform="translate(367.9 505.37) rotate(-29.8646) scale(30.6108 26.4371)">
<stop stop-color="#15FF5F"/>
<stop offset="0.0695569" stop-color="#13E95B" stop-opacity="0.9304"/>
<stop offset="0.333" stop-color="#0D984D" stop-opacity="0.6667"/>
<stop offset="0.5669" stop-color="#085842" stop-opacity="0.4325"/>
<stop offset="0.7626" stop-color="#042A3A" stop-opacity="0.2367"/>
<stop offset="0.9126" stop-color="#020E35" stop-opacity="0.0864705"/>
<stop offset="0.999" stop-color="#010333" stop-opacity="0"/>
</radialGradient>
<radialGradient id="paint29_radial" cx="0" cy="0" r="1" gradientUnits="userSpaceOnUse" gradientTransform="translate(367.901 505.371) rotate(-29.8645) scale(10.9015 9.41507)">
<stop stop-color="#15FF5F"/>
<stop offset="0.0695569" stop-color="#13E95B" stop-opacity="0.9304"/>
<stop offset="0.333" stop-color="#0D984D" stop-opacity="0.6667"/>
<stop offset="0.5669" stop-color="#085842" stop-opacity="0.4325"/>
<stop offset="0.7626" stop-color="#042A3A" stop-opacity="0.2367"/>
<stop offset="0.9126" stop-color="#020E35" stop-opacity="0.0864705"/>
<stop offset="0.999" stop-color="#010333" stop-opacity="0"/>
</radialGradient>
<radialGradient id="paint30_radial" cx="0" cy="0" r="1" gradientUnits="userSpaceOnUse" gradientTransform="translate(480.395 440.776) rotate(-29.8646) scale(10.9014 9.41499)">
<stop offset="0.0105999" stop-color="#FF0038"/>
<stop offset="0.0850057" stop-color="#E70038" stop-opacity="0.9247"/>
<stop offset="0.344" stop-color="#960136" stop-opacity="0.6626"/>
<stop offset="0.574" stop-color="#560235" stop-opacity="0.4299"/>
<stop offset="0.7665" stop-color="#280334" stop-opacity="0.2352"/>
<stop offset="0.914" stop-color="#0C0333" stop-opacity="0.0859468"/>
<stop offset="0.999" stop-color="#010333" stop-opacity="0"/>
</radialGradient>
<radialGradient id="paint31_radial" cx="0" cy="0" r="1" gradientUnits="userSpaceOnUse" gradientTransform="translate(480.397 440.775) rotate(-29.8646) scale(30.6108 26.4371)">
<stop offset="0.0105999" stop-color="#FF0038"/>
<stop offset="0.0850057" stop-color="#E70038" stop-opacity="0.9247"/>
<stop offset="0.344" stop-color="#960136" stop-opacity="0.6626"/>
<stop offset="0.574" stop-color="#560235" stop-opacity="0.4299"/>
<stop offset="0.7665" stop-color="#280334" stop-opacity="0.2352"/>
<stop offset="0.914" stop-color="#0C0333" stop-opacity="0.0859468"/>
<stop offset="0.999" stop-color="#010333" stop-opacity="0"/>
</radialGradient>
<radialGradient id="paint32_radial" cx="0" cy="0" r="1" gradientUnits="userSpaceOnUse" gradientTransform="translate(424.752 472.722) rotate(-29.8644) scale(10.9013 9.41487)">
<stop stop-color="#FFE22A"/>
<stop offset="0.0752038" stop-color="#E7CC2B" stop-opacity="0.9247"/>
<stop offset="0.337" stop-color="#96862E" stop-opacity="0.6626"/>
<stop offset="0.5695" stop-color="#564E30" stop-opacity="0.4299"/>
<stop offset="0.764" stop-color="#282532" stop-opacity="0.2352"/>
<stop offset="0.9131" stop-color="#0C0C33" stop-opacity="0.0859468"/>
<stop offset="0.999" stop-color="#010333" stop-opacity="0"/>
</radialGradient>
<radialGradient id="paint33_radial" cx="0" cy="0" r="1" gradientUnits="userSpaceOnUse" gradientTransform="translate(424.151 473.072) rotate(-29.8646) scale(30.6108 26.4371)">
<stop stop-color="#FFE22A"/>
<stop offset="0.0752038" stop-color="#E7CC2B" stop-opacity="0.9247"/>
<stop offset="0.337" stop-color="#96862E" stop-opacity="0.6626"/>
<stop offset="0.5695" stop-color="#564E30" stop-opacity="0.4299"/>
<stop offset="0.764" stop-color="#282532" stop-opacity="0.2352"/>
<stop offset="0.9131" stop-color="#0C0C33" stop-opacity="0.0859468"/>
<stop offset="0.999" stop-color="#010333" stop-opacity="0"/>
</radialGradient>
<linearGradient id="paint34_linear" x1="538.611" y1="378.681" x2="93.3076" y2="443.835" gradientUnits="userSpaceOnUse">
<stop stop-color="#20F8FD"/>
<stop offset="0.3184" stop-color="#0182AA"/>
<stop offset="1" stop-color="#010333"/>
</linearGradient>
<linearGradient id="paint35_linear" x1="546.616" y1="433.615" x2="100.616" y2="498.871" gradientUnits="userSpaceOnUse">
<stop offset="0.0885875" stop-color="#064280"/>
<stop offset="0.3708" stop-color="#0D0730"/>
<stop offset="0.7661" stop-color="#010333"/>
<stop offset="0.9711" stop-color="#012060"/>
</linearGradient>
<linearGradient id="paint36_linear" x1="238.222" y1="537.503" x2="236.05" y2="541.269" gradientUnits="userSpaceOnUse">
<stop stop-color="#010333" stop-opacity="0"/>
<stop offset="0.2289" stop-color="#20F8FD"/>
<stop offset="0.7799" stop-color="#010333" stop-opacity="0"/>
</linearGradient>
<linearGradient id="paint37_linear" x1="453.89" y1="321.139" x2="131.446" y2="465.369" gradientUnits="userSpaceOnUse">
<stop stop-color="#0182AA"/>
<stop offset="0.6109" stop-color="#0D0730"/>
<stop offset="1" stop-color="#010333"/>
</linearGradient>
<linearGradient id="paint38_linear" x1="445.612" y1="409.557" x2="206.912" y2="469.756" gradientUnits="userSpaceOnUse">
<stop stop-color="#0182AA"/>
<stop offset="0.6109" stop-color="#0D0730"/>
<stop offset="1" stop-color="#010333"/>
</linearGradient>
<linearGradient id="paint39_linear" x1="326.136" y1="97.3434" x2="69.1912" y2="499.385" gradientUnits="userSpaceOnUse">
<stop offset="0.0885875" stop-color="#064280"/>
<stop offset="0.6251" stop-color="#0D0730"/>
<stop offset="1" stop-color="#010333"/>
</linearGradient>
<linearGradient id="paint40_linear" x1="329.304" y1="120.275" x2="79.9725" y2="449.462" gradientUnits="userSpaceOnUse">
<stop stop-color="#0182AA"/>
<stop offset="0.2782" stop-color="#012060"/>
<stop offset="0.6059" stop-color="#000C34"/>
<stop offset="0.9829" stop-color="#00447F"/>
</linearGradient>
<linearGradient id="paint41_linear" x1="99.0367" y1="258.356" x2="326.869" y2="214.007" gradientUnits="userSpaceOnUse">
<stop stop-color="#7659FF"/>
<stop offset="1" stop-color="#748BFF"/>
</linearGradient>
<linearGradient id="paint42_linear" x1="326.476" y1="101.392" x2="142.017" y2="282.746" gradientUnits="userSpaceOnUse">
<stop offset="0.0790672" stop-color="#00518B"/>
<stop offset="0.2837" stop-color="#0182AA"/>
<stop offset="0.6251" stop-color="#0D0730"/>
<stop offset="1" stop-color="#010333"/>
</linearGradient>
<linearGradient id="paint43_linear" x1="58.4826" y1="301.782" x2="55.6137" y2="302.389" gradientUnits="userSpaceOnUse">
<stop stop-color="#010333" stop-opacity="0"/>
<stop offset="0.2723" stop-color="#0182AA"/>
<stop offset="1" stop-color="#010333" stop-opacity="0"/>
</linearGradient>
<radialGradient id="paint44_radial" cx="0" cy="0" r="1" gradientUnits="userSpaceOnUse" gradientTransform="translate(132.533 478.473) scale(24.6934 24.5581)">
<stop offset="0.0102465" stop-color="#E90000"/>
<stop offset="0.0910464" stop-color="#E20002" stop-opacity="0.9063"/>
<stop offset="0.2092" stop-color="#CE0006" stop-opacity="0.7693"/>
<stop offset="0.3503" stop-color="#AE010D" stop-opacity="0.6056"/>
<stop offset="0.5091" stop-color="#820117" stop-opacity="0.4214"/>
<stop offset="0.6826" stop-color="#480223" stop-opacity="0.2202"/>
<stop offset="0.866" stop-color="#040332" stop-opacity="0.01"/>
<stop offset="0.8725" stop-color="#010333" stop-opacity="0"/>
</radialGradient>
<radialGradient id="paint45_radial" cx="0" cy="0" r="1" gradientUnits="userSpaceOnUse" gradientTransform="translate(132.535 478.476) scale(8.79394 8.74577)">
<stop offset="0.0105999" stop-color="#FFEF3F"/>
<stop offset="0.1232" stop-color="#FBEB3F" stop-opacity="0.8743"/>
<stop offset="0.2359" stop-color="#EFE03E" stop-opacity="0.7485"/>
<stop offset="0.3487" stop-color="#DBCD3D" stop-opacity="0.6226"/>
<stop offset="0.4616" stop-color="#BFB33C" stop-opacity="0.4966"/>
<stop offset="0.5747" stop-color="#9A923A" stop-opacity="0.3704"/>
<stop offset="0.6879" stop-color="#6E6838" stop-opacity="0.244"/>
<stop offset="0.7991" stop-color="#3A3836" stop-opacity="0.1199"/>
<stop offset="0.9065" stop-color="#010333" stop-opacity="0"/>
</radialGradient>
<radialGradient id="paint46_radial" cx="0" cy="0" r="1" gradientUnits="userSpaceOnUse" gradientTransform="translate(220.566 527.591) scale(24.6932 24.5579)">
<stop offset="0.0102465" stop-color="#E90000"/>
<stop offset="0.0910464" stop-color="#E20002" stop-opacity="0.9063"/>
<stop offset="0.2092" stop-color="#CE0006" stop-opacity="0.7693"/>
<stop offset="0.3503" stop-color="#AE010D" stop-opacity="0.6056"/>
<stop offset="0.5091" stop-color="#820117" stop-opacity="0.4214"/>
<stop offset="0.6826" stop-color="#480223" stop-opacity="0.2202"/>
<stop offset="0.866" stop-color="#040332" stop-opacity="0.01"/>
<stop offset="0.8725" stop-color="#010333" stop-opacity="0"/>
</radialGradient>
<radialGradient id="paint47_radial" cx="0" cy="0" r="1" gradientUnits="userSpaceOnUse" gradientTransform="translate(220.566 527.592) scale(8.79395 8.74577)">
<stop offset="0.0105999" stop-color="#FFEF3F"/>
<stop offset="0.1232" stop-color="#FBEB3F" stop-opacity="0.8743"/>
<stop offset="0.2359" stop-color="#EFE03E" stop-opacity="0.7485"/>
<stop offset="0.3487" stop-color="#DBCD3D" stop-opacity="0.6226"/>
<stop offset="0.4616" stop-color="#BFB33C" stop-opacity="0.4966"/>
<stop offset="0.5747" stop-color="#9A923A" stop-opacity="0.3704"/>
<stop offset="0.6879" stop-color="#6E6838" stop-opacity="0.244"/>
<stop offset="0.7991" stop-color="#3A3836" stop-opacity="0.1199"/>
<stop offset="0.9065" stop-color="#010333" stop-opacity="0"/>
</radialGradient>
<linearGradient id="paint48_linear" x1="447.963" y1="66.1631" x2="204.258" y2="430.067" gradientUnits="userSpaceOnUse">
<stop stop-color="#7659FF"/>
<stop offset="0.291" stop-color="#748BFF"/>
<stop offset="0.4815" stop-color="#012060"/>
<stop offset="1" stop-color="#7659FF"/>
</linearGradient>
<linearGradient id="paint49_linear" x1="538.195" y1="90.6054" x2="290.962" y2="429.518" gradientUnits="userSpaceOnUse">
<stop offset="0.0003337" stop-color="#01FFFF"/>
<stop offset="0.291" stop-color="#00518B"/>
<stop offset="0.4815" stop-color="#012060"/>
<stop offset="0.708" stop-color="#010333"/>
<stop offset="1" stop-color="#00447F"/>
</linearGradient>
</defs>
</svg>
