<svg width="23" height="18" viewBox="0 0 23 18" fill="none" xmlns="http://www.w3.org/2000/svg">
<path d="M23 2.13215C22.3595 3.05 21.5737 3.83241 20.6427 4.4794C20.6519 4.65292 20.6565 4.84905 20.6565 5.06777C20.6565 6.28304 20.4726 7.49979 20.1048 8.718C19.7369 9.93623 19.1751 11.1023 18.4193 12.2162C17.6634 13.3301 16.763 14.3169 15.7181 15.1766C14.6733 16.0363 13.4173 16.7218 11.9502 17.2331C10.4831 17.7444 8.91073 18 7.23315 18C4.61501 18 2.20396 17.319 0 15.9571C0.391177 15.9991 0.766348 16.02 1.12551 16.02C3.31276 16.02 5.26632 15.371 6.98619 14.0729C5.96638 14.0548 5.05305 13.7524 4.24623 13.1655C3.4394 12.5786 2.88416 11.8287 2.58051 10.9157C2.88065 10.9708 3.17687 10.9983 3.46919 10.9983C3.88996 10.9983 4.30399 10.9455 4.71129 10.8397C3.62295 10.6297 2.72009 10.1075 2.00269 9.273C1.28532 8.43853 0.926631 7.47539 0.926631 6.38359V6.32732C1.59466 6.68367 2.30721 6.87322 3.06429 6.89597C2.41957 6.48188 1.9084 5.94188 1.53079 5.27599C1.15315 4.6101 0.964334 3.88949 0.964334 3.11416C0.964334 2.29644 1.17702 1.535 1.60238 0.829817C2.78593 2.2291 4.22004 3.34745 5.90472 4.18487C7.58942 5.0223 9.39678 5.48738 11.3268 5.58012C11.2445 5.2496 11.2033 4.9047 11.2031 4.54539C11.2031 3.29084 11.6639 2.21964 12.5856 1.33178C13.5072 0.443928 14.6191 0 15.9213 0C17.2846 0 18.4329 0.478265 19.3663 1.4348C20.4327 1.23129 21.4312 0.863195 22.3618 0.330516C22.0033 1.41759 21.3124 2.2562 20.2893 2.84634C21.2297 2.73867 22.1332 2.50061 23 2.13215H23Z" fill="white"/>
</svg>
