<svg width="80" height="81" viewBox="0 0 80 81" fill="none" xmlns="http://www.w3.org/2000/svg">
<path d="M36.966 61.7859H42.0339C42.4811 61.7859 42.8537 61.6365 43.1518 61.3377C43.4499 61.0389 43.599 60.6654 43.599 60.2172C43.599 59.769 43.4499 59.3955 43.1518 59.0967C42.8537 58.7979 42.4811 58.6485 42.0339 58.6485H36.966C36.5188 58.6485 36.1462 58.7979 35.848 59.0967C35.5499 59.3955 35.4009 59.769 35.4009 60.2172C35.4009 60.6654 35.5499 61.0389 35.848 61.3377C36.1462 61.6365 36.5188 61.7859 36.966 61.7859Z" fill="#F2F2F2"/>
<path d="M74.3792 12.4833H70.6528V4.71445C70.6528 2.09992 68.566 0.00830078 66.0321 0.00830078H12.9679C10.434 0.00830078 8.34717 2.09992 8.34717 4.71445V12.4833H4.62075C2.08679 12.4833 0 14.575 0 17.1895V62.1594C0 64.7739 2.08679 66.8655 4.62075 66.8655H31.7491V70.6005H28.8425C26.3085 70.6005 24.2217 72.6922 24.2217 75.3067V78.4441C24.2217 79.3405 24.8925 80.0128 25.7868 80.0128H53.2877C54.1075 80.0128 54.8528 79.3405 54.8528 78.4441V75.3067C54.8528 72.6922 52.766 70.6005 50.2321 70.6005H47.3255V66.8655H74.4538C76.9877 66.8655 79.0745 64.7739 79.0745 62.1594V17.1895C79 14.575 76.9132 12.4833 74.3792 12.4833ZM74.3792 15.6208C75.1991 15.6208 75.9443 16.2931 75.9443 17.1895V53.1206H70.7274V15.6208H74.3792ZM12.9679 3.14573H66.0321C66.8519 3.14573 67.5972 3.81804 67.5972 4.71445V12.4833H11.4028V4.71445C11.4028 3.81804 12.0736 3.14573 12.9679 3.14573ZM4.62075 15.6208H8.34717V27.3488C8.34717 28.2452 9.01792 28.9175 9.91226 28.9175C10.8066 28.9175 11.4774 28.2452 11.4774 27.3488V15.6208H67.6717V53.1206H59.6972V47.9662C59.6972 47.0698 59.0264 46.3975 58.1321 46.3975H56.1198C55.7472 45.2023 55.3 44.0071 54.7038 42.8866L56.1198 41.4672C56.716 40.8696 56.716 39.8985 56.1198 39.2262L51.4245 34.4454C50.8283 33.8478 49.8594 33.8478 49.2632 34.4454L47.8472 35.8647C46.7292 35.2671 45.5368 34.7442 44.3443 34.3707V32.3537C44.3443 31.4573 43.6736 30.785 42.7792 30.785H36.1462C35.3264 30.785 34.5811 31.4573 34.5811 32.3537V34.3707C33.3887 34.7442 32.1962 35.1924 31.0783 35.8647L29.6623 34.4454C29.066 33.8478 28.0972 33.8478 27.5009 34.4454L22.8057 39.1515C22.2094 39.7491 22.2094 40.7202 22.8057 41.3925L24.2217 42.8119C23.6255 43.9324 23.1038 45.1276 22.8057 46.3228H20.7934C19.9736 46.3228 19.2283 46.9951 19.2283 47.8915V53.0459H11.4028V41.3925C11.4028 40.4961 10.7321 39.8238 9.83774 39.8238C8.9434 39.8238 8.27264 40.4961 8.27264 41.3925V53.1206H3.05566V17.1895C3.05566 16.2931 3.80094 15.6208 4.62075 15.6208ZM27.3519 41.4672L26.1594 40.272L28.6934 37.7322L29.8858 38.9274C30.4075 39.4503 31.2274 39.525 31.8236 39.1515C33.3142 38.1804 34.8792 37.5081 36.5934 37.1346C37.3387 36.9852 37.7859 36.3129 37.7859 35.6406V33.9225H41.2887V35.6406C41.2887 36.3876 41.8104 36.9852 42.4811 37.1346C44.1953 37.5081 45.7604 38.1804 47.2509 39.1515C47.8472 39.525 48.667 39.4503 49.1887 38.9274L50.3811 37.7322L52.9151 40.272L51.7226 41.4672C51.2009 41.9901 51.1264 42.8119 51.4991 43.4095C52.4679 44.9035 53.1387 46.4722 53.4368 48.1903C53.5858 48.9373 54.1821 49.4602 54.9274 49.4602H56.6415V53.0459H47.0274C47.1764 52.4483 47.2509 51.8506 47.2509 51.253C47.2509 46.9204 43.8226 43.4095 39.5 43.4095C35.1774 43.4095 31.7491 46.9204 31.7491 51.253C31.7491 51.8506 31.8236 52.4483 31.9726 53.0459H22.3585V49.4602H23.9981C24.7434 49.4602 25.3396 48.9373 25.4887 48.1903C25.8613 46.4722 26.5321 44.8288 27.4264 43.4095C27.9481 42.8119 27.7991 41.9901 27.3519 41.4672ZM34.8792 51.3277C34.8792 48.7132 36.966 46.6216 39.5 46.6216C42.034 46.6216 44.1208 48.7132 44.1208 51.3277C44.1208 51.9253 43.9717 52.523 43.7481 53.1206H35.2519C35.0283 52.523 34.8792 51.9253 34.8792 51.3277ZM51.7226 75.232V76.8007H27.2774V75.232C27.2774 74.3356 27.9481 73.6633 28.8425 73.6633H50.1575C50.9774 73.6633 51.7226 74.4103 51.7226 75.232ZM44.1208 70.6005H34.8792V66.8655H44.1208V70.6005ZM74.3792 63.7281H4.62075C3.80094 63.7281 3.05566 63.0558 3.05566 62.1594V56.258H75.8698V62.1594C75.9443 62.9811 75.1991 63.7281 74.3792 63.7281Z" fill="#F2F2F2"/>
<path d="M44.1208 9.34587H60.8151C61.6349 9.34587 62.3802 8.67356 62.3802 7.77715C62.3802 6.88074 61.7094 6.20844 60.8151 6.20844H44.1208C43.3009 6.20844 42.5557 6.88074 42.5557 7.77715C42.5557 8.67356 43.3009 9.34587 44.1208 9.34587Z" fill="#F2F2F2"/>
<path d="M24.9669 9.34587C25.3396 9.34587 25.7868 9.19646 26.0849 8.89766C26.383 8.59886 26.532 8.22536 26.532 7.77715C26.532 7.40365 26.383 6.95544 26.0849 6.65664C25.7868 6.35784 25.4141 6.20844 24.9669 6.20844C24.5943 6.20844 24.1471 6.35784 23.849 6.65664C23.5509 6.95544 23.4019 7.32895 23.4019 7.77715C23.4019 8.15065 23.5509 8.59886 23.849 8.89766C24.2217 9.19646 24.5943 9.34587 24.9669 9.34587Z" fill="#F2F2F2"/>
<path d="M18.185 9.34591C18.5576 9.34591 19.0048 9.1965 19.3029 8.8977C19.601 8.5989 19.7501 8.22539 19.7501 7.77719C19.7501 7.40368 19.601 6.95548 19.3029 6.65668C19.0048 6.35787 18.6321 6.28317 18.185 6.28317C17.8123 6.28317 17.3652 6.43257 17.067 6.73138C16.7689 7.03018 16.6199 7.40369 16.6199 7.85189C16.6199 8.22539 16.7689 8.6736 17.067 8.9724C17.4397 9.1965 17.8123 9.34591 18.185 9.34591Z" fill="#F2F2F2"/>
<path d="M31.7492 9.34587C32.1218 9.34587 32.569 9.19646 32.8671 8.89766C33.1652 8.59886 33.3143 8.22536 33.3143 7.77715C33.3143 7.40365 33.1652 6.95544 32.8671 6.65664C32.569 6.35784 32.1963 6.20844 31.7492 6.20844C31.3765 6.20844 30.9294 6.35784 30.6313 6.65664C30.3331 6.95544 30.1841 7.32895 30.1841 7.77715C30.1841 8.15065 30.3331 8.59886 30.6313 8.89766C31.0039 9.19646 31.3765 9.34587 31.7492 9.34587Z" fill="#F2F2F2"/>
<path d="M17.2907 23.0909H20.9426C21.7624 23.0909 22.5077 22.4186 22.5077 21.5221C22.5077 20.6257 21.8369 19.9534 20.9426 19.9534H17.2907C16.4709 19.9534 15.7256 20.6257 15.7256 21.5221C15.7256 22.4186 16.3963 23.0909 17.2907 23.0909Z" fill="#F2F2F2"/>
<path d="M27.7245 23.0909H41.8849C42.7047 23.0909 43.45 22.4186 43.45 21.5221C43.45 20.6257 42.7792 19.9534 41.8849 19.9534H27.7245C26.9047 19.9534 26.1594 20.6257 26.1594 21.5221C26.1594 22.4186 26.9047 23.0909 27.7245 23.0909Z" fill="#F2F2F2"/>
<path d="M17.2907 30.6356H26.2341C27.0539 30.6356 27.7992 29.9633 27.7992 29.0669C27.7992 28.1705 27.1284 27.4982 26.2341 27.4982H17.2907C16.4709 27.4982 15.7256 28.1705 15.7256 29.0669C15.7256 29.8886 16.3963 30.6356 17.2907 30.6356Z" fill="#F2F2F2"/>
<path d="M48.6669 23.0909H61.7094C62.5292 23.0909 63.2745 22.4186 63.2745 21.5221C63.2745 20.6257 62.6037 19.9534 61.7094 19.9534H48.6669C47.8471 19.9534 47.1018 20.6257 47.1018 21.5221C47.1018 22.4186 47.8471 23.0909 48.6669 23.0909Z" fill="#F2F2F2"/>
<path d="M61.7096 27.4982H51.1266C50.3068 27.4982 49.5615 28.1705 49.5615 29.0669C49.5615 29.9633 50.2323 30.6356 51.1266 30.6356H61.7096C62.5294 30.6356 63.2747 29.9633 63.2747 29.0669C63.2747 28.1705 62.604 27.4982 61.7096 27.4982Z" fill="#F2F2F2"/>
<path d="M9.91226 35.9393C10.2849 35.9393 10.7321 35.7899 11.0302 35.4911C11.3283 35.1923 11.4774 34.8188 11.4774 34.3706C11.4774 33.9971 11.3283 33.5489 11.0302 33.2501C10.7321 32.9513 10.3594 32.8019 9.91226 32.8019C9.46509 32.8019 9.09245 32.9513 8.79434 33.2501C8.49622 33.5489 8.34717 33.9224 8.34717 34.3706C8.34717 34.7441 8.49622 35.1923 8.79434 35.4911C9.09245 35.7152 9.46509 35.9393 9.91226 35.9393Z" fill="#F2F2F2"/>
</svg>
