<svg width="87" height="82" viewBox="0 0 87 82" fill="none" xmlns="http://www.w3.org/2000/svg">
<path d="M60.2816 70.0173H84.0612V74.1993C84.0612 76.4952 82.1752 78.3812 79.8793 78.3812H7.06438C4.76841 78.3812 2.88244 76.4952 2.88244 74.1993V70.0173H26.6621V67.2294H0.0944824V74.1993C0.0944824 78.0532 3.21044 81.1692 7.06438 81.1692H79.8793C83.7332 81.1692 86.8492 78.0532 86.8492 74.1993V67.2294H60.2816V70.0173Z" fill="#F2F2F2"/>
<path d="M33.7139 75.5932H53.3116C55.6076 75.5932 57.4936 73.7073 57.4936 71.4113V67.2294H29.532V71.4113C29.532 73.7073 31.418 75.5932 33.7139 75.5932ZM32.3199 70.0173H54.7056V71.4113C54.7056 72.1493 54.0496 72.8053 53.3116 72.8053H33.7139C32.9759 72.8053 32.3199 72.1493 32.3199 71.4113V70.0173Z" fill="#F2F2F2"/>
<path d="M5.67032 20.9821C5.67032 18.6861 7.55629 16.8002 9.85225 16.8002H46.9977V14.0122H9.93425C6.08031 14.0122 2.96436 17.1282 2.96436 20.9821V64.3595H5.75231V20.9821H5.67032Z" fill="#F2F2F2"/>
<path d="M84.1432 30.822H81.2732V64.3595H84.0612V30.822H84.1432Z" fill="#F2F2F2"/>
<path d="M47.0797 19.5881H11.3282C9.77026 19.5881 8.54028 20.8181 8.54028 22.3761V64.3595H11.3282V22.3761H47.0797V19.5881Z" fill="#F2F2F2"/>
<path d="M78.4852 37.9559H75.6973V64.4415H78.4852V37.9559Z" fill="#F2F2F2"/>
<path d="M65.2015 1.05639C61.0195 3.35235 56.5096 4.82833 51.7537 5.32032L50.5237 5.48432V20.9821C50.5237 29.51 57.4116 36.3979 65.9395 36.3979C74.4673 36.3979 81.2732 29.51 81.2732 20.9821V5.48432L80.0432 5.32032C75.2873 4.82833 70.7774 3.35235 66.5954 1.05639L65.9395 0.728394L65.2015 1.05639ZM78.4853 7.94429V20.9821C78.4853 27.952 72.8273 33.6099 65.8574 33.6099C58.8876 33.6099 53.2296 27.952 53.2296 20.9821V7.94429C57.7396 7.2883 61.9215 5.97632 65.9395 3.92635C69.8754 5.97632 74.1393 7.2883 78.4853 7.94429Z" fill="#F2F2F2"/>
<path d="M59.9535 20.818L58.4775 22.786L64.3815 27.2139L73.6473 14.0121L71.6793 12.6182L63.8075 23.688L59.9535 20.818Z" fill="#F2F2F2"/>
<path d="M22.0703 60.0134H35.3541C37.1581 60.0134 38.6341 58.5374 38.6341 56.7335V45.6636C38.6341 44.1876 37.7321 43.0397 36.4201 42.5477V39.0217C36.4201 34.7578 32.9762 31.3138 28.7122 31.3138C24.4483 31.3138 21.0043 34.7578 21.0043 39.0217V42.5477C19.6924 43.0397 18.7904 44.1876 18.7904 45.6636V56.7335C18.7084 58.5374 20.1843 60.0134 22.0703 60.0134ZM23.1363 39.0217C23.1363 35.9878 25.5963 33.5278 28.6302 33.5278C31.6642 33.5278 34.1241 35.9878 34.1241 39.0217V42.3017H23.1363V39.0217ZM20.9223 45.6636C20.9223 45.0896 21.4143 44.5976 21.9883 44.5976H35.3541C35.9281 44.5976 36.4201 45.0896 36.4201 45.6636V56.7335C36.4201 57.3075 35.9281 57.7994 35.3541 57.7994H22.0703C21.4963 57.7994 21.0043 57.3075 21.0043 56.7335V45.6636H20.9223Z" fill="#F2F2F2"/>
<path d="M27.5641 53.2075V55.5855H29.7781V53.2075C31.0901 52.7156 31.9921 51.5676 31.9921 50.0916C31.9921 48.2876 30.5161 46.8116 28.7121 46.8116C26.9081 46.8116 25.4322 48.2876 25.4322 50.0916C25.3502 51.4856 26.2522 52.7156 27.5641 53.2075ZM28.7121 48.9436C29.2861 48.9436 29.7781 49.4356 29.7781 50.0096C29.7781 50.5836 29.2861 51.0756 28.7121 51.0756C28.1381 51.0756 27.6461 50.5836 27.6461 50.0096C27.5641 49.4356 28.0561 48.9436 28.7121 48.9436Z" fill="#F2F2F2"/>
<path d="M14.1161 72.8053H11.3281V75.5933H14.1161V72.8053Z" fill="#F2F2F2"/>
<path d="M19.6923 72.8053H16.9043V75.5933H19.6923V72.8053Z" fill="#F2F2F2"/>
<path d="M25.2682 72.8053H22.4802V75.5933H25.2682V72.8053Z" fill="#F2F2F2"/>
</svg>
