<svg width="82" height="68" viewBox="0 0 82 68" fill="none" xmlns="http://www.w3.org/2000/svg">
<g clip-path="url(#clip0)">
<path d="M38.2912 49.2964H43.4555C43.9112 49.2964 44.291 49.1476 44.5947 48.8498C44.8985 48.5521 45.0504 48.18 45.0504 47.7334C45.0504 47.2868 44.8985 46.9147 44.5947 46.617C44.291 46.3193 43.9112 46.1704 43.4555 46.1704H38.2912C37.8355 46.1704 37.4558 46.3193 37.152 46.617C36.8482 46.9147 36.6963 47.2868 36.6963 47.7334C36.6963 48.18 36.8482 48.5521 37.152 48.8498C37.4558 49.1476 37.8355 49.2964 38.2912 49.2964Z" fill="#F2F2F2"/>
<path d="M23.9373 12.9751H26.5954L31.5319 27.4143C31.5319 27.4888 31.6079 27.6376 31.6838 27.712C31.0003 27.712 30.3927 27.9353 29.8611 28.3819C29.3295 28.8285 29.0257 29.4239 28.9498 30.0938C28.8738 30.7636 29.0257 31.4335 29.4054 31.9545C29.7852 32.4755 30.3168 32.9221 31.0003 33.0709C31.6838 33.2198 32.3674 33.2198 32.9749 32.9221C33.5825 32.6244 34.0382 32.1778 34.342 31.5824C34.6458 30.9869 34.6458 30.3171 34.4939 29.6472C34.266 29.0518 33.8863 28.4563 33.2787 28.1586H42.2404C42.2404 28.3819 42.2404 28.6052 42.2404 28.7541C42.2404 30.0938 42.6202 31.3591 43.3796 32.4011C44.1391 33.5175 45.2023 34.3362 46.4175 34.8572C47.6326 35.3782 48.9997 35.4527 50.2908 35.2294C51.5819 35.0061 52.797 34.3362 53.7843 33.4431C54.6957 32.5499 55.3792 31.3591 55.607 30.0193C55.8349 28.7541 55.7589 27.4143 55.2273 26.2235C54.6957 25.0326 53.8603 23.9906 52.7211 23.2463C51.5819 22.502 50.2908 22.1299 48.9997 22.1299C48.7718 22.1299 48.544 22.1299 48.3921 22.1299L50.0629 17.292C50.1389 17.1431 50.1389 16.9943 50.1389 16.771C50.1389 16.6221 50.0629 16.4733 49.911 16.3244C49.8351 16.1756 49.6832 16.1011 49.5313 16.0267C49.3794 15.9523 49.2275 15.8779 49.0756 15.8779H35.1014C34.7977 15.8779 34.5698 15.9523 34.342 16.1756C34.1141 16.3989 34.0382 16.6221 34.0382 16.9199C34.0382 17.2176 34.1141 17.4409 34.342 17.6641C34.5698 17.8874 34.7977 17.9619 35.1014 17.9619H47.3288L46.3415 20.939H46.2656H36.7723C36.4685 20.939 36.2406 21.0134 36.0128 21.2367C35.785 21.46 35.709 21.6833 35.709 21.981C35.709 22.2787 35.785 22.502 36.0128 22.7253C36.2406 22.9486 36.4685 23.023 36.7723 23.023H45.2783C44.1391 23.6929 43.1518 24.7349 42.6202 26.0002H33.2787L28.3422 11.6354C28.2662 11.4121 28.1143 11.2633 27.9625 11.1144C27.8106 10.9655 27.5827 10.8911 27.3549 10.8911H23.9373C23.6335 10.8911 23.4057 10.9655 23.1778 11.1888C22.95 11.4121 22.874 11.6354 22.874 11.9331C22.874 12.2308 22.95 12.4541 23.1778 12.6774C23.3297 12.9007 23.6335 12.9751 23.9373 12.9751ZM31.6079 31.0614C31.456 31.0614 31.38 31.0614 31.2282 30.9869C31.1522 30.9125 31.0763 30.8381 31.0003 30.6892C30.9244 30.5403 30.9244 30.4659 31.0003 30.3171C31.0003 30.1682 31.0763 30.0938 31.1522 30.0193C31.2282 29.9449 31.38 29.8705 31.456 29.8705C31.6079 29.8705 31.6838 29.8705 31.8357 29.8705C31.9876 29.9449 32.0636 30.0193 32.1395 30.0938C32.2155 30.1682 32.2155 30.3171 32.2155 30.4659C32.2155 30.6148 32.1395 30.7636 32.0636 30.9125C31.9876 30.9869 31.8357 31.0614 31.6079 31.0614ZM53.4046 28.7541C53.4046 29.6472 53.1008 30.5404 52.6451 31.2846C52.1135 32.0289 51.43 32.6244 50.5946 32.9221C49.7591 33.2942 48.8478 33.3687 47.9364 33.1454C47.0251 32.9965 46.1896 32.5499 45.5821 31.8801C44.9745 31.2846 44.5188 30.4659 44.291 29.5728C44.1391 28.6796 44.215 27.7865 44.5188 26.9678C44.8986 26.149 45.4302 25.4048 46.1896 24.9582C46.9491 24.4372 47.8605 24.2139 48.7718 24.2139C49.987 24.2139 51.2021 24.6605 52.0375 25.5536C52.9489 26.3723 53.4046 27.5632 53.4046 28.7541Z" fill="#F2F2F2"/>
<path d="M46.5693 29.7218L48.3161 30.5406C48.5439 30.6894 48.8477 30.6894 49.0755 30.615C49.3034 30.5406 49.5312 30.3917 49.6831 30.1684L51.4299 27.6378C51.5818 27.4145 51.6577 27.1168 51.5818 26.8191C51.5058 26.5214 51.3539 26.2981 51.1261 26.1492C50.8983 26.0004 50.5945 25.926 50.2907 26.0004C49.9869 26.0748 49.7591 26.2237 49.6072 26.447L48.392 28.2333L47.5566 27.7867C47.3288 27.6378 47.025 27.6378 46.7212 27.7123C46.4174 27.7867 46.2655 28.01 46.1136 28.2333C45.9617 28.4565 45.9617 28.7543 46.0377 29.052C46.1896 29.3497 46.3415 29.573 46.5693 29.7218Z" fill="#F2F2F2"/>
<path d="M76.4164 0.471191C52.721 0.471191 29.0256 0.471191 5.33027 0.471191C2.74809 0.471191 0.621582 2.5552 0.621582 5.16021V49.9664C0.621582 52.5714 2.74809 54.6554 5.33027 54.6554H32.9749V58.3769H30.0129C27.4308 58.3769 25.3042 60.4609 25.3042 63.0659V66.1919C25.3042 67.0851 25.9878 67.7549 26.8991 67.7549H54.9234C55.7589 67.7549 56.5183 67.0851 56.5183 66.1919V62.9915C56.5183 60.3865 54.3918 58.3025 51.8096 58.3025H48.8477V54.581H76.4923C79.0745 54.581 81.201 52.497 81.201 49.892V5.16021C81.125 2.5552 78.9985 0.471191 76.4164 0.471191ZM51.7337 61.4285C52.5691 61.4285 53.3286 62.0983 53.3286 62.9915V64.5545H28.4181V62.9915C28.4181 62.0983 29.1016 61.4285 30.0129 61.4285H51.7337ZM36.1646 58.3025V54.581H45.582V58.3025H36.1646ZM78.0112 49.892C78.0112 50.7851 77.3277 51.455 76.4164 51.455H5.33027C4.49486 51.455 3.73539 50.7851 3.73539 49.892V5.16021C3.73539 4.3415 4.41891 3.59721 5.33027 3.59721H76.4164C77.2518 3.59721 78.0112 4.26707 78.0112 5.16021V49.892Z" fill="#F2F2F2"/>
<path d="M3.73535 42.5981H77.9352" stroke="white" stroke-width="4" stroke-miterlimit="10"/>
</g>
<defs>
<clipPath id="clip0">
<rect width="80.5035" height="67.2093" fill="white" transform="translate(0.621582 0.471191)"/>
</clipPath>
</defs>
</svg>
