<svg width="85" height="77" viewBox="0 0 85 77" fill="none" xmlns="http://www.w3.org/2000/svg">
<path d="M66.2419 63.6778H7.55029C4.34644 63.6778 1.7561 61.0875 1.7561 57.8837V8.0537C1.7561 4.84986 4.34644 2.25952 7.55029 2.25952H67.7416C70.9455 2.25952 73.5358 4.84986 73.5358 8.0537V57.8837C73.5358 58.6335 73.3995 59.3833 73.1268 59.9968" stroke="white" stroke-width="3" stroke-miterlimit="10"/>
<path d="M29.0229 24.2092H14.0944C12.3902 24.2092 11.0269 25.3681 11.0269 26.7314V39.9558C11.0269 41.3191 12.3902 42.4779 14.0944 42.4779H43.6788" stroke="white" stroke-width="3" stroke-miterlimit="10" stroke-linecap="round"/>
<path d="M44.0879 24.2092H62.4248C63.8563 24.2092 65.0151 25.1636 65.0151 26.3224V39.9558C65.0151 41.3191 63.6518 42.4779 61.9476 42.4779H61.2659" stroke="white" stroke-width="3" stroke-miterlimit="10" stroke-linecap="round"/>
<path d="M11.572 10.8485H37.0664" stroke="white" stroke-width="3" stroke-miterlimit="10" stroke-linecap="round"/>
<path d="M11.0269 50.3853H15.6622" stroke="white" stroke-width="4" stroke-miterlimit="10" stroke-linecap="round"/>
<path d="M30.1135 56.3159H37.0665" stroke="white" stroke-width="4" stroke-miterlimit="10" stroke-linecap="round"/>
<path d="M21.7969 50.3853H35.2257" stroke="white" stroke-width="4" stroke-miterlimit="10" stroke-linecap="round"/>
<path d="M11.2993 56.3159H24.7964" stroke="white" stroke-width="4" stroke-miterlimit="10" stroke-linecap="round"/>
<path d="M4.07373 18.2788H71.8997" stroke="white" stroke-width="3" stroke-miterlimit="10" stroke-linecap="round"/>
<path d="M51.177 12.1437C51.8923 12.1437 52.4722 11.5638 52.4722 10.8485C52.4722 10.1332 51.8923 9.55334 51.177 9.55334C50.4617 9.55334 49.8818 10.1332 49.8818 10.8485C49.8818 11.5638 50.4617 12.1437 51.177 12.1437Z" fill="white"/>
<path d="M36.7256 25.5044C37.4409 25.5044 38.0208 24.9245 38.0208 24.2092C38.0208 23.4939 37.4409 22.9141 36.7256 22.9141C36.0103 22.9141 35.4304 23.4939 35.4304 24.2092C35.4304 24.9245 36.0103 25.5044 36.7256 25.5044Z" fill="white"/>
<path d="M56.7668 12.1437C57.4821 12.1437 58.062 11.5638 58.062 10.8485C58.062 10.1332 57.4821 9.55334 56.7668 9.55334C56.0515 9.55334 55.4717 10.1332 55.4717 10.8485C55.4717 11.5638 56.0515 12.1437 56.7668 12.1437Z" fill="white"/>
<path d="M62.4246 12.1437C63.1399 12.1437 63.7197 11.5638 63.7197 10.8485C63.7197 10.1332 63.1399 9.55334 62.4246 9.55334C61.7093 9.55334 61.1294 10.1332 61.1294 10.8485C61.1294 11.5638 61.7093 12.1437 62.4246 12.1437Z" fill="white"/>
<path d="M60.7206 46.8406L75.7855 62.7916L81.5115 68.8585C82.943 70.3582 82.8749 72.744 81.3752 74.1755C79.8755 75.607 77.4897 75.5388 76.0582 74.0392L70.3322 67.9723L54.9946 51.7486" stroke="white" stroke-width="3" stroke-miterlimit="10" stroke-linecap="round"/>
<path fill-rule="evenodd" clip-rule="evenodd" d="M44.2243 34.9796C43.2018 43.705 46.2693 50.5898 50.7001 51.885C52.8133 52.4985 55.3355 51.9532 57.1078 50.8625C60.3116 48.8857 61.8795 45.4091 61.1296 42.4098C60.5161 40.1603 58.6756 38.4561 56.8351 37.7063C54.4493 36.8201 53.086 38.1153 50.0866 37.7745C47.5644 37.4336 45.5876 36.0703 44.2243 34.9796Z" stroke="white" stroke-width="3" stroke-miterlimit="10" stroke-linecap="round" stroke-linejoin="round"/>
<path d="M75.7856 62.8598L70.3323 67.9723" stroke="white" stroke-width="3" stroke-miterlimit="10" stroke-linecap="round"/>
</svg>
