<svg width="70" height="70" viewBox="0 0 70 70" fill="none" xmlns="http://www.w3.org/2000/svg">
<g clip-path="url(#clip0)">
<path d="M6.72363 22.5739H11.2061V24.8151H6.72363V22.5739Z" fill="#F2F2F2"/>
<path d="M66.1166 18.0914C67.9699 18.0914 69.4784 16.5828 69.4784 14.7296V3.52336C69.4784 1.67007 67.9699 0.161499 66.1166 0.161499H50.4279C48.5746 0.161499 47.066 1.67007 47.066 3.52336V14.7296C47.066 16.5828 48.5746 18.0914 50.4279 18.0914H53.7898V20.3327H51.5485V22.5739H57.1516V33.7801H52.5269C51.6328 32.9073 50.5319 32.2392 49.2996 31.8715C49.3051 31.7583 49.3073 31.6488 49.3073 31.5389C49.3073 26.5957 45.2855 22.5739 40.3423 22.5739C37.2754 22.5739 34.4246 24.1695 32.7918 26.7215C31.6416 26.205 30.3979 25.9358 29.1361 25.9358C25.417 25.9358 22.0682 28.2799 20.7583 31.7183C19.9069 31.9011 19.1135 32.2283 18.3928 32.6595H10.0856V29.2976H14.5681C16.4213 29.2976 17.9299 27.789 17.9299 25.9358V3.52336C17.9299 1.67007 16.4213 0.161499 14.5681 0.161499H3.36186C1.50857 0.161499 0 1.67007 0 3.52336V25.9358C0 27.789 1.50857 29.2976 3.36186 29.2976H7.84434V34.9007H16.0093C15.5327 35.5809 15.1628 36.3316 14.9199 37.142H10.0856V49.4688H5.6031C3.74981 49.4688 2.24124 50.9773 2.24124 52.8306V62.9162H0V66.2781C0 68.1314 1.50857 69.6399 3.36186 69.6399H21.2918C23.1451 69.6399 24.6536 68.1314 24.6536 66.2781V62.9162H22.4124V52.8306C22.4124 50.9773 20.9038 49.4688 19.0505 49.4688H12.3268V39.3832H14.5681C14.5681 43.7075 18.0881 47.2275 22.4124 47.2275H47.066C51.0095 47.2275 54.274 44.2985 54.8206 40.5038H59.3929V49.4688H51.5485V69.6399H69.4784V49.4688H61.6341V38.2626H54.8163C54.6997 37.4735 54.4579 36.7228 54.1192 36.0213H59.3929V22.5739H64.996V20.3327H62.7547V18.0914H66.1166ZM15.6887 18.0914H2.24124V6.88522H15.6887V18.0914ZM3.36186 2.40274H14.5681C15.1864 2.40274 15.6887 2.90505 15.6887 3.52336V4.64398H2.24124V3.52336C2.24124 2.90505 2.74355 2.40274 3.36186 2.40274ZM2.24124 25.9358V20.3327H15.6887V25.9358C15.6887 26.5541 15.1864 27.0564 14.5681 27.0564H3.36186C2.74355 27.0564 2.24124 26.5541 2.24124 25.9358ZM22.4124 66.2781C22.4124 66.8964 21.9101 67.3987 21.2918 67.3987H3.36186C2.74355 67.3987 2.24124 66.8964 2.24124 66.2781V65.1575H22.4124V66.2781ZM20.1712 52.8306V62.9162H4.48248V52.8306C4.48248 52.2123 4.98479 51.71 5.6031 51.71H19.0505C19.6688 51.71 20.1712 52.2123 20.1712 52.8306ZM53.7898 67.3987V60.675H67.2372V67.3987H53.7898ZM67.2372 58.4337H53.7898V51.71H67.2372V58.4337ZM47.066 44.9863H22.4124C19.323 44.9863 16.8093 42.4726 16.8093 39.3832C16.8093 36.5505 18.9296 34.1609 21.7399 33.825L22.4753 33.7363L22.6827 33.025C23.5117 30.1704 26.1666 28.177 29.1361 28.177C30.3733 28.177 31.588 28.5245 32.6528 29.18L33.7226 29.8399L34.2561 28.7001C35.3592 26.339 37.7481 24.8151 40.3423 24.8151C44.0505 24.8151 47.066 27.8306 47.066 31.5389C47.066 31.848 47.0381 32.1774 46.9774 32.5752L46.8083 33.6838L47.9164 33.8518C50.626 34.2654 52.6691 36.6435 52.6691 39.3832C52.6691 42.4726 50.1554 44.9863 47.066 44.9863ZM50.4279 2.40274H66.1166C66.7349 2.40274 67.2372 2.90505 67.2372 3.52336V11.3677H49.3073V3.52336C49.3073 2.90505 49.8096 2.40274 50.4279 2.40274ZM49.3073 14.7296V13.6089H67.2372V14.7296C67.2372 15.3479 66.7349 15.8502 66.1166 15.8502H50.4279C49.8096 15.8502 49.3073 15.3479 49.3073 14.7296ZM60.5135 20.3327H56.031V18.0914H60.5135V20.3327Z" fill="#F2F2F2"/>
<path d="M56.031 53.9513H58.2722V56.1925H56.031V53.9513Z" fill="#F2F2F2"/>
<path d="M62.7546 62.9162H64.9959V65.1575H62.7546V62.9162Z" fill="#F2F2F2"/>
<path d="M60.5134 53.9513H64.9959V56.1925H60.5134V53.9513Z" fill="#F2F2F2"/>
<path d="M56.031 62.9162H60.5135V65.1575H56.031V62.9162Z" fill="#F2F2F2"/>
</g>
<defs>
<clipPath id="clip0">
<rect width="69.4784" height="69.4784" fill="white" transform="translate(0 0.161499)"/>
</clipPath>
</defs>
</svg>
