<svg width="117" height="66" viewBox="0 0 117 66" fill="none" xmlns="http://www.w3.org/2000/svg">
<path d="M36.1876 48.3225H41.786C42.2799 48.3225 42.6916 48.154 43.0209 47.8171C43.3502 47.4801 43.5148 47.0589 43.5148 46.5534C43.5148 46.048 43.3502 45.6267 43.0209 45.2898C42.6916 44.9528 42.2799 44.7001 41.786 44.7001H36.1876C35.6937 44.7001 35.282 44.8686 34.9527 45.2055C34.6234 45.5425 34.4587 45.9637 34.4587 46.4692C34.4587 46.9746 34.6234 47.3958 34.9527 47.7328C35.282 48.154 35.6937 48.3225 36.1876 48.3225Z" fill="#F2F2F2"/>
<path d="M111.843 0.325195H88.388C85.6464 0.325195 83.3618 2.55059 83.3618 5.22106V60.6333C83.3618 63.3038 85.6464 65.5292 88.388 65.5292H111.843C114.585 65.5292 116.869 63.3038 116.869 60.6333V5.22106C116.869 2.55059 114.585 0.325195 111.843 0.325195ZM86.7126 10.1169H113.519V11.7489H86.7126V10.1169ZM88.388 3.5891H111.843C112.757 3.5891 113.519 4.3309 113.519 5.22106V6.85301H86.7126V5.22106C86.7126 4.3309 87.4741 3.5891 88.388 3.5891ZM111.843 62.2653H88.388C87.4741 62.2653 86.7126 61.5235 86.7126 60.6333V15.0128H113.519V60.6333C113.519 61.5235 112.757 62.2653 111.843 62.2653Z" fill="#F2F2F2"/>
<path d="M100.116 34.7383C102.832 34.7383 105.096 32.4743 105.096 29.7575C105.096 27.0406 102.832 24.7766 100.116 24.7766C97.3988 24.7766 95.1348 27.0406 95.1348 29.7575C95.1348 32.4743 97.3233 34.7383 100.116 34.7383ZM100.116 28.0972C101.021 28.0972 101.776 28.8519 101.776 29.7575C101.776 30.6631 101.021 31.4178 100.116 31.4178C99.21 31.4178 98.4553 30.6631 98.4553 29.7575C98.4553 28.8519 99.21 28.0972 100.116 28.0972Z" fill="#F2F2F2"/>
<path d="M107.088 44.7001H94.0476C93.1584 44.7001 92.4175 45.5234 92.4175 46.5113C92.4175 47.4992 93.1584 48.3225 94.0476 48.3225H107.088C107.978 48.3225 108.718 47.4992 108.718 46.5113C108.718 45.441 107.978 44.7001 107.088 44.7001Z" fill="#F2F2F2"/>
<path d="M107.088 49.2283H94.0476C93.1584 49.2283 92.4175 50.0516 92.4175 51.0395C92.4175 52.0274 93.1584 52.8507 94.0476 52.8507H107.088C107.978 52.8507 108.718 52.0274 108.718 51.0395C108.718 49.9692 107.978 49.2283 107.088 49.2283Z" fill="#F2F2F2"/>
<path d="M107.088 54.6619H94.0476C93.1584 54.6619 92.4175 55.2793 92.4175 56.0203C92.4175 56.7612 93.1584 57.3787 94.0476 57.3787H107.088C107.978 57.3787 108.718 56.7612 108.718 56.0203C108.718 55.2793 107.978 54.6619 107.088 54.6619Z" fill="#F2F2F2"/>
<path d="M74.181 0.325195C50.9946 0.325195 27.8081 0.325195 4.62168 0.325195C2.10473 0.325195 0.0454102 2.32805 0.0454102 4.85016V48.3195C0.0454102 50.8416 2.10473 52.8444 4.62168 52.8444H31.698V56.4792H28.7996C26.2827 56.4792 24.2234 58.4821 24.2234 61.0042V64.0456C24.2234 64.8616 24.9098 65.5292 25.7488 65.5292H53.1302C53.9691 65.5292 54.6556 64.8616 54.6556 64.0456V61.0042C54.6556 58.4821 52.5963 56.4792 50.0793 56.4792H47.181V52.8444H74.2573C76.7742 52.8444 78.8335 50.8416 78.8335 48.3195V4.85016C78.7573 2.32805 76.6979 0.325195 74.181 0.325195ZM50.003 59.5206C50.842 59.5206 51.5285 60.1882 51.5285 61.0042V62.4878H27.2742V61.0042C27.2742 60.1882 27.9607 59.5206 28.7996 59.5206H50.003ZM34.8251 56.4792V52.8444H44.0539V56.4792H34.8251ZM75.7064 48.3195C75.7064 49.1355 75.02 49.8031 74.181 49.8031H4.62168C3.7827 49.8031 3.09626 49.1355 3.09626 48.3195V4.85016C3.09626 4.03418 3.7827 3.36656 4.62168 3.36656H74.1047C74.9437 3.36656 75.6301 4.03418 75.6301 4.85016V48.3195H75.7064Z" fill="#F2F2F2"/>
<path d="M3 41H76" stroke="#F2F2F2" stroke-width="4" stroke-miterlimit="10"/>
</svg>
